# Exported from MakeClothes (TM)
# author Mistress Saeko
# license CC-BY
# homepage https://silkysoftworks.wordpress.com
v 1.6452 4.6790 0.7858
v 1.2153 3.4253 1.5528
v 1.7516 5.0190 -0.1726
v 1.0931 4.0300 -0.5862
v 1.8559 3.9157 -0.2959
v 1.1620 3.1608 1.5417
v 1.4601 3.5171 0.1025
v 1.5179 4.0624 -0.4122
v 1.3014 3.0331 0.1617
v 1.9143 4.4771 0.7282
v 1.2076 2.6672 0.2084
v 0.3367 3.3063 -0.5142
v 1.0926 2.7582 1.5236
v 1.3923 3.2773 0.1261
v 0.3374 2.6295 -0.4357
v 0.3434 3.5809 -0.5838
v 0.3319 3.0213 -0.4716
v 1.2049 3.7069 1.4738
v 1.1988 5.2740 -0.2434
v 1.5667 3.7523 0.5292
v 0.3711 4.1927 1.3462
v 1.6901 4.0496 -0.3823
v 2.1574 4.7508 -0.1238
v 1.6600 3.8354 0.3780
v 1.8731 3.6551 0.3810
v 2.4052 4.3986 -0.0468
v 1.7545 3.7943 0.4088
v 2.1127 4.2274 0.7226
v 2.2741 3.9825 0.7148
v 2.0276 3.7107 -0.2689
v 2.5639 4.0979 -0.0232
v 2.3216 3.9238 -0.2746
v 2.0108 3.7904 0.6672
v 1.8857 3.9718 0.7071
v 1.9758 4.4325 -0.4509
v 0.7994 4.8665 0.8695
v 1.7703 4.0792 0.7299
v 1.6481 4.6181 -0.5073
v 2.1686 4.1740 -0.3434
v 1.2426 4.7123 -0.5819
v 1.5758 4.1369 0.8378
v 2.5417 4.1483 0.4313
v 2.3278 4.3965 0.4380
v 2.1225 4.7522 0.4228
v 1.1538 5.1979 0.3129
v 1.7655 5.0616 0.3774
v 1.7076 3.7288 -0.0188
v 1.8588 3.5627 0.0028
v 1.6004 3.7816 -0.0717
v 1.5235 3.7006 -0.0099
v 1.3927 3.3256 0.7506
v 1.3131 2.6876 0.8112
v 1.3292 3.0670 0.7817
v 1.4697 3.5758 0.7185
v 1.4258 5.1930 0.3335
v 0.7666 4.8031 -0.6924
v 1.2412 4.7906 0.8202
v 1.1534 4.1652 1.2553
v 1.4385 5.1776 -0.2136
v 0.3580 3.6839 1.5590
v 0.9509 3.0454 -0.3022
v 1.0534 3.5537 -0.4584
v 0.9355 2.6570 -0.2784
v 0.3470 2.7574 1.6006
v 0.9925 3.3087 -0.3726
v 0.3486 3.1436 1.6086
v 0.3651 4.0647 -0.6681
v 0.3549 3.4153 1.6127
v -1.6456 4.6793 0.7860
v -1.2156 3.4239 1.5539
v -1.7546 5.0166 -0.1716
v -1.0942 4.0281 -0.5853
v -1.8578 3.9137 -0.2950
v -1.1608 3.1596 1.5434
v -1.4608 3.5152 0.1030
v -1.5193 4.0595 -0.4117
v -1.3006 3.0317 0.1631
v -1.9152 4.4764 0.7279
v -1.2066 2.6657 0.2100
v -0.3368 3.3057 -0.5144
v -1.0904 2.7574 1.5247
v -1.3920 3.2759 0.1276
v -0.3360 2.6289 -0.4356
v -0.3436 3.5806 -0.5828
v -0.3314 3.0205 -0.4715
v -1.2057 3.7052 1.4753
v -1.1911 5.2751 -0.2459
v -1.5654 3.7519 0.5295
v -0.3726 4.1922 1.3457
v -1.6916 4.0470 -0.3814
v -2.1573 4.7506 -0.1249
v -1.6602 3.8334 0.3781
v -1.8732 3.6533 0.3824
v -2.4048 4.3983 -0.0480
v -1.7538 3.7912 0.4101
v -2.1130 4.2262 0.7228
v -2.2728 3.9797 0.7142
v -2.0279 3.7097 -0.2700
v -2.5652 4.0985 -0.0235
v -2.3226 3.9226 -0.2747
v -2.0090 3.7888 0.6667
v -1.8851 3.9716 0.7057
v -1.9764 4.4300 -0.4497
v -0.8102 4.8642 0.8699
v -1.7701 4.0776 0.7289
v -1.6501 4.6157 -0.5080
v -2.1694 4.1731 -0.3440
v -1.2449 4.7104 -0.5817
v -1.5851 4.1287 0.8418
v -2.5399 4.1489 0.4309
v -2.3283 4.3953 0.4375
v -2.1225 4.7510 0.4222
v -1.1277 5.2000 0.3118
v -1.7660 5.0611 0.3777
v -1.7091 3.7270 -0.0174
v -1.8604 3.5602 0.0043
v -1.6014 3.7788 -0.0715
v -1.5244 3.6980 -0.0097
v -1.3959 3.3236 0.7514
v -1.3123 2.6865 0.8120
v -1.3280 3.0660 0.7830
v -1.4725 3.5739 0.7201
v -1.4264 5.1937 0.3324
v -0.7684 4.8026 -0.6927
v -1.2446 4.7891 0.8222
v -1.1537 4.1620 1.2544
v -1.4428 5.1753 -0.2141
v -0.3587 3.6829 1.5583
v -0.9502 3.0438 -0.3012
v -1.0537 3.5520 -0.4578
v -0.9338 2.6554 -0.2765
v -0.3453 2.7566 1.6013
v -0.9923 3.3070 -0.3720
v -0.3477 3.1428 1.6091
v -0.3660 4.0639 -0.6684
v -0.3543 3.4147 1.6134
v 1.5624 5.1035 -0.1943
v 1.3639 4.0300 -0.4395
v 1.5182 3.6789 0.6596
v 1.4658 4.7515 0.8334
v 1.3648 5.0400 0.5939
v 0.9670 3.1807 -0.3278
v 1.3691 3.1938 0.7599
v 1.7991 4.5916 0.7345
v 1.9548 4.8851 -0.1469
v 1.6105 3.8167 0.4070
v 1.6076 4.0868 -0.4124
v 1.0837 3.7278 -0.5173
v 1.3152 2.9076 0.7978
v -0.0001 3.4002 1.5471
v -0.0006 3.6576 1.4863
v 0.9412 2.8791 -0.2879
v 1.3093 3.1023 1.1301
v 1.0185 3.4344 -0.4157
v 0.3524 3.2799 1.6118
v 1.1748 3.0380 -0.0975
v 1.2862 2.4394 0.8276
v 1.3478 3.5169 -0.2170
v 1.3685 3.3597 1.1098
v 0.9322 2.4070 -0.2716
v -0.0000 3.2880 -0.5302
v -0.0003 3.5749 -0.5657
v 1.1250 2.6607 -0.0624
v 1.2654 2.7170 1.1397
v 1.4223 3.4552 0.7387
v 0.3639 3.8686 1.4700
v 1.0832 5.1039 -0.4931
v 0.3579 3.5488 1.5868
v 0.3458 2.9786 1.6032
v 1.2749 3.2794 -0.1660
v 0.3505 2.5128 1.5970
v 1.4316 3.6203 1.0779
v 0.0006 2.7528 1.5814
v 0.0007 2.6176 -0.4587
v 0.0002 3.0003 -0.5056
v 0.0005 3.1383 1.5825
v 0.8554 5.3556 -0.2769
v 0.2888 4.8180 -0.5978
v 0.3829 4.9047 0.9089
v 1.7016 4.9263 0.6222
v 1.5721 3.8869 0.7311
v 1.4794 3.8252 -0.2502
v 1.6865 4.8528 -0.3906
v 2.0211 4.3456 0.7207
v 2.3097 4.5788 -0.0828
v 1.7140 3.8224 0.3930
v 1.7711 3.9842 -0.3348
v 2.0095 4.6382 0.6135
v 1.6998 3.9420 0.5556
v 1.5890 3.8958 -0.2597
v 2.0639 4.6164 -0.3478
v 2.1938 4.1081 0.7191
v 2.4889 4.2378 -0.0256
v 1.8099 3.7466 0.4069
v 1.9372 3.8211 -0.2741
v 1.7519 3.8037 -0.1944
v 2.2982 4.2954 -0.2386
v 2.2200 4.3363 0.6286
v 1.8106 3.8832 0.5736
v 2.3519 3.8720 0.6889
v 2.6143 3.9581 -0.0124
v 1.9394 3.5255 0.3468
v 2.1324 3.6018 -0.2349
v 1.9234 3.7268 0.5397
v 1.9254 3.6125 -0.1667
v 2.4107 4.0798 0.6033
v 2.4569 4.0083 -0.1938
v 1.4529 4.6702 -0.5322
v 1.4050 4.1366 1.0315
v 1.6892 4.1371 0.7453
v 1.8258 4.5423 -0.4870
v -0.0003 4.0737 -0.6175
v -0.0008 4.1660 1.2913
v 1.8205 4.0251 0.7097
v 2.0858 4.3016 -0.3878
v 1.9427 3.8987 0.6853
v 2.2349 4.0430 -0.3006
v 2.0762 3.6644 0.6624
v 2.3949 3.8056 -0.2440
v 2.1700 3.8243 -0.2839
v 2.1239 3.8674 0.7323
v 1.9834 4.0828 0.7677
v 1.8482 4.2329 -0.4362
v 0.4727 4.5521 1.1418
v 1.8405 4.2745 0.7846
v 1.5982 4.3341 -0.5092
v 2.0079 4.0411 -0.3396
v 1.1321 4.3739 -0.6119
v 1.5991 4.4089 0.8448
v 1.5669 5.1518 0.3466
v 1.9537 4.9106 0.3997
v 0.8323 5.2107 0.3163
v 2.2218 4.5571 0.4317
v 2.4232 4.2517 0.4436
v 2.6103 4.0189 0.4004
v 2.5873 4.1414 0.1983
v 2.4095 4.4256 0.2043
v 2.1861 4.7894 0.1517
v 1.4463 5.2303 0.0619
v 1.8015 5.1000 0.0891
v 1.4868 3.6268 0.0673
v 1.3507 3.1551 0.1378
v 1.5543 3.7528 -0.0731
v 1.2474 2.8813 0.1878
v 1.2024 2.4175 0.2187
v 1.4245 3.3998 0.1199
v 1.6522 3.7754 -0.0412
v 1.7714 3.6623 0.0007
v 1.9661 3.4625 -0.0013
v 1.7130 3.7381 0.2094
v 1.8482 3.5806 0.2026
v 1.6352 3.7727 0.1696
v 1.5503 3.7143 0.2768
v 1.4201 3.2942 0.4410
v 1.2744 2.6748 0.5060
v 1.3285 3.0480 0.4710
v 1.4939 3.5419 0.4155
v 1.0545 5.0445 0.5721
v 0.3327 3.1657 -0.4884
v 0.3509 3.7706 -0.6195
v 0.3347 2.8511 -0.4549
v 0.3403 3.4431 -0.5509
v 1.1912 3.2924 1.5373
v 0.3381 2.3796 -0.4265
v 1.1801 3.8845 1.3878
v 1.3613 5.0072 -0.4370
v 1.2109 3.5703 1.5311
v 1.1362 2.9947 1.5431
v 1.0597 2.5032 1.5141
v 1.1537 4.4766 1.0256
v 0.4750 4.4133 -0.7215
v 1.1871 5.2565 0.0535
v 1.3013 5.1911 0.3227
v 1.0162 4.7486 -0.6409
v 0.9931 4.8205 0.8341
v 0.7464 4.1943 1.3203
v 1.3266 5.2079 -0.2240
v 0.7416 3.7109 1.5788
v 0.6536 3.0467 -0.4145
v 0.6866 3.5836 -0.5552
v 0.6468 2.6548 -0.3865
v 0.6955 2.7676 1.6274
v 0.6653 3.3241 -0.4839
v 0.7263 3.1735 1.6420
v 0.7286 4.0524 -0.6653
v 0.7349 3.4408 1.6477
v -1.5641 5.1006 -0.1940
v -1.3652 4.0274 -0.4390
v -1.5231 3.6761 0.6607
v -1.4676 4.7502 0.8333
v -1.3659 5.0370 0.5963
v -0.9666 3.1790 -0.3271
v -1.3694 3.1924 0.7612
v -1.7998 4.5905 0.7332
v -1.9564 4.8806 -0.1448
v -1.6111 3.8146 0.4073
v -1.6090 4.0842 -0.4111
v -1.0841 3.7261 -0.5163
v -1.3146 2.9065 0.7991
v -0.9400 2.8774 -0.2865
v -1.3078 3.1002 1.1320
v -1.0189 3.4325 -0.4154
v -0.3517 3.2791 1.6121
v -1.1736 3.0363 -0.0961
v -1.2846 2.4385 0.8293
v -1.3477 3.5149 -0.2160
v -1.3678 3.3572 1.1114
v -0.9299 2.4054 -0.2693
v -1.1233 2.6591 -0.0605
v -1.2634 2.7150 1.1412
v -1.4264 3.4525 0.7400
v -0.3647 3.8686 1.4707
v -1.0866 5.1003 -0.4941
v -0.3580 3.5481 1.5876
v -0.3447 2.9778 1.6040
v -1.2743 3.2776 -0.1648
v -0.3479 2.5136 1.5971
v -1.4367 3.6169 1.0818
v -0.8651 5.3525 -0.2763
v -0.2900 4.8194 -0.5969
v -0.3860 4.9023 0.9099
v -1.7027 4.9252 0.6228
v -1.5798 3.8842 0.7303
v -1.4808 3.8221 -0.2503
v -1.6892 4.8494 -0.3894
v -2.0215 4.3446 0.7206
v -2.3086 4.5782 -0.0838
v -1.7140 3.8200 0.3936
v -1.7728 3.9820 -0.3339
v -2.0103 4.6373 0.6137
v -1.6998 3.9408 0.5551
v -1.5903 3.8926 -0.2596
v -2.0656 4.6141 -0.3476
v -2.1938 4.1066 0.7193
v -2.4880 4.2370 -0.0265
v -1.8094 3.7438 0.4086
v -1.9395 3.8195 -0.2724
v -1.7533 3.8020 -0.1930
v -2.2987 4.2941 -0.2381
v -2.2206 4.3354 0.6283
v -1.8087 3.8804 0.5751
v -2.3550 3.8673 0.6883
v -2.6140 3.9582 -0.0129
v -1.9400 3.5241 0.3481
v -2.1316 3.6015 -0.2345
v -1.9231 3.7255 0.5407
v -1.9295 3.6112 -0.1640
v -2.4108 4.0782 0.6036
v -2.4550 4.0059 -0.1925
v -1.4545 4.6678 -0.5310
v -1.4059 4.1339 1.0241
v -1.6894 4.1372 0.7448
v -1.8272 4.5396 -0.4861
v -1.8186 4.0236 0.7089
v -2.0875 4.2998 -0.3870
v -1.9416 3.8979 0.6852
v -2.2354 4.0415 -0.2998
v -2.0805 3.6660 0.6586
v -2.3958 3.8030 -0.2441
v -2.1712 3.8225 -0.2830
v -2.1274 3.8692 0.7294
v -1.9833 4.0818 0.7675
v -1.8495 4.2304 -0.4358
v -0.4749 4.5523 1.1436
v -1.8409 4.2727 0.7839
v -1.5994 4.3314 -0.5084
v -2.0090 4.0394 -0.3382
v -1.1338 4.3723 -0.6103
v -1.5929 4.4046 0.8292
v -1.5671 5.1512 0.3476
v -1.9543 4.9101 0.4004
v -0.8415 5.2087 0.3175
v -2.2230 4.5565 0.4305
v -2.4227 4.2498 0.4427
v -2.6105 4.0190 0.4003
v -2.5861 4.1409 0.1980
v -2.4075 4.4243 0.2036
v -2.1855 4.7890 0.1509
v -1.4489 5.2309 0.0609
v -1.8028 5.0978 0.0896
v -1.4873 3.6247 0.0678
v -1.3501 3.1537 0.1390
v -1.5556 3.7500 -0.0729
v -1.2466 2.8798 0.1892
v -1.2021 2.4160 0.2203
v -1.4246 3.3981 0.1208
v -1.6518 3.7729 -0.0403
v -1.7745 3.6612 0.0023
v -1.9679 3.4610 0.0000
v -1.7137 3.7348 0.2105
v -1.8496 3.5787 0.2040
v -1.6364 3.7703 0.1697
v -1.5512 3.7122 0.2769
v -1.4210 3.2931 0.4419
v -1.2743 2.6735 0.5070
v -1.3277 3.0467 0.4724
v -1.4941 3.5407 0.4160
v -1.0558 5.0458 0.5698
v -0.3325 3.1651 -0.4886
v -0.3514 3.7704 -0.6183
v -0.3340 2.8504 -0.4549
v -0.3401 3.4429 -0.5496
v -1.1895 3.2913 1.5386
v -0.3365 2.3790 -0.4269
v -1.1862 3.8872 1.3869
v -1.3645 5.0042 -0.4367
v -1.2115 3.5687 1.5328
v -1.1357 2.9935 1.5447
v -1.0569 2.5025 1.5159
v -1.1559 4.4751 1.0271
v -0.4764 4.4126 -0.7195
v -1.1857 5.2571 0.0531
v -1.3029 5.1920 0.3212
v -1.0185 4.7467 -0.6420
v -0.9965 4.8214 0.8349
v -0.7479 4.1934 1.3212
v -1.3295 5.2066 -0.2244
v -0.7420 3.7098 1.5792
v -0.6529 3.0455 -0.4137
v -0.6867 3.5825 -0.5545
v -0.6458 2.6535 -0.3865
v -0.6940 2.7668 1.6289
v -0.6648 3.3233 -0.4816
v -0.7254 3.1725 1.6430
v -0.7299 4.0513 -0.6648
v -0.7344 3.4397 1.6481
v 1.5074 4.9419 -0.4097
v 1.3862 3.6985 -0.2602
v 1.5334 5.0321 0.6273
v 1.4542 3.7976 0.9909
v 1.1373 2.8811 -0.0747
v 1.2832 2.9448 1.1373
v 1.2252 3.1605 -0.1297
v 1.3178 3.3965 -0.1967
v 1.1151 2.4111 -0.0508
v 1.2276 2.4668 1.1543
v 1.3286 3.2322 1.1202
v 1.4201 3.4898 1.1077
v 0.6949 5.0719 0.5769
v 0.6609 5.1638 -0.5395
v 1.8694 4.7988 0.6181
v 1.8810 4.7472 -0.3794
v 1.5272 3.8901 -0.2767
v 1.6343 3.9372 0.6040
v 1.7596 3.9126 0.5583
v 2.1299 4.4910 0.6256
v 2.2055 4.4612 -0.2912
v 1.6694 3.8592 -0.2229
v 1.8643 3.8307 0.5745
v 2.3150 4.2038 0.6219
v 2.3853 4.1427 -0.2199
v 1.8379 3.7250 -0.1749
v 1.9839 3.5970 0.5121
v 2.4991 3.9699 0.5885
v 2.5175 3.8842 -0.1645
v 2.0320 3.5136 -0.1496
v 1.4057 4.3484 -0.5390
v 1.4177 4.4456 0.9622
v 1.7464 4.3641 0.7892
v 1.7368 4.3043 -0.4763
v 1.9140 4.1785 0.7837
v 1.9397 4.1370 -0.3961
v 2.0511 3.9840 0.7473
v 2.0833 3.9399 -0.3019
v 2.2116 3.7527 0.7012
v 2.2607 3.7128 -0.2670
v 1.5950 5.1926 0.0689
v 2.0068 4.9547 0.1185
v 0.8687 5.3144 0.0565
v 2.3092 4.5978 0.1830
v 2.5115 4.2814 0.2103
v 2.6540 4.0184 0.1833
v 1.5244 3.6436 0.3712
v 1.3761 3.1713 0.4511
v 1.5942 3.7500 0.1835
v 1.2875 2.8934 0.4942
v 1.2619 2.4257 0.5190
v 1.4604 3.4180 0.4317
v 1.6782 3.7651 0.1919
v 1.7682 3.6738 0.2176
v 1.9350 3.4765 0.1751
v 1.2073 5.0373 0.5795
v 0.6579 3.1878 -0.4403
v 0.7081 3.7622 -0.6083
v 0.6500 2.8776 -0.3965
v 0.6731 3.4547 -0.5206
v 0.7338 3.3071 1.6434
v 0.6468 2.4046 -0.3869
v 0.7402 3.9022 1.4862
v 1.2305 5.0647 -0.4798
v 0.7357 3.5802 1.6354
v 0.7110 3.0099 1.6404
v 0.6934 2.5213 1.6187
v 0.8128 4.5222 1.0980
v 0.8170 4.3966 -0.7090
v 1.3232 5.2448 0.0585
v -1.5110 4.9398 -0.4108
v -1.3871 3.6959 -0.2600
v -1.5330 5.0308 0.6274
v -1.4574 3.7937 0.9938
v 0.0003 3.2704 1.5733
v -0.0004 3.5260 1.5192
v 0.0001 3.1474 -0.5150
v -0.0002 3.4284 -0.5480
v -1.1361 2.8794 -0.0733
v -1.2815 2.9428 1.1394
v -1.2244 3.1588 -0.1283
v -1.3168 3.3948 -0.1954
v -1.1132 2.4094 -0.0488
v -1.2245 2.4650 1.1558
v -1.3273 3.2300 1.1221
v -1.4186 3.4865 1.1087
v -0.6964 5.0722 0.5762
v -0.0010 3.8557 1.4344
v -0.6505 5.1741 -0.5339
v -0.0002 3.7733 -0.5871
v 0.0006 2.9741 1.5803
v 0.0004 2.8293 -0.4925
v 0.0011 2.5031 1.5917
v 0.0008 2.3750 -0.4425
v -1.8703 4.7980 0.6185
v -1.8826 4.7459 -0.3813
v -1.5285 3.8869 -0.2768
v -1.6335 3.9370 0.6030
v -1.7579 3.9099 0.5594
v -2.1304 4.4899 0.6252
v -2.2057 4.4601 -0.2886
v -1.6707 3.8573 -0.2214
v -1.8636 3.8291 0.5753
v -2.3139 4.2020 0.6236
v -2.3860 4.1415 -0.2195
v -1.8407 3.7235 -0.1734
v -1.9836 3.5941 0.5141
v -2.4986 3.9703 0.5883
v -2.5158 3.8850 -0.1645
v -2.0330 3.5115 -0.1488
v -1.4069 4.3462 -0.5385
v -1.4216 4.4433 0.9607
v -1.7510 4.3628 0.7897
v -1.7382 4.3018 -0.4749
v -0.0010 4.6112 -0.6552
v -0.0008 4.7559 1.0550
v -1.9143 4.1777 0.7839
v -1.9414 4.1345 -0.3974
v -2.0501 3.9823 0.7465
v -2.0857 3.9387 -0.3025
v -2.2116 3.7517 0.6994
v -2.2608 3.7115 -0.2667
v -1.5977 5.1927 0.0687
v -2.0071 4.9557 0.1188
v -0.8680 5.3147 0.0560
v -2.3092 4.5979 0.1815
v -2.5111 4.2813 0.2095
v -2.6539 4.0183 0.1832
v -1.5246 3.6423 0.3715
v -1.3773 3.1695 0.4524
v -1.5949 3.7474 0.1837
v -1.2863 2.8921 0.4956
v -1.2611 2.4244 0.5206
v -1.4603 3.4171 0.4326
v -1.6776 3.7625 0.1927
v -1.7692 3.6708 0.2191
v -1.9365 3.4755 0.1763
v -1.2085 5.0382 0.5784
v -0.6575 3.1865 -0.4395
v -0.7086 3.7612 -0.6074
v -0.6491 2.8764 -0.3959
v -0.6729 3.4538 -0.5190
v -0.7333 3.3060 1.6443
v -0.6453 2.4034 -0.3864
v -0.7411 3.9013 1.4869
v -1.2341 5.0616 -0.4803
v -0.7350 3.5793 1.6364
v -0.7093 3.0090 1.6419
v -0.6911 2.5216 1.6202
v -0.8149 4.5213 1.0996
v -0.8184 4.3957 -0.7057
v -1.3259 5.2456 0.0565
v 1.0001 3.4406 1.6522
v 0.9180 4.0374 -0.6446
v 0.9525 3.1672 1.6225
v 0.8996 2.7644 1.6051
v 0.9767 3.7063 1.5742
v 1.1320 4.7370 -0.6162
v 1.3617 5.1929 0.3295
v 1.1130 4.7908 0.8130
v 0.9502 4.1767 1.2747
v 1.3825 5.2004 -0.2167
v 0.8062 3.0444 -0.3688
v 0.8667 3.5706 -0.5090
v 0.7948 2.6556 -0.3421
v 0.8272 3.3162 -0.4297
v 1.2852 5.0406 0.5844
v 0.8157 3.1820 -0.3945
v 0.8963 3.7454 -0.5709
v 0.7990 2.8777 -0.3514
v 0.8448 3.4448 -0.4743
v 0.7923 2.4056 -0.3373
v 0.9786 4.3853 -0.6701
v 1.3851 5.2392 0.0597
v 0.9785 3.3020 1.6251
v 0.9655 3.9028 1.4357
v 1.2913 5.0316 -0.4522
v 1.0102 3.5821 1.6698
v 0.9209 3.0027 1.6179
v 0.8918 2.5149 1.5994
v 0.9757 4.4891 1.0410
v -0.9971 3.4379 1.6635
v -0.9195 4.0356 -0.6452
v -0.9513 3.1672 1.6265
v -0.8986 2.7644 1.6081
v -0.9860 3.7032 1.5718
v -1.1345 4.7355 -0.6170
v -1.3627 5.1931 0.3282
v -1.1160 4.7878 0.8164
v -0.9511 4.1761 1.2760
v -1.3862 5.1981 -0.2176
v -0.8056 3.0429 -0.3680
v -0.8667 3.5692 -0.5080
v -0.7936 2.6541 -0.3412
v -0.8269 3.3149 -0.4288
v -1.2867 5.0418 0.5828
v -0.8153 3.1805 -0.3937
v -0.8969 3.7439 -0.5703
v -0.7981 2.8762 -0.3506
v -0.8448 3.4434 -0.4735
v -0.7905 2.4042 -0.3360
v -0.9797 4.3842 -0.6671
v -1.3876 5.2401 0.0583
v -0.9787 3.3017 1.6278
v -0.9668 3.9019 1.4375
v -1.2942 5.0280 -0.4518
v -1.0096 3.5821 1.6694
v -0.9195 3.0028 1.6211
v -0.8897 2.5150 1.6022
v -0.9776 4.4878 1.0418
v 0.1687 3.2966 -0.5270
v 0.1694 2.6230 -0.4526
v 0.1721 3.5779 -0.5753
v 0.1664 3.0104 -0.4925
v 1.0561 5.3219 -0.2669
v 0.1855 4.1753 1.3102
v 0.6289 4.8941 0.8980
v 0.9935 5.2040 0.3137
v 0.5560 4.8217 -0.6630
v 0.1817 3.6641 1.5051
v 0.1756 2.7535 1.5870
v 0.1767 3.1390 1.5846
v 0.1830 4.0715 -0.6263
v 0.1793 3.4052 1.5665
v 0.1782 3.2735 1.5850
v 0.1822 3.8589 1.4438
v 0.8687 5.1461 -0.5300
v 0.1806 3.5341 1.5402
v 0.1754 2.9745 1.5804
v 0.1762 2.5073 1.5942
v 0.2362 4.6584 1.1038
v 0.8705 5.0531 0.5706
v 0.1669 3.1559 -0.5077
v 0.1747 3.7728 -0.5989
v 0.1680 2.8399 -0.4768
v 0.1702 3.4356 -0.5512
v 0.1696 2.3772 -0.4374
v 0.2362 4.5133 -0.6828
v 1.0416 5.2839 0.0530
v -0.1688 3.2963 -0.5271
v -0.1681 2.6227 -0.4525
v -0.1722 3.5778 -0.5749
v -0.1659 3.0100 -0.4925
v -1.0617 5.3185 -0.2662
v -0.1870 4.1755 1.3097
v -0.6384 4.8919 0.8986
v -0.9941 5.2034 0.3143
v -0.5649 4.8214 -0.6650
v -0.1833 3.6626 1.5017
v -0.1743 2.7529 1.5869
v -0.1761 3.1385 1.5845
v -0.1837 4.0711 -0.6265
v -0.1793 3.4046 1.5675
v -0.1777 3.2729 1.5864
v -0.1840 3.8577 1.4405
v -0.8833 5.1526 -0.5192
v -0.1815 3.5328 1.5384
v -0.1746 2.9740 1.5809
v -0.1739 2.5077 1.5943
v -0.2396 4.6588 1.1031
v -0.8939 5.0510 0.5681
v -0.1667 3.1556 -0.5078
v -0.1751 3.7726 -0.5987
v -0.1671 2.8395 -0.4766
v -0.1705 3.4354 -0.5511
v -0.1680 2.3769 -0.4376
v -0.2379 4.5132 -0.6800
v -1.0406 5.2846 0.0528
vt 0.5559 0.3169
vt 0.5288 0.3238
vt 0.5205 0.2773
vt 0.5516 0.2775
vt 0.5660 0.3587
vt 0.5413 0.3703
vt 0.8200 0.1762
vt 0.8442 0.1726
vt 0.8473 0.2047
vt 0.8222 0.2155
vt 0.8236 0.1394
vt 0.8461 0.1396
vt 0.4464 0.1268
vt 0.4460 0.1421
vt 0.4155 0.1427
vt 0.4156 0.1258
vt 0.4726 0.1278
vt 0.5297 0.1266
vt 0.5293 0.1447
vt 0.4716 0.1443
vt 0.4735 0.1120
vt 0.5289 0.1093
vt 0.4159 0.1093
vt 0.4459 0.1104
vt 0.5207 0.5484
vt 0.4950 0.5387
vt 0.5104 0.5054
vt 0.5382 0.5162
vt 0.5059 0.5824
vt 0.4815 0.5723
vt 0.5947 0.6286
vt 0.6092 0.6006
vt 0.6402 0.6175
vt 0.6285 0.6434
vt 0.5639 0.6085
vt 0.5798 0.5792
vt 0.4041 0.6970
vt 0.3791 0.6955
vt 0.3894 0.6504
vt 0.4107 0.6515
vt 0.4033 0.7369
vt 0.3776 0.7347
vt 0.4285 0.6983
vt 0.4698 0.7003
vt 0.4821 0.7504
vt 0.4293 0.7395
vt 0.4320 0.6526
vt 0.4698 0.6548
vt 0.7539 0.5914
vt 0.7476 0.6076
vt 0.7170 0.5933
vt 0.7274 0.5785
vt 0.7822 0.5980
vt 0.7781 0.6144
vt 0.7614 0.5741
vt 0.7864 0.5797
vt 0.7367 0.5628
vt 0.4443 0.0936
vt 0.4158 0.0925
vt 0.4722 0.0956
vt 0.5283 0.0921
vt 0.4715 0.0745
vt 0.5278 0.0708
vt 0.4150 0.0714
vt 0.4423 0.0725
vt 0.5224 0.7900
vt 0.5241 0.7739
vt 0.5635 0.7878
vt 0.5630 0.8032
vt 0.4783 0.7761
vt 0.4821 0.7504
vt 0.5178 0.8064
vt 0.4745 0.7928
vt 0.5581 0.8198
vt 0.4904 0.6943
vt 0.4959 0.6548
vt 0.4944 0.7327
vt 0.7428 0.6474
vt 0.7369 0.6358
vt 0.7748 0.6394
vt 0.7863 0.6454
vt 0.7018 0.6466
vt 0.7020 0.6272
vt 0.5023 0.8573
vt 0.5065 0.8394
vt 0.5467 0.8528
vt 0.5425 0.8700
vt 0.4627 0.8471
vt 0.4670 0.8281
vt 0.4974 0.8794
vt 0.4580 0.8702
vt 0.5380 0.8909
vt 0.8636 0.1630
vt 0.8628 0.1322
vt 0.8710 0.1910
vt 0.8833 0.1517
vt 0.8914 0.1774
vt 0.8776 0.1238
vt 0.4909 0.9090
vt 0.5310 0.9192
vt 0.4527 0.9009
vt 0.4838 0.9420
vt 0.4471 0.9342
vt 0.5235 0.9517
vt 0.3286 0.7996
vt 0.3287 0.7800
vt 0.3748 0.7783
vt 0.3744 0.7972
vt 0.3052 0.8008
vt 0.2819 0.8019
vt 0.2818 0.7824
vt 0.3053 0.7813
vt 0.3050 0.8205
vt 0.2819 0.8215
vt 0.3743 0.8173
vt 0.3282 0.8195
vt 0.4429 0.0409
vt 0.4151 0.0393
vt 0.4713 0.0428
vt 0.5283 0.0401
vt 0.4714 0.0074
vt 0.5266 0.0055
vt 0.4171 0.0053
vt 0.4450 0.0067
vt 0.5119 0.8226
vt 0.5523 0.8362
vt 0.4709 0.8099
vt 0.3279 0.8938
vt 0.3281 0.8633
vt 0.3728 0.8614
vt 0.3709 0.8923
vt 0.3049 0.8941
vt 0.2819 0.8947
vt 0.2819 0.8654
vt 0.3049 0.8643
vt 0.3045 0.9274
vt 0.2819 0.9275
vt 0.3686 0.9261
vt 0.3270 0.9276
vt 0.3289 0.7606
vt 0.3296 0.7345
vt 0.3776 0.7347
vt 0.3759 0.7600
vt 0.3055 0.7615
vt 0.2819 0.7621
vt 0.2819 0.7350
vt 0.3056 0.7348
vt 0.3280 0.8397
vt 0.3738 0.8375
vt 0.3049 0.8407
vt 0.2818 0.8419
vt 0.4443 0.1593
vt 0.4461 0.1882
vt 0.4170 0.1866
vt 0.4163 0.1601
vt 0.4732 0.1615
vt 0.5309 0.1619
vt 0.5387 0.1874
vt 0.4740 0.1858
vt 0.4452 0.5217
vt 0.4598 0.4865
vt 0.4762 0.4926
vt 0.4632 0.5274
vt 0.4267 0.5172
vt 0.4015 0.5100
vt 0.4202 0.4695
vt 0.4418 0.4787
vt 0.3967 0.5521
vt 0.3701 0.5488
vt 0.4428 0.5611
vt 0.4244 0.5564
vt 0.6046 0.1904
vt 0.5871 0.1777
vt 0.6268 0.1754
vt 0.6392 0.1862
vt 0.5754 0.2065
vt 0.5387 0.1874
vt 0.8419 0.0389
vt 0.8608 0.0321
vt 0.8532 0.0660
vt 0.8328 0.0686
vt 0.8564 0.0074
vt 0.8691 0.0002
vt 0.3706 0.2294
vt 0.4201 0.2298
vt 0.4325 0.2824
vt 0.3853 0.2849
vt 0.3687 0.1840
vt 0.4170 0.1866
vt 0.3453 0.2299
vt 0.3201 0.2299
vt 0.3202 0.1841
vt 0.3445 0.1840
vt 0.3529 0.3014
vt 0.3200 0.3174
vt 0.7402 0.6226
vt 0.7079 0.6096
vt 0.7737 0.6292
vt 0.6242 0.5739
vt 0.5968 0.5513
vt 0.6521 0.5925
vt 0.6396 0.5501
vt 0.6652 0.5693
vt 0.6151 0.5272
vt 0.8698 0.0319
vt 0.8755 0.0012
vt 0.8654 0.0640
vt 0.8776 0.0356
vt 0.8755 0.0650
vt 0.8806 0.0054
vt 0.9108 0.0318
vt 0.8956 0.0374
vt 0.8980 0.0086
vt 0.9141 0.0055
vt 0.9111 0.0570
vt 0.8955 0.0657
vt 0.9293 0.0237
vt 0.9288 0.0481
vt 0.9316 0.0002
vt 0.6560 0.5300
vt 0.6324 0.5078
vt 0.6802 0.5495
vt 0.6718 0.5128
vt 0.6956 0.5326
vt 0.6488 0.4919
vt 0.8849 0.0380
vt 0.8865 0.0080
vt 0.8845 0.0670
vt 0.9007 0.1417
vt 0.8922 0.1158
vt 0.9099 0.1635
vt 0.9171 0.1318
vt 0.9284 0.1529
vt 0.9072 0.1079
vt 0.9337 0.1218
vt 0.9238 0.0992
vt 0.9469 0.1443
vt 0.9498 0.1144
vt 0.9637 0.1367
vt 0.9417 0.0922
vt 0.7683 0.5554
vt 0.7461 0.5455
vt 0.7913 0.5595
vt 0.7746 0.5363
vt 0.7943 0.5404
vt 0.7542 0.5284
vt 0.6868 0.4992
vt 0.6653 0.4796
vt 0.7084 0.5173
vt 0.7012 0.4866
vt 0.7199 0.5033
vt 0.6804 0.4692
vt 0.7260 0.5323
vt 0.7156 0.5492
vt 0.7364 0.5170
vt 0.9170 0.0798
vt 0.9001 0.0875
vt 0.9345 0.0721
vt 0.8875 0.0932
vt 0.8749 0.0953
vt 0.6785 0.6012
vt 0.6693 0.6229
vt 0.6903 0.5815
vt 0.4338 0.3396
vt 0.4619 0.3358
vt 0.4969 0.3800
vt 0.4755 0.3837
vt 0.4096 0.3416
vt 0.3756 0.3442
vt 0.4496 0.3875
vt 0.4248 0.3911
vt 0.8642 0.1001
vt 0.8493 0.1043
vt 0.5000 0.6168
vt 0.4736 0.6114
vt 0.6633 0.6474
vt 0.7025 0.5648
vt 0.4300 0.6056
vt 0.4147 0.6049
vt 0.4428 0.5611
vt 0.4518 0.5633
vt 0.4449 0.6077
vt 0.4614 0.5656
vt 0.5561 0.2392
vt 0.5205 0.2323
vt 0.8286 0.1036
vt 0.9642 0.1672
vt 0.9456 0.1746
vt 0.9839 0.1899
vt 0.9658 0.2001
vt 0.9814 0.1594
vt 0.9998 0.1812
vt 0.9272 0.1875
vt 0.9068 0.2018
vt 0.9470 0.2129
vt 0.9272 0.2295
vt 0.8853 0.2190
vt 0.8608 0.2349
vt 0.9045 0.2490
vt 0.8786 0.2672
vt 0.4941 0.4246
vt 0.5145 0.4205
vt 0.4717 0.4275
vt 0.4490 0.4302
vt 0.4831 0.4649
vt 0.4587 0.4688
vt 0.5226 0.4577
vt 0.5037 0.4613
vt 0.5797 0.3979
vt 0.5508 0.4107
vt 0.5928 0.4384
vt 0.5616 0.4493
vt 0.8341 0.2507
vt 0.8510 0.2843
vt 0.8145 0.5958
vt 0.8123 0.6084
vt 0.8474 0.5900
vt 0.8461 0.5964
vt 0.8165 0.5813
vt 0.8468 0.5788
vt 0.8168 0.5620
vt 0.8433 0.5632
vt 0.8161 0.5427
vt 0.8389 0.5460
vt 0.8094 0.6183
vt 0.8129 0.6265
vt 0.8445 0.6030
vt 0.8485 0.6088
vt 0.5201 0.7590
vt 0.5564 0.7734
vt 0.8266 0.6299
vt 0.8638 0.6118
vt 0.5776 0.1259
vt 0.5781 0.1440
vt 0.6201 0.1253
vt 0.6204 0.1430
vt 0.5775 0.1078
vt 0.6195 0.1074
vt 0.5733 0.0379
vt 0.5740 0.0679
vt 0.6152 0.0375
vt 0.6156 0.0674
vt 0.5722 0.0038
vt 0.6147 0.0032
vt 0.5753 0.0898
vt 0.6177 0.0893
vt 0.5798 0.1617
vt 0.6216 0.1606
vt 0.5315 0.4171
vt 0.5187 0.3766
vt 0.5228 0.4187
vt 0.5077 0.3787
vt 0.5313 0.4562
vt 0.5400 0.4545
vt 0.3558 0.5955
vt 0.3201 0.5933
vt 0.3137 0.6354
vt 0.2819 0.6224
vt 0.3826 0.5994
vt 0.3453 0.6486
vt 0.4975 0.3311
vt 0.4816 0.2786
vt 0.4795 0.3331
vt 0.4567 0.2812
vt 0.4747 0.2261
vt 0.4477 0.2289
vt 0.4775 0.5318
vt 0.4915 0.4984
vt 0.4703 0.5290
vt 0.4839 0.4955
vt 0.3444 0.1571
vt 0.3202 0.1569
vt 0.3683 0.1576
vt 0.3681 0.1400
vt 0.3203 0.1389
vt 0.3443 0.1394
vt 0.4192 0.8405
vt 0.4211 0.8207
vt 0.3964 0.8389
vt 0.3975 0.8190
vt 0.3947 0.8627
vt 0.4167 0.8644
vt 0.4275 0.7644
vt 0.4012 0.7622
vt 0.3993 0.7802
vt 0.4246 0.7822
vt 0.4133 0.8955
vt 0.3921 0.8937
vt 0.3891 0.9274
vt 0.4096 0.9292
vt 0.3444 0.0348
vt 0.3440 0.0647
vt 0.3205 0.0644
vt 0.3206 0.0345
vt 0.3678 0.0358
vt 0.3669 0.0656
vt 0.3692 0.0021
vt 0.3207 0.0002
vt 0.3450 0.0009
vt 0.4228 0.8011
vt 0.3982 0.7993
vt 0.3440 0.0866
vt 0.3442 0.1045
vt 0.3204 0.1042
vt 0.3205 0.0865
vt 0.3670 0.0874
vt 0.3674 0.1052
vt 0.3063 0.6945
vt 0.2819 0.6944
vt 0.3312 0.6947
vt 0.3443 0.1221
vt 0.3203 0.1219
vt 0.3679 0.1227
vt 0.0840 0.3166
vt 0.0882 0.2767
vt 0.1192 0.2768
vt 0.1110 0.3232
vt 0.8196 0.1765
vt 0.7953 0.1726
vt 0.7930 0.1396
vt 0.8163 0.1393
vt 0.8170 0.2157
vt 0.7921 0.2048
vt 0.0987 0.3698
vt 0.0738 0.3582
vt 0.1947 0.1262
vt 0.2251 0.1253
vt 0.2251 0.1424
vt 0.1946 0.1416
vt 0.1948 0.1099
vt 0.2248 0.1089
vt 0.1679 0.1272
vt 0.1106 0.1255
vt 0.1117 0.1082
vt 0.1672 0.1113
vt 0.1688 0.1437
vt 0.1109 0.1436
vt 0.0430 0.5482
vt 0.0257 0.5161
vt 0.0535 0.5052
vt 0.0688 0.5387
vt 0.8288 0.8160
vt 0.8178 0.7864
vt 0.8498 0.7692
vt 0.8618 0.8000
vt 0.7934 0.8264
vt 0.7849 0.7996
vt 0.0822 0.5723
vt 0.0578 0.5823
vt 0.1596 0.6970
vt 0.1531 0.6514
vt 0.1744 0.6503
vt 0.1846 0.6954
vt 0.1353 0.6983
vt 0.0940 0.7002
vt 0.0940 0.6547
vt 0.1317 0.6525
vt 0.1345 0.7395
vt 0.0816 0.7504
vt 0.1861 0.7346
vt 0.1604 0.7369
vt 0.6754 0.7596
vt 0.7033 0.7502
vt 0.7118 0.7661
vt 0.6796 0.7764
vt 0.6701 0.7415
vt 0.6962 0.7334
vt 0.6464 0.7627
vt 0.6446 0.7439
vt 0.6485 0.7795
vt 0.1966 0.0932
vt 0.2251 0.0921
vt 0.1987 0.0721
vt 0.2260 0.0710
vt 0.1686 0.0949
vt 0.1124 0.0909
vt 0.1131 0.0696
vt 0.1694 0.0738
vt 0.0413 0.7899
vt 0.0006 0.8031
vt 0.0002 0.7877
vt 0.0395 0.7738
vt 0.0459 0.8063
vt 0.0055 0.8197
vt 0.0854 0.7760
vt 0.0892 0.7927
vt 0.0816 0.7504
vt 0.0733 0.6942
vt 0.0679 0.6547
vt 0.6794 0.8166
vt 0.6867 0.8058
vt 0.7224 0.8016
vt 0.7202 0.8209
vt 0.6365 0.8093
vt 0.6487 0.8047
vt 0.0693 0.7327
vt 0.0614 0.8572
vt 0.0211 0.8700
vt 0.0169 0.8527
vt 0.0572 0.8393
vt 0.0663 0.8794
vt 0.0257 0.8909
vt 0.1010 0.8471
vt 0.1057 0.8702
vt 0.0967 0.8281
vt 0.7760 0.1629
vt 0.7769 0.1319
vt 0.7563 0.1515
vt 0.7622 0.1236
vt 0.7684 0.1908
vt 0.7480 0.1772
vt 0.0728 0.9090
vt 0.0328 0.9192
vt 0.0799 0.9420
vt 0.0402 0.9517
vt 0.1110 0.9009
vt 0.1166 0.9342
vt 0.2351 0.7996
vt 0.1893 0.7972
vt 0.1890 0.7783
vt 0.2350 0.7800
vt 0.2355 0.8195
vt 0.1895 0.8173
vt 0.2585 0.8008
vt 0.2587 0.8205
vt 0.2584 0.7813
vt 0.1982 0.0404
vt 0.2260 0.0388
vt 0.1964 0.0062
vt 0.2243 0.0050
vt 0.1698 0.0420
vt 0.1127 0.0388
vt 0.1148 0.0042
vt 0.1700 0.0066
vt 0.0517 0.8226
vt 0.0113 0.8361
vt 0.0928 0.8099
vt 0.2359 0.8938
vt 0.1928 0.8923
vt 0.1909 0.8614
vt 0.2356 0.8633
vt 0.2367 0.9276
vt 0.1951 0.9261
vt 0.2589 0.8941
vt 0.2593 0.9274
vt 0.2588 0.8643
vt 0.2349 0.7606
vt 0.1879 0.7600
vt 0.1861 0.7346
vt 0.2342 0.7344
vt 0.2583 0.7615
vt 0.2582 0.7348
vt 0.2357 0.8397
vt 0.1899 0.8375
vt 0.2588 0.8407
vt 0.1952 0.1587
vt 0.2242 0.1597
vt 0.2234 0.1862
vt 0.1943 0.1876
vt 0.1672 0.1608
vt 0.1093 0.1609
vt 0.1658 0.1857
vt 0.1015 0.1864
vt 0.1200 0.5214
vt 0.1006 0.5274
vt 0.0878 0.4926
vt 0.1047 0.4861
vt 0.1394 0.5566
vt 0.1209 0.5611
vt 0.1368 0.5172
vt 0.1615 0.5102
vt 0.1954 0.5470
vt 0.1656 0.5507
vt 0.1226 0.4784
vt 0.1442 0.4692
vt 0.0350 0.1892
vt 0.0002 0.1849
vt 0.0127 0.1741
vt 0.0526 0.1766
vt 0.7980 0.0389
vt 0.7791 0.0321
vt 0.7709 0.0002
vt 0.7834 0.0074
vt 0.8067 0.0685
vt 0.7866 0.0659
vt 0.1015 0.1864
vt 0.0638 0.2058
vt 0.2696 0.2293
vt 0.2547 0.2847
vt 0.2075 0.2819
vt 0.2201 0.2294
vt 0.2949 0.2299
vt 0.2869 0.3014
vt 0.2959 0.1839
vt 0.2234 0.1862
vt 0.2717 0.1838
vt 0.6851 0.7923
vt 0.7188 0.7834
vt 0.6510 0.7948
vt 0.8063 0.7586
vt 0.8362 0.7395
vt 0.7939 0.7331
vt 0.8210 0.7135
vt 0.7763 0.7733
vt 0.7664 0.7487
vt 0.7702 0.0319
vt 0.7644 0.0012
vt 0.7624 0.0356
vt 0.7596 0.0053
vt 0.7745 0.0639
vt 0.7645 0.0648
vt 0.7293 0.0318
vt 0.7260 0.0056
vt 0.7420 0.0086
vt 0.7444 0.0374
vt 0.7108 0.0237
vt 0.7085 0.0002
vt 0.7290 0.0570
vt 0.7111 0.0481
vt 0.7445 0.0656
vt 0.7801 0.7112
vt 0.8063 0.6920
vt 0.7665 0.6922
vt 0.7919 0.6743
vt 0.7537 0.7273
vt 0.7406 0.7087
vt 0.7550 0.0379
vt 0.7535 0.0080
vt 0.7556 0.0669
vt 0.7390 0.1413
vt 0.7476 0.1155
vt 0.7226 0.1313
vt 0.7328 0.1074
vt 0.7296 0.1631
vt 0.7114 0.1521
vt 0.7061 0.1210
vt 0.7160 0.0992
vt 0.6895 0.1134
vt 0.6983 0.0915
vt 0.6927 0.1435
vt 0.6762 0.1360
vt 0.6657 0.7223
vt 0.6888 0.7152
vt 0.6617 0.7028
vt 0.6829 0.6973
vt 0.6423 0.7231
vt 0.6416 0.7039
vt 0.7534 0.6768
vt 0.7771 0.6600
vt 0.7407 0.6626
vt 0.7634 0.6478
vt 0.7296 0.6920
vt 0.7201 0.6770
vt 0.7104 0.7046
vt 0.7186 0.7226
vt 0.7019 0.6881
vt 0.7233 0.0793
vt 0.7400 0.0872
vt 0.7057 0.0720
vt 0.7526 0.0930
vt 0.7652 0.0949
vt 0.7489 0.7788
vt 0.7554 0.8014
vt 0.7398 0.7577
vt 0.2049 0.3390
vt 0.1643 0.3838
vt 0.1429 0.3799
vt 0.1778 0.3356
vt 0.2292 0.3411
vt 0.2642 0.3438
vt 0.2151 0.3911
vt 0.1871 0.3871
vt 0.7757 0.0998
vt 0.7906 0.1042
vt 0.0637 0.6167
vt 0.0902 0.6114
vt 0.7583 0.8264
vt 0.7298 0.7398
vt 0.1338 0.6056
vt 0.1119 0.5634
vt 0.1209 0.5611
vt 0.1491 0.6049
vt 0.1189 0.6077
vt 0.1023 0.5656
vt 0.0834 0.2379
vt 0.1190 0.2319
vt 0.8108 0.1030
vt 0.6755 0.1666
vt 0.6938 0.1740
vt 0.6582 0.1586
vt 0.6555 0.1891
vt 0.6396 0.1803
vt 0.6735 0.1995
vt 0.7121 0.1870
vt 0.7323 0.2015
vt 0.6923 0.2123
vt 0.7119 0.2293
vt 0.7539 0.2189
vt 0.7784 0.2349
vt 0.7345 0.2488
vt 0.7603 0.2672
vt 0.1494 0.4251
vt 0.1252 0.4205
vt 0.1364 0.4612
vt 0.1168 0.4578
vt 0.1682 0.4272
vt 0.1897 0.4297
vt 0.1813 0.4688
vt 0.1569 0.4649
vt 0.0602 0.3975
vt 0.0891 0.4103
vt 0.8049 0.2509
vt 0.7876 0.2844
vt 0.0779 0.4490
vt 0.0467 0.4379
vt 0.6146 0.7565
vt 0.6153 0.7695
vt 0.6145 0.7417
vt 0.5829 0.7464
vt 0.5848 0.7354
vt 0.5833 0.7531
vt 0.6166 0.7225
vt 0.6198 0.7036
vt 0.5903 0.7205
vt 0.5968 0.7041
vt 0.6170 0.7795
vt 0.6125 0.7871
vt 0.5842 0.7597
vt 0.5795 0.7650
vt 0.0436 0.7589
vt 0.5985 0.7888
vt 0.5639 0.7661
vt 0.0073 0.7733
vt 0.0624 0.1248
vt 0.0619 0.1428
vt 0.0628 0.1066
vt 0.0199 0.1239
vt 0.0206 0.1059
vt 0.0195 0.1417
vt 0.0674 0.0364
vt 0.0665 0.0665
vt 0.0690 0.0021
vt 0.0253 0.0356
vt 0.0263 0.0011
vt 0.0248 0.0657
vt 0.0651 0.0884
vt 0.0225 0.0877
vt 0.0602 0.1607
vt 0.0181 0.1593
vt 0.1083 0.4170
vt 0.1212 0.3758
vt 0.0995 0.4544
vt 0.1170 0.4186
vt 0.1082 0.4562
vt 0.1320 0.3787
vt 0.2071 0.5955
vt 0.2438 0.5931
vt 0.1813 0.5993
vt 0.2185 0.6485
vt 0.2819 0.6224
vt 0.2502 0.6353
vt 0.1421 0.3304
vt 0.1603 0.3321
vt 0.1833 0.2806
vt 0.1583 0.2780
vt 0.1656 0.2254
vt 0.1926 0.2284
vt 0.0861 0.5319
vt 0.0724 0.4983
vt 0.0934 0.5290
vt 0.0801 0.4955
vt 0.2961 0.1569
vt 0.2963 0.1393
vt 0.2722 0.1574
vt 0.2725 0.1398
vt 0.1445 0.8405
vt 0.1426 0.8207
vt 0.1470 0.8644
vt 0.1673 0.8389
vt 0.1690 0.8627
vt 0.1662 0.8190
vt 0.1362 0.7644
vt 0.1391 0.7822
vt 0.1626 0.7622
vt 0.1645 0.7802
vt 0.1504 0.8955
vt 0.1541 0.9293
vt 0.1716 0.8937
vt 0.1746 0.9275
vt 0.2967 0.0346
vt 0.2970 0.0645
vt 0.2964 0.0009
vt 0.2734 0.0355
vt 0.2723 0.0021
vt 0.2741 0.0653
vt 0.1409 0.8011
vt 0.1655 0.7993
vt 0.2969 0.0865
vt 0.2966 0.1043
vt 0.2739 0.0872
vt 0.2735 0.1050
vt 0.2575 0.6945
vt 0.2326 0.6946
vt 0.2964 0.1219
vt 0.2729 0.1224
f 1/1 140/2 458/3 229/4
f 1/1 180/5 429/6 140/2
f 1/7 144/8 441/9 180/10
f 1/7 229/11 459/12 144/8
f 579/13 604/14 491/15 286/16
f 2/17 159/18 438/19 267/20
f 2/17 263/21 437/22 159/18
f 579/13 286/16 487/23 601/24
f 3/25 137/26 467/27 240/28
f 3/25 183/29 427/30 137/26
f 3/31 145/32 442/33 183/34
f 3/31 240/35 468/36 145/32
f 580/37 285/38 495/39 599/40
f 580/37 595/41 484/42 285/38
f 4/43 138/44 428/45 148/46
f 4/43 228/47 457/48 138/44
f 5/49 187/50 462/51 227/52
f 5/49 196/53 448/54 187/50
f 5/49 195/55 452/56 196/53
f 5/49 227/52 464/57 195/55
f 581/58 601/24 487/23 284/59
f 6/60 153/61 437/22 263/21
f 6/60 268/62 432/63 153/61
f 581/58 284/59 492/64 605/65
f 7/66 241/67 473/68 257/69
f 7/66 158/70 428/71 241/67
f 7/66 246/72 434/73 158/70
f 7/66 257/69 478/74 246/72
f 8/75 138/44 457/48 226/76
f 8/75 182/77 428/45 138/44
f 8/78 147/79 443/80 182/81
f 8/78 226/82 460/83 147/79
f 9/84 242/85 474/86 256/87
f 9/84 156/88 433/89 242/85
f 9/84 244/90 431/91 156/88
f 9/84 256/87 476/92 244/90
f 10/93 144/8 459/12 225/94
f 10/93 188/95 441/9 144/8
f 10/93 184/96 446/97 188/95
f 10/93 225/94 461/98 184/96
f 11/99 244/90 476/92 255/100
f 11/99 163/101 431/91 244/90
f 11/99 245/102 435/103 163/101
f 11/99 255/100 477/104 245/102
f 12/105 262/106 486/107 283/108
f 637/109 161/110 504/111 662/112
f 637/109 659/113 503/114 161/110
f 12/105 283/108 483/115 259/116
f 582/117 605/65 492/64 282/118
f 13/119 164/120 432/63 268/62
f 13/119 269/121 436/122 164/120
f 582/117 282/118 493/123 606/124
f 14/125 246/72 478/74 254/126
f 14/125 170/127 434/73 246/72
f 14/125 242/85 433/89 170/127
f 14/125 254/126 474/86 242/85
f 15/128 261/129 485/130 281/131
f 638/132 174/133 518/134 661/135
f 638/132 663/136 520/137 174/133
f 15/128 281/131 488/138 264/139
f 16/140 260/141 484/142 280/143
f 639/144 162/145 516/146 660/147
f 639/144 662/112 504/111 162/145
f 16/140 280/143 486/107 262/106
f 17/148 259/116 483/115 279/149
f 640/150 175/151 503/114 659/113
f 640/150 661/135 518/134 175/151
f 17/148 279/149 485/130 261/129
f 583/152 602/153 489/154 278/155
f 18/156 172/157 430/158 265/159
f 18/156 267/20 438/19 172/157
f 583/152 278/155 491/15 604/14
f 19/160 272/161 496/162 277/163
f 641/164 177/165 469/166 665/167
f 641/164 653/168 440/169 177/165
f 19/160 277/163 490/170 167/171
f 20/172 139/173 473/174 253/175
f 20/172 181/176 430/177 139/173
f 20/178 146/179 444/180 181/181
f 20/178 253/182 475/183 146/179
f 21/184 276/185 494/186 224/187
f 21/184 166/188 489/189 276/185
f 642/190 213/191 514/192 652/193
f 642/190 657/194 542/195 213/191
f 22/196 147/79 460/83 223/197
f 22/196 190/198 443/80 147/79
f 22/196 187/50 448/54 190/198
f 22/196 223/197 462/51 187/50
f 23/199 145/32 468/36 238/200
f 23/199 191/201 442/33 145/32
f 23/199 185/202 447/203 191/201
f 23/199 238/200 470/204 185/202
f 24/205 146/179 475/183 252/206
f 24/205 189/207 444/180 146/179
f 24/205 186/208 445/209 189/207
f 24/205 252/206 479/210 186/208
f 25/211 194/212 480/213 251/214
f 25/211 204/215 449/216 194/212
f 25/211 202/217 453/218 204/215
f 25/211 251/214 481/219 202/217
f 26/220 185/202 470/204 237/221
f 26/220 197/222 447/203 185/202
f 26/220 193/223 451/224 197/222
f 26/220 237/221 471/225 193/223
f 27/226 186/208 479/210 250/227
f 27/226 199/228 445/209 186/208
f 27/226 194/212 449/216 199/228
f 27/226 250/227 480/213 194/212
f 28/229 184/96 461/98 222/230
f 28/229 198/231 446/97 184/96
f 28/229 192/232 450/233 198/231
f 28/229 222/230 463/234 192/232
f 29/235 192/232 463/234 221/236
f 29/235 206/237 450/233 192/232
f 29/235 200/238 454/239 206/237
f 29/235 221/236 465/240 200/238
f 30/241 195/55 464/57 220/242
f 30/241 205/243 452/56 195/55
f 30/241 203/244 456/245 205/243
f 30/241 220/242 466/246 203/244
f 31/247 193/223 471/225 236/248
f 31/247 207/249 451/224 193/223
f 31/247 201/250 455/251 207/249
f 31/247 236/248 472/252 201/250
f 32/253 217/254 451/224 207/249
f 32/253 220/242 464/57 217/254
f 32/253 219/255 466/246 220/242
f 32/253 207/249 455/251 219/255
f 33/256 216/257 449/216 204/215
f 33/256 221/236 463/234 216/257
f 33/256 218/258 465/240 221/236
f 33/256 204/215 453/218 218/258
f 34/259 214/260 445/209 199/228
f 34/259 222/230 461/98 214/260
f 34/259 216/257 463/234 222/230
f 34/259 199/228 449/216 216/257
f 35/261 211/262 442/33 191/201
f 35/261 223/197 460/83 211/262
f 35/261 215/263 462/51 223/197
f 35/261 191/201 447/203 215/263
f 36/264 275/265 482/266 258/267
f 36/264 224/187 494/186 275/265
f 643/268 179/269 542/195 657/194
f 643/268 658/270 439/271 179/269
f 37/272 210/273 444/180 189/207
f 37/272 225/94 459/12 210/273
f 37/272 214/260 461/98 225/94
f 37/272 189/207 445/209 214/260
f 38/274 208/275 427/30 183/29
f 38/274 226/76 457/48 208/275
f 38/276 211/262 460/83 226/82
f 38/276 183/34 442/33 211/262
f 39/277 215/263 447/203 197/222
f 39/277 227/52 462/51 215/263
f 39/277 217/254 464/57 227/52
f 39/277 197/222 451/224 217/254
f 584/278 274/279 490/280 603/281
f 584/278 599/40 495/39 274/279
f 40/282 208/275 457/48 228/47
f 40/282 266/283 427/30 208/275
f 41/284 209/285 430/177 181/176
f 41/284 229/4 458/3 209/285
f 41/286 210/273 459/12 229/11
f 41/286 181/181 444/180 210/273
f 42/287 234/288 450/233 206/237
f 42/287 236/289 471/290 234/288
f 42/287 235/291 472/292 236/289
f 42/287 206/237 454/239 235/291
f 43/293 233/294 446/97 198/231
f 43/293 237/295 470/296 233/294
f 43/293 234/288 471/290 237/295
f 43/293 198/231 450/233 234/288
f 44/297 231/298 441/9 188/95
f 44/297 238/299 468/300 231/298
f 44/297 233/294 470/296 238/299
f 44/297 188/95 446/97 233/294
f 45/301 258/267 482/266 273/302
f 644/303 232/304 439/271 658/270
f 644/303 665/305 469/306 232/304
f 45/301 273/302 496/307 272/308
f 46/309 230/310 429/6 180/5
f 46/309 240/311 467/312 230/310
f 46/313 231/298 468/300 240/314
f 46/313 180/10 441/9 231/298
f 47/315 247/316 448/54 196/53
f 47/315 250/317 479/318 247/316
f 47/315 248/319 480/320 250/317
f 47/315 196/53 452/56 248/319
f 48/321 248/319 452/56 205/243
f 48/321 251/322 480/320 248/319
f 48/321 249/323 481/324 251/322
f 48/321 205/243 456/245 249/323
f 49/325 243/326 443/80 190/198
f 49/325 252/327 475/328 243/326
f 49/325 247/316 479/318 252/327
f 49/325 190/198 448/54 247/316
f 50/329 241/67 428/71 182/77
f 50/329 253/330 473/68 241/67
f 50/331 243/326 475/328 253/332
f 50/331 182/81 443/80 243/326
f 51/333 165/334 438/19 159/18
f 51/333 254/335 478/336 165/334
f 51/333 143/337 474/338 254/335
f 51/333 159/18 437/22 143/337
f 52/339 149/340 432/63 164/120
f 52/339 255/341 476/342 149/340
f 52/339 157/343 477/344 255/341
f 52/339 164/120 436/122 157/343
f 53/345 143/337 437/22 153/61
f 53/345 256/346 474/338 143/337
f 53/345 149/340 476/342 256/346
f 53/345 153/61 432/63 149/340
f 54/347 139/173 430/177 172/157
f 54/347 257/348 473/174 139/173
f 54/347 165/334 478/336 257/348
f 54/347 172/157 438/19 165/334
f 55/349 141/350 429/6 230/310
f 585/351 273/302 482/266 593/352
f 585/351 600/353 496/307 273/302
f 55/349 230/310 467/312 239/354
f 645/355 178/356 440/169 653/168
f 645/355 664/357 541/358 178/356
f 56/359 274/279 495/39 271/360
f 56/359 167/171 490/170 274/279
f 57/361 140/2 429/6 141/350
f 57/361 270/362 458/3 140/2
f 586/363 275/265 494/186 607/364
f 586/363 593/352 482/266 275/265
f 58/365 209/285 458/3 270/362
f 58/365 265/159 430/158 209/285
f 587/366 276/185 489/189 602/153
f 587/366 607/364 494/186 276/185
f 59/367 239/368 467/27 137/26
f 588/369 277/163 496/162 600/370
f 588/369 603/281 490/280 277/163
f 59/367 137/26 427/30 266/283
f 646/371 652/193 514/192 151/372
f 60/373 278/155 489/154 166/188
f 60/373 168/374 491/15 278/155
f 646/371 151/372 502/375 654/376
f 61/377 142/378 433/89 156/88
f 589/379 279/149 483/115 594/380
f 589/379 596/381 485/130 279/149
f 61/377 156/88 431/91 152/382
f 62/383 148/46 428/45 158/70
f 590/384 280/143 484/142 595/41
f 590/384 597/385 486/107 280/143
f 62/383 158/70 434/73 154/386
f 63/387 152/382 431/91 163/101
f 591/388 281/131 485/130 596/381
f 591/388 598/389 488/138 281/131
f 63/387 163/101 435/103 160/390
f 647/391 655/392 517/393 173/394
f 64/395 282/118 492/64 169/396
f 64/395 171/397 493/123 282/118
f 647/391 173/394 519/398 656/399
f 65/400 154/386 434/73 170/127
f 592/401 283/108 486/107 597/385
f 592/401 594/380 483/115 283/108
f 65/400 170/127 433/89 142/378
f 648/402 651/403 501/404 176/405
f 66/406 284/59 487/23 155/407
f 66/406 169/396 492/64 284/59
f 648/402 176/405 517/393 655/392
f 649/408 212/409 541/358 664/357
f 649/408 660/147 516/146 212/409
f 67/410 285/38 484/42 260/141
f 67/410 271/360 495/39 285/38
f 650/411 654/376 502/375 150/412
f 68/413 286/16 491/15 168/374
f 68/413 155/407 487/23 286/16
f 650/411 150/412 501/404 651/403
f 69/414 369/415 538/416 290/417
f 69/418 294/419 539/420 369/421
f 69/418 322/422 521/423 294/419
f 69/414 290/417 499/424 322/425
f 608/426 426/427 573/428 633/429
f 608/426 630/430 569/431 426/427
f 70/432 307/433 511/434 403/435
f 70/432 407/436 512/437 307/433
f 71/438 380/439 549/440 287/441
f 71/442 295/443 550/444 380/445
f 71/442 325/446 522/447 295/443
f 71/438 287/441 497/448 325/449
f 609/450 628/451 577/452 425/453
f 72/454 288/455 537/456 368/457
f 72/454 298/458 498/459 288/455
f 609/450 425/453 566/460 624/461
f 73/462 367/463 544/464 329/465
f 73/462 337/466 546/467 367/463
f 73/462 338/468 532/469 337/466
f 73/462 329/465 528/470 338/468
f 610/471 424/472 569/431 630/430
f 610/471 634/473 574/474 424/472
f 74/475 301/476 506/477 408/478
f 74/475 403/435 511/434 301/476
f 75/479 397/480 555/481 381/482
f 75/479 386/483 560/484 397/480
f 75/479 306/485 508/486 386/483
f 75/479 381/482 498/487 306/485
f 76/488 366/489 537/456 288/455
f 76/490 297/491 540/492 366/493
f 76/490 324/494 523/495 297/491
f 76/488 288/455 498/459 324/496
f 77/497 396/498 556/499 382/500
f 77/497 384/501 558/502 396/498
f 77/497 304/503 505/504 384/501
f 77/497 382/500 507/505 304/503
f 78/506 365/507 539/420 294/419
f 78/506 326/508 543/509 365/507
f 78/506 330/510 526/511 326/508
f 78/506 294/419 521/423 330/510
f 79/512 395/513 558/502 384/501
f 79/512 385/514 559/515 395/513
f 79/512 309/516 509/517 385/514
f 79/512 384/501 505/504 309/516
f 80/518 423/519 568/520 402/521
f 80/518 399/522 565/523 423/519
f 666/524 161/110 503/114 688/525
f 666/524 691/526 504/111 161/110
f 611/527 422/528 574/474 634/473
f 611/527 635/529 575/530 422/528
f 81/531 310/532 510/533 409/534
f 81/531 408/478 506/477 310/532
f 82/535 394/536 560/484 386/483
f 82/535 382/500 556/499 394/536
f 82/535 316/537 507/505 382/500
f 82/535 386/483 508/486 316/537
f 83/538 421/539 567/540 401/541
f 83/538 404/542 570/543 421/539
f 667/544 174/133 520/137 692/545
f 667/544 690/546 518/134 174/133
f 84/547 420/548 566/549 400/550
f 84/547 402/521 568/520 420/548
f 668/551 162/145 504/111 691/526
f 668/551 689/552 516/146 162/145
f 85/553 419/554 565/523 399/522
f 85/553 401/541 567/540 419/554
f 669/555 175/151 518/134 690/546
f 669/555 688/525 503/114 175/151
f 612/556 418/557 571/558 631/559
f 612/556 633/429 573/428 418/557
f 86/560 318/561 512/437 407/436
f 86/560 405/562 500/563 318/561
f 87/564 417/565 578/566 412/567
f 87/564 313/568 572/569 417/565
f 670/570 319/571 515/572 682/573
f 670/570 694/574 551/575 319/571
f 88/576 393/577 555/578 289/579
f 88/580 296/581 557/582 393/583
f 88/580 323/584 524/585 296/581
f 88/576 289/579 500/586 323/587
f 89/588 364/589 576/590 416/591
f 671/592 213/191 542/195 686/593
f 671/592 681/594 514/192 213/191
f 89/588 416/591 571/595 312/596
f 90/597 363/598 540/492 297/491
f 90/597 329/465 544/464 363/598
f 90/597 332/599 528/470 329/465
f 90/597 297/491 523/495 332/599
f 91/600 378/601 550/444 295/443
f 91/600 327/602 552/603 378/601
f 91/600 333/604 527/605 327/602
f 91/600 295/443 522/447 333/604
f 92/606 392/607 557/582 296/581
f 92/606 328/608 561/609 392/607
f 92/606 331/610 525/611 328/608
f 92/606 296/581 524/585 331/610
f 93/612 391/613 562/614 336/615
f 93/612 344/616 563/617 391/613
f 93/612 346/618 533/619 344/616
f 93/612 336/615 529/620 346/618
f 94/621 377/622 552/603 327/602
f 94/621 335/623 553/624 377/622
f 94/621 339/625 531/626 335/623
f 94/621 327/602 527/605 339/625
f 95/627 390/628 561/609 328/608
f 95/627 336/615 562/614 390/628
f 95/627 341/629 529/620 336/615
f 95/627 328/608 525/611 341/629
f 96/630 362/631 543/509 326/508
f 96/630 334/632 545/633 362/631
f 96/630 340/634 530/635 334/632
f 96/630 326/508 526/511 340/634
f 97/636 361/637 545/633 334/632
f 97/636 342/638 547/639 361/637
f 97/636 348/640 534/641 342/638
f 97/636 334/632 530/635 348/640
f 98/642 360/643 546/467 337/466
f 98/642 345/644 548/645 360/643
f 98/642 347/646 536/647 345/644
f 98/642 337/466 532/469 347/646
f 99/648 376/649 553/624 335/623
f 99/648 343/650 554/651 376/649
f 99/648 349/652 535/653 343/650
f 99/648 335/623 531/626 349/652
f 100/654 349/652 531/626 357/655
f 100/654 359/656 535/653 349/652
f 100/654 360/643 548/645 359/656
f 100/654 357/655 546/467 360/643
f 101/657 346/618 529/620 356/658
f 101/657 358/659 533/619 346/618
f 101/657 361/637 547/639 358/659
f 101/657 356/658 545/633 361/637
f 102/660 341/629 525/611 354/661
f 102/660 356/658 529/620 341/629
f 102/660 362/631 545/633 356/658
f 102/660 354/661 543/509 362/631
f 103/662 333/604 522/447 353/663
f 103/662 355/664 527/605 333/604
f 103/662 363/598 544/464 355/664
f 103/662 353/663 540/492 363/598
f 104/665 398/666 564/667 415/668
f 672/669 321/670 513/671 687/672
f 672/669 686/593 542/195 321/670
f 104/665 415/668 576/590 364/589
f 105/673 331/610 524/585 352/674
f 105/673 354/661 525/611 331/610
f 105/673 365/507 543/509 354/661
f 105/673 352/674 539/420 365/507
f 106/675 325/449 497/448 350/676
f 106/677 353/663 522/447 325/446
f 106/677 366/493 540/492 353/663
f 106/675 350/676 537/456 366/489
f 107/678 339/625 527/605 355/664
f 107/678 357/655 531/626 339/625
f 107/678 367/463 546/467 357/655
f 107/678 355/664 544/464 367/463
f 613/679 632/680 572/681 414/682
f 108/683 350/676 497/448 406/684
f 108/683 368/457 537/456 350/676
f 613/679 414/682 577/452 628/451
f 109/685 323/587 500/586 351/686
f 109/687 352/674 524/585 323/584
f 109/687 369/421 539/420 352/674
f 109/685 351/686 538/416 369/415
f 110/688 348/640 530/635 374/689
f 110/688 375/690 534/641 348/640
f 110/688 376/691 554/692 375/690
f 110/688 374/689 553/693 376/691
f 111/694 340/634 526/511 373/695
f 111/694 374/689 530/635 340/634
f 111/694 377/696 553/693 374/689
f 111/694 373/695 552/697 377/696
f 112/698 330/510 521/423 371/699
f 112/698 373/695 526/511 330/510
f 112/698 378/700 552/697 373/695
f 112/698 371/699 550/701 378/700
f 113/702 413/703 564/667 398/666
f 113/702 412/704 578/705 413/703
f 673/706 372/707 551/708 694/709
f 673/706 687/672 513/671 372/707
f 114/710 322/425 499/424 370/711
f 114/712 371/699 521/423 322/422
f 114/712 380/713 550/701 371/699
f 114/710 370/711 549/714 380/715
f 115/716 338/468 528/470 387/717
f 115/716 388/718 532/469 338/468
f 115/716 390/719 562/720 388/718
f 115/716 387/717 561/721 390/719
f 116/722 347/646 532/469 388/718
f 116/722 389/723 536/647 347/646
f 116/722 391/724 563/725 389/723
f 116/722 388/718 562/720 391/724
f 117/726 332/599 523/495 383/727
f 117/726 387/717 528/470 332/599
f 117/726 392/728 561/721 387/717
f 117/726 383/727 557/729 392/728
f 118/730 324/496 498/459 381/482
f 118/731 383/727 523/495 324/494
f 118/731 393/732 557/729 383/727
f 118/730 381/482 555/481 393/733
f 119/734 307/433 512/437 311/735
f 119/734 293/736 511/434 307/433
f 119/734 394/737 556/738 293/736
f 119/734 311/735 560/739 394/737
f 120/740 310/532 506/477 299/741
f 120/740 305/742 510/533 310/532
f 120/740 395/743 559/744 305/742
f 120/740 299/741 558/745 395/743
f 121/746 301/476 511/434 293/736
f 121/746 299/741 506/477 301/476
f 121/746 396/747 558/745 299/741
f 121/746 293/736 556/738 396/747
f 122/748 318/561 500/563 289/579
f 122/748 311/735 512/437 318/561
f 122/748 397/749 560/739 311/735
f 122/748 289/579 555/578 397/749
f 123/750 370/711 499/424 291/751
f 123/750 379/752 549/714 370/711
f 614/753 413/703 578/705 629/754
f 614/753 622/755 564/667 413/703
f 674/756 682/573 515/572 320/757
f 124/758 414/682 572/681 313/568
f 124/758 411/759 577/452 414/682
f 674/756 320/757 541/760 693/761
f 125/762 291/751 499/424 290/417
f 615/763 415/668 564/667 622/755
f 615/763 636/764 576/590 415/668
f 125/762 290/417 538/416 410/765
f 126/766 410/765 538/416 351/686
f 616/767 416/591 576/590 636/764
f 616/767 631/559 571/558 416/591
f 126/766 351/686 500/586 405/562
f 127/768 287/441 549/440 379/769
f 127/768 406/684 497/448 287/441
f 617/770 417/565 572/569 632/680
f 617/770 629/771 578/566 417/565
f 675/772 151/372 514/192 681/594
f 675/772 683/773 502/375 151/372
f 128/774 418/557 573/428 314/775
f 128/774 312/596 571/595 418/557
f 129/776 304/503 507/505 292/777
f 129/776 300/778 505/504 304/503
f 618/779 419/554 567/540 625/780
f 618/779 623/781 565/523 419/554
f 130/782 306/485 498/487 298/458
f 130/782 302/783 508/486 306/485
f 619/784 420/548 568/520 626/785
f 619/784 624/461 566/460 420/548
f 131/786 309/516 505/504 300/778
f 131/786 308/787 509/517 309/516
f 620/788 421/539 570/543 627/789
f 620/788 625/780 567/540 421/539
f 676/790 173/394 517/393 684/791
f 676/790 685/792 519/398 173/394
f 132/793 422/528 575/530 317/794
f 132/793 315/795 574/474 422/528
f 133/796 316/537 508/486 302/783
f 133/796 292/777 507/505 316/537
f 621/797 423/519 565/523 623/781
f 621/797 626/785 568/520 423/519
f 677/798 176/405 501/404 680/799
f 677/798 684/791 517/393 176/405
f 134/800 424/472 574/474 315/795
f 134/800 303/801 569/431 424/472
f 678/802 693/761 541/760 212/409
f 135/803 425/453 577/452 411/759
f 135/803 400/550 566/549 425/453
f 678/802 212/409 516/146 689/552
f 679/804 150/412 502/375 683/773
f 679/804 680/799 501/404 150/412
f 136/805 426/427 569/431 303/801
f 136/805 314/775 573/428 426/427
f 65/400 142/378 594/380 592/401
f 65/400 592/401 597/385 154/386
f 63/387 160/390 598/389 591/388
f 63/387 591/388 596/381 152/382
f 62/383 154/386 597/385 590/384
f 62/383 590/384 595/41 148/46
f 61/377 152/382 596/381 589/379
f 61/377 589/379 594/380 142/378
f 59/367 266/283 603/281 588/369
f 59/367 588/369 600/370 239/368
f 58/365 270/362 607/364 587/366
f 58/365 587/366 602/153 265/159
f 57/361 141/350 593/352 586/363
f 57/361 586/363 607/364 270/362
f 55/349 239/354 600/353 585/351
f 55/349 585/351 593/352 141/350
f 40/282 228/47 599/40 584/278
f 40/282 584/278 603/281 266/283
f 18/156 583/152 604/14 267/20
f 18/156 265/159 602/153 583/152
f 13/119 582/117 606/124 269/121
f 13/119 268/62 605/65 582/117
f 6/60 581/58 605/65 268/62
f 6/60 263/21 601/24 581/58
f 4/43 148/46 595/41 580/37
f 4/43 580/37 599/40 228/47
f 2/17 579/13 601/24 263/21
f 2/17 267/20 604/14 579/13
f 133/796 302/783 626/785 621/797
f 133/796 621/797 623/781 292/777
f 131/786 300/778 625/780 620/788
f 131/786 620/788 627/789 308/787
f 130/782 298/458 624/461 619/784
f 130/782 619/784 626/785 302/783
f 129/776 292/777 623/781 618/779
f 129/776 618/779 625/780 300/778
f 127/768 379/769 629/771 617/770
f 127/768 617/770 632/680 406/684
f 126/766 405/562 631/559 616/767
f 126/766 616/767 636/764 410/765
f 125/762 410/765 636/764 615/763
f 125/762 615/763 622/755 291/751
f 123/750 291/751 622/755 614/753
f 123/750 614/753 629/754 379/752
f 108/683 613/679 628/451 368/457
f 108/683 406/684 632/680 613/679
f 86/560 407/436 633/429 612/556
f 86/560 612/556 631/559 405/562
f 81/531 409/534 635/529 611/527
f 81/531 611/527 634/473 408/478
f 74/475 408/478 634/473 610/471
f 74/475 610/471 630/430 403/435
f 72/454 609/450 624/461 298/458
f 72/454 368/457 628/451 609/450
f 70/432 403/435 630/430 608/426
f 70/432 608/426 633/429 407/436
f 68/413 650/411 651/403 155/407
f 68/413 168/374 654/376 650/411
f 67/410 260/141 660/147 649/408
f 67/410 649/408 664/357 271/360
f 66/406 648/402 655/392 169/396
f 66/406 155/407 651/403 648/402
f 64/395 647/391 656/399 171/397
f 64/395 169/396 655/392 647/391
f 60/373 646/371 654/376 168/374
f 60/373 166/188 652/193 646/371
f 56/359 271/360 664/357 645/355
f 56/359 645/355 653/168 167/171
f 45/301 272/308 665/305 644/303
f 45/301 644/303 658/270 258/267
f 36/264 258/267 658/270 643/268
f 36/264 643/268 657/194 224/187
f 21/184 224/187 657/194 642/190
f 21/184 642/190 652/193 166/188
f 19/160 167/171 653/168 641/164
f 19/160 641/164 665/167 272/161
f 17/148 261/129 661/135 640/150
f 17/148 640/150 659/113 259/116
f 16/140 262/106 662/112 639/144
f 16/140 639/144 660/147 260/141
f 15/128 264/139 663/136 638/132
f 15/128 638/132 661/135 261/129
f 12/105 259/116 659/113 637/109
f 12/105 637/109 662/112 262/106
f 136/805 303/801 680/799 679/804
f 136/805 679/804 683/773 314/775
f 135/803 678/802 689/552 400/550
f 135/803 411/759 693/761 678/802
f 134/800 315/795 684/791 677/798
f 134/800 677/798 680/799 303/801
f 132/793 317/794 685/792 676/790
f 132/793 676/790 684/791 315/795
f 128/774 314/775 683/773 675/772
f 128/774 675/772 681/594 312/596
f 124/758 674/756 693/761 411/759
f 124/758 313/568 682/573 674/756
f 113/702 398/666 687/672 673/706
f 113/702 673/706 694/709 412/704
f 104/665 364/589 686/593 672/669
f 104/665 672/669 687/672 398/666
f 89/588 312/596 681/594 671/592
f 89/588 671/592 686/593 364/589
f 87/564 412/567 694/574 670/570
f 87/564 670/570 682/573 313/568
f 85/553 399/522 688/525 669/555
f 85/553 669/555 690/546 401/541
f 84/547 400/550 689/552 668/551
f 84/547 668/551 691/526 402/521
f 83/538 401/541 690/546 667/544
f 83/538 667/544 692/545 404/542
f 80/518 402/521 691/526 666/524
f 80/518 666/524 688/525 399/522