# Exported from MakeClothes (TM)
# author grinsegold/cgcookie
# license AGPL3 (see also http://www.makehuman.org/doc/node/external_tools_license.html)
# homepage http://www.makehuman.org/
v 0.2139 7.7703 -0.4191
v 0.4942 7.7314 -0.2776
v 0.2182 7.3997 -0.4813
v 0.2759 7.4091 -0.4094
v 0.1420 7.4134 -0.4639
v 0.7385 7.2766 0.6044
v 0.7566 7.5444 0.7799
v 0.7191 7.5061 0.8479
v 0.7255 7.2441 0.7760
v 0.7138 7.0415 0.7650
v 0.7118 7.0418 0.6438
v 0.7359 7.8263 0.0462
v 0.4260 6.6855 0.0004
v 0.7064 7.6258 0.9289
v 0.8235 7.6167 0.6024
v 0.7588 7.3447 0.5027
v 0.8129 7.7939 0.6119
v 0.7541 7.7021 0.8394
v 0.1761 7.1403 -0.3676
v 0.5383 6.9100 -0.0116
v 0.3503 7.1181 -0.2498
v 0.2393 7.4403 -0.4783
v 0.1260 6.8625 -0.2921
v 0.5029 6.7942 0.0396
v 0.4755 6.7784 -0.0702
v 0.6035 7.0518 0.0564
v 0.4729 7.4112 -0.3094
v 0.2323 7.6960 -0.4500
v 0.4768 7.7962 -0.2287
v 0.7920 7.3943 0.2591
v 0.5077 7.0401 -0.1089
v 0.4053 6.8076 -0.1581
v 0.6207 7.2595 -0.0738
v 0.7193 7.6041 -0.0200
v 0.5631 6.8833 0.0979
v 0.6480 7.1381 0.3118
v 0.2646 6.8266 -0.2279
v 0.7637 7.9383 0.3033
v 0.7748 7.4326 0.5514
v 0.7457 7.3856 0.7606
v 0.7134 7.3857 0.8072
v 0.7934 7.8231 0.3679
v 0.7303 7.2468 0.1258
v 0.5943 6.9857 0.1641
v 0.7048 7.1461 0.7664
v 0.7416 7.1414 0.6144
v 0.7859 7.9152 0.5836
v 0.6593 7.8944 1.0747
v 0.7207 7.8902 0.8946
v 0.7958 7.4485 0.4119
v 0.7392 7.2998 0.3631
v 0.8049 7.7084 0.1268
v 0.8411 7.6802 0.3717
v 0.0690 6.7197 -0.1982
v 0.3224 6.6326 -0.1346
v 0.2071 6.6830 -0.1542
v 0.6044 7.4746 -0.2604
v 0.5837 7.7826 -0.1513
v 0.6910 7.8386 -0.0394
v 0.4679 7.7101 -0.2611
v 0.6558 7.5316 -0.1870
v 0.5020 7.5119 -0.2971
v 0.4335 7.4124 -0.3391
v 0.4418 7.7547 -0.3168
v 0.5398 7.7986 -0.1860
v 0.3221 7.6709 -0.4130
v 0.4900 7.4749 -0.2832
v 0.3396 7.4472 -0.3797
v 0.2407 7.7035 -0.4445
v 0.0572 7.4577 -0.5121
v -0.2361 7.7703 -0.4020
v -0.5239 7.7222 -0.2637
v -0.0336 7.7020 -0.4669
v -0.2641 7.4120 -0.4653
v -0.3258 7.4417 -0.4151
v -0.1933 7.4479 -0.4768
v -0.7453 7.3429 0.5604
v -0.7780 7.5603 0.7575
v -0.7272 7.5169 0.8440
v -0.7121 7.2688 0.8016
v -0.6996 7.0654 0.8128
v -0.7190 7.0719 0.6662
v -0.7127 7.8106 0.0642
v -0.4308 6.6887 -0.0058
v -0.7102 7.6201 0.9484
v -0.8310 7.6166 0.6059
v -0.7584 7.3831 0.4771
v -0.8138 7.7896 0.6162
v -0.7810 7.7185 0.8352
v -0.1857 7.1510 -0.4037
v -0.5602 6.9239 -0.0319
v -0.3673 7.1316 -0.2842
v -0.2389 7.4358 -0.4852
v -0.1262 6.8637 -0.2915
v -0.5080 6.7934 0.0380
v -0.4695 6.7797 -0.0672
v -0.6197 7.0642 0.0423
v -0.4677 7.4104 -0.3159
v -0.2341 7.7008 -0.4674
v -0.4894 7.8261 -0.2365
v -0.7646 7.3950 0.2573
v -0.5346 7.0581 -0.1413
v -0.3876 6.8048 -0.1374
v -0.6248 7.2651 -0.0869
v -0.7063 7.6016 -0.0268
v -0.5589 6.8850 0.0972
v -0.6723 7.1485 0.3092
v -0.2648 6.8292 -0.2289
v -0.7311 7.9131 0.3181
v -0.7964 7.4716 0.5168
v -0.7779 7.4509 0.6793
v -0.7148 7.3910 0.8136
v -0.6497 7.9200 0.0019
v -0.7912 7.8291 0.3629
v -0.6624 7.2198 0.1266
v -0.5976 6.9891 0.1589
v -0.7126 7.1548 0.8053
v -0.7301 7.2254 0.6454
v -0.7144 7.5778 -0.1484
v -0.7710 7.8962 0.5905
v -0.6597 7.7287 1.0221
v -0.7104 7.7628 0.8968
v -0.8167 7.4838 0.3695
v -0.7132 7.3433 0.3636
v -0.7849 7.7021 0.1376
v -0.8450 7.6877 0.3656
v -0.0690 6.7208 -0.1940
v -0.3228 6.6304 -0.1368
v -0.2056 6.6846 -0.1504
v -0.0010 7.4570 -0.5389
v -0.0017 7.6768 -0.5111
v -0.0006 7.1607 -0.4312
v -0.0003 6.7448 -0.1933
v 0.0001 6.9331 -0.3082
v -0.7105 7.7784 -0.1071
v -0.5765 7.7691 -0.2947
v -0.5567 7.7195 -0.2794
v -0.7223 7.7374 -0.0636
v -0.6493 7.9174 -0.0070
v -0.4647 7.8833 -0.2454
v -0.4971 7.7285 -0.2556
v -0.7116 7.8022 0.0414
v -0.5832 7.4672 -0.2441
v -0.5680 7.7807 -0.1526
v -0.6681 7.8314 -0.0345
v -0.4771 7.7323 -0.3001
v -0.6457 7.5309 -0.1910
v -0.4954 7.5124 -0.3015
v -0.4520 7.4285 -0.3923
v -0.4253 7.7434 -0.3035
v -0.5364 7.8105 -0.2046
v -0.3101 7.6585 -0.3906
v -0.4975 7.4850 -0.3132
v -0.3550 7.4649 -0.4349
v -0.2312 7.6869 -0.4143
v -0.0014 7.6584 -0.4587
v -0.0591 7.4582 -0.5129
v -0.0010 7.4312 -0.5315
v 0.2407 7.7035 -0.4445
v 0.5165 7.7389 -0.2666
v 0.4788 7.8876 -0.2465
v 0.2287 7.7929 -0.3982
v 0.2954 7.5289 -0.4463
v 0.4339 7.5345 -0.4064
v 0.4032 7.5107 -0.4275
v 0.3361 7.5323 -0.4608
v 0.2599 7.6323 -0.4190
v 0.3417 7.7464 -0.4870
v 0.4974 7.6591 -0.2918
v 0.4512 7.7228 -0.3813
v 0.2310 7.6812 -0.4014
v 0.2287 7.7929 -0.3982
v 0.2134 7.5957 -0.4757
v 0.2204 7.6167 -0.5218
v 0.0127 7.6123 -0.5221
v 0.0318 7.6496 -0.5451
v 0.1656 7.4818 -0.5302
v 0.1661 7.4987 -0.5398
v 0.0592 7.4942 -0.5663
v 0.0635 7.5040 -0.5584
v -0.0013 7.6512 -0.4429
v -0.0009 7.7586 -0.4860
v 0.7055 7.8545 0.0013
v 0.4217 7.7708 -0.2945
v 0.4788 7.8876 -0.2465
v 0.6220 7.9560 -0.0468
v 0.7442 7.7442 -0.0680
v 0.4914 7.7355 -0.2834
v 0.5793 7.7607 -0.2782
v 0.6958 7.8950 -0.1683
v 0.7314 7.5821 -0.1507
v 0.5743 7.5495 -0.2654
v 0.6022 7.5733 -0.2814
v 0.7040 7.5731 -0.2095
v -0.2283 7.6805 -0.4017
v -0.2260 7.7921 -0.3990
v -0.0014 7.6590 -0.4599
v -0.0009 7.7586 -0.4860
v -0.2054 7.5815 -0.4411
v -0.2191 7.6500 -0.5072
v -0.0142 7.5972 -0.4849
v -0.0334 7.6417 -0.5274
v -0.1624 7.5310 -0.4954
v -0.1642 7.5501 -0.5131
v -0.0604 7.5505 -0.5536
v -0.0642 7.5565 -0.5369
v -0.2173 7.6555 -0.3524
v -0.5050 7.7376 -0.2691
v -0.4647 7.8833 -0.2454
v -0.2310 7.8054 -0.4197
v -0.3359 7.5330 -0.4217
v -0.4372 7.5049 -0.3456
v -0.4551 7.5358 -0.3814
v -0.3426 7.5441 -0.4370
v -0.2686 7.6525 -0.4631
v -0.2890 7.6833 -0.4740
v -0.4861 7.6563 -0.2912
v -0.4983 7.7318 -0.3670
v -0.5629 7.5473 -0.2650
v -0.5904 7.5713 -0.2811
v -0.7133 7.5960 -0.1855
v -0.0585 7.6966 -0.4500
v 0.7013 7.8240 -0.0238
v 0.7471 7.9214 0.3229
v 0.6185 7.9553 -0.0303
v 0.8028 7.8353 0.3421
v 0.8099 7.7060 -0.0364
v 0.8771 7.7453 0.2304
v 0.8440 7.7469 -0.0372
v 0.8125 7.6943 0.2592
v 0.8404 7.5285 0.6443
v 0.4914 8.1032 1.0245
v 0.8494 7.5347 0.6726
v 0.5748 8.1250 1.1355
v 0.7428 8.1178 0.9066
v 0.8366 7.9666 1.0733
v 0.8630 7.6836 0.8737
v 0.8559 7.7494 0.7664
v 0.9033 7.7442 0.8183
v 0.8210 8.1019 1.0167
v 0.5912 8.1999 0.9285
v 0.7413 8.1302 1.1356
v 0.6684 8.1432 1.0599
v 0.8540 7.5099 0.6443
v 0.5266 8.1185 1.0867
v 0.9126 7.8540 1.0191
v 0.7934 8.0350 0.8730
v 0.8832 8.0008 0.9480
v 0.8414 7.5502 0.7037
v 0.8601 7.5739 0.7539
v 0.8325 7.5727 0.6717
v 0.6825 7.4735 1.1259
v 0.5220 8.0747 1.0274
v 0.6502 7.4508 1.1771
v 0.4794 8.0581 1.1332
v 0.7149 8.0280 1.1454
v 0.7076 7.9904 1.3429
v 0.6928 7.6943 1.2662
v 0.7407 7.7326 1.1486
v 0.7046 7.6727 1.2069
v 0.7185 8.0382 1.2499
v 0.5924 8.0924 1.0799
v 0.5815 8.1025 1.2566
v 0.6033 8.1331 1.1802
v 0.6753 7.4055 1.1425
v 0.5082 8.0941 1.0880
v 0.4598 8.1433 1.1228
v 0.3100 8.0907 1.3007
v 0.6455 8.2261 1.4303
v 0.9313 7.7044 0.4958
v 0.5102 8.2422 0.8816
v 0.9737 7.6487 0.5652
v 0.4666 8.1202 1.0666
v 0.8835 8.1676 0.7774
v 0.9206 8.0379 0.9102
v 0.9683 7.8798 0.7756
v 0.9302 8.0269 0.6519
v 0.9753 7.9636 0.7076
v 0.9336 8.1404 0.8247
v 0.7459 8.2736 0.8447
v 0.8437 8.1354 1.0651
v 0.8029 8.2324 0.9593
v 0.9538 7.6501 0.5343
v 0.4950 8.2107 0.9911
v 0.6451 8.1804 1.1201
v 0.6163 8.2592 1.0286
v 1.0112 7.8348 0.5930
v 0.9995 7.7571 0.6712
v 0.9728 7.8355 0.5311
v 0.6340 8.3625 0.8810
v 0.4469 8.3654 0.0495
v 0.5306 8.3810 0.0923
v 0.7337 8.0341 -0.1426
v 0.6883 8.0731 -0.2400
v 0.7228 8.0603 -0.1840
v 0.4927 8.3742 0.0761
v 0.6099 8.3600 0.0747
v 0.5534 8.3807 0.0338
v 0.5654 8.2640 -0.1087
v 0.6467 8.2895 0.0442
v 0.6008 8.3181 -0.0349
v 0.7110 8.1605 -0.0408
v 0.6118 8.1895 -0.1478
v 0.6795 8.1928 -0.1003
v 0.7014 7.9204 -0.2917
v 0.7045 7.9243 -0.2403
v 0.6848 7.9503 -0.3092
v 0.4975 8.3446 -0.0452
v 0.3325 8.7066 0.1016
v 0.3779 8.4036 0.3755
v 0.4216 8.3493 0.3661
v 0.4117 8.6233 0.2946
v 0.4931 8.5944 0.2110
v 0.4632 8.6211 0.2566
v 0.3876 8.5190 0.3513
v 0.4508 8.4710 0.2926
v 0.4268 8.4780 0.3382
v 0.4077 8.3878 0.3700
v 0.4539 8.6710 0.1514
v 0.3938 8.6992 0.2066
v 0.4360 8.6919 0.1785
v 0.3395 8.7028 0.0834
v 0.3562 8.6916 0.0775
v 0.3141 8.2923 -0.0373
v 0.3851 8.3249 0.0708
v 0.5629 8.2004 -0.2035
v 0.4280 8.2144 -0.2608
v 0.5129 8.2200 -0.2529
v 0.2720 8.3061 0.0105
v 0.4297 8.3107 0.1372
v 0.3537 8.3434 0.0944
v 0.3520 8.3225 0.0339
v 0.3482 8.3307 -0.0572
v 0.5058 8.3171 0.0493
v 0.4239 8.3865 0.0371
v 0.5526 8.2650 -0.1165
v 0.3909 8.2906 -0.1991
v 0.4763 8.3335 -0.1533
v 0.5711 8.0346 -0.3842
v 0.5947 8.0438 -0.3402
v 0.5248 8.0554 -0.3789
v -0.7111 7.5336 1.2817
v -0.4912 8.0149 1.2558
v -0.7325 7.5091 1.2136
v -0.5584 8.0075 1.1440
v -0.6741 7.9467 1.3578
v -0.8086 7.9193 1.2105
v -0.7901 7.7097 1.2202
v -0.7263 7.7239 1.3263
v -0.8084 7.7271 1.3099
v -0.7725 7.9935 1.2938
v -0.5451 8.0408 1.3226
v -0.7173 8.0248 1.1687
v -0.6456 8.0740 1.2526
v -0.6781 7.4523 1.2150
v -0.5237 8.0097 1.1872
v 0.7156 8.3265 0.0719
v 0.3943 8.3647 0.3726
v 0.8075 8.2579 0.2166
v 0.4184 8.3568 0.4291
v 0.5797 8.4530 0.2412
v 0.6355 8.4373 0.3779
v 0.7857 8.3689 0.3144
v 0.6627 8.4069 0.1502
v 0.7221 8.4138 0.2388
v 0.6232 8.4522 0.3113
v 0.4344 8.3979 0.3294
v 0.5044 8.3973 0.3987
v 0.4579 8.3993 0.3745
v 0.7695 8.2291 0.1108
v 0.4141 8.3868 0.3929
v 0.7916 8.2641 0.2704
v 0.4269 8.3505 0.4105
v 0.8286 8.2472 0.4032
v 0.4354 8.3778 0.4750
v 0.5966 8.4485 0.3830
v 0.6269 8.4596 0.5156
v 0.7591 8.3711 0.4762
v 0.6768 8.3987 0.3106
v 0.7312 8.3988 0.4000
v 0.6034 8.4860 0.4240
v 0.4799 8.4183 0.3829
v 0.5091 8.3892 0.4845
v 0.4721 8.3913 0.4447
v 0.8150 8.2421 0.3487
v 0.4328 8.3788 0.4415
v 0.8902 8.1965 0.5576
v 0.4873 8.2964 0.6373
v 0.9117 8.1358 0.6429
v 0.5041 8.2969 0.7260
v 0.8377 8.2870 0.7481
v 0.8254 8.3525 0.5848
v 0.8537 8.3477 0.6562
v 0.5698 8.4335 0.6522
v 0.6468 8.4010 0.8581
v 0.5856 8.4437 0.7256
v 0.9361 8.1105 0.5749
v 0.4976 8.3102 0.6916
v 0.2848 7.7888 -0.3683
v 0.0394 8.2417 -0.1852
v -0.0926 8.4973 0.2934
v -0.0904 8.4879 0.6673
v -0.0919 8.3720 1.0342
v 0.5455 8.0859 1.0636
v 0.6451 7.8237 1.1744
v 0.7639 7.7743 0.4415
v 0.6943 7.9101 0.1795
v 0.5601 7.8126 -0.0818
v 0.3521 8.2697 -0.0139
v 0.1845 8.3648 0.0094
v 0.1826 8.4950 0.3464
v 0.2331 8.4682 0.6559
v 0.2830 8.3740 0.9397
v 0.5105 8.2825 0.8404
v 0.6475 7.9812 0.7622
v 0.6607 8.0911 0.5165
v 0.6112 8.2123 0.2973
v 0.5105 8.2030 0.0946
v 0.3993 8.3976 0.3555
v 0.7310 7.7158 0.7159
v 0.3076 8.1271 1.2984
v 0.4699 8.3523 0.6107
v 0.0149 8.0260 1.4281
v -0.1964 7.7374 -0.3987
v -0.3797 8.1186 -0.1116
v -0.5192 8.2749 0.2621
v -0.5180 8.2970 0.6522
v -0.5963 8.1594 0.9863
v -0.5230 7.9970 1.2054
v -0.5340 7.8324 -0.0753
v -0.6630 8.0564 0.2730
v -0.6618 8.0569 0.6284
v -0.6407 7.9962 0.8714
v -0.6332 7.8835 1.0422
v -0.3580 7.8303 -0.3263
v -0.5696 7.6272 0.0198
v -0.7104 7.7840 0.2538
v -0.6971 7.7681 0.5302
v -0.6992 7.7460 0.7683
v -0.6688 7.7209 1.0456
v -0.0345 7.7444 -0.4662
v -0.1667 8.2008 -0.2040
v -0.3028 8.4323 0.2950
v -0.2772 8.0015 1.3873
v -0.3882 8.2955 0.9709
v -0.3538 8.3980 0.6912
v -0.5275 7.9511 1.6493
v -0.5172 7.9718 1.6794
v -0.4199 7.9281 1.7532
v -0.4202 7.9136 1.7223
v -0.0745 8.1030 1.5063
v -0.2995 8.3914 1.2834
v -0.1585 8.5261 1.2871
v -0.0382 8.3807 1.4373
v -0.2713 8.0943 1.4987
v -0.3154 8.2782 1.5586
v -0.4534 8.4438 1.3441
v -0.4517 8.2619 1.2626
v -0.6112 7.8998 1.5900
v -0.5273 7.8635 1.6224
v -0.5664 7.9133 1.6766
v -0.6396 7.9254 1.6188
v -0.8356 7.7538 1.4568
v -0.7691 7.7628 1.5027
v -0.7846 7.8038 1.5312
v -0.8702 7.7730 1.4685
v -0.4789 8.1328 1.3561
v -0.4728 8.3037 1.3990
v -0.6514 8.3419 1.1493
v -0.6344 8.1340 1.1603
v -0.4879 8.5454 1.2552
v -0.5448 8.5117 1.0950
v -0.5195 8.5644 1.1099
v -0.5057 8.4823 1.2638
v 0.1892 8.4356 1.0139
v 0.3557 8.6366 0.9822
v 0.2654 8.3430 1.3625
v 0.4017 8.5639 1.1860
v 0.8402 8.1325 0.9591
v 0.8121 8.1478 0.7678
v 0.8196 7.8758 0.6568
v 0.8495 7.8352 0.8524
v 0.9503 7.7725 0.5012
v 0.9530 7.8741 0.5227
v 0.9731 7.7518 0.6387
v 0.9781 7.8457 0.6685
v 0.9384 7.8415 0.4323
v 0.9134 7.7605 0.4200
v 0.9103 7.8130 0.3009
v 0.9146 7.8769 0.3208
v 0.7587 8.3399 0.5095
v 0.7496 8.1396 0.4724
v 0.8508 8.2938 0.6868
v 0.8688 8.0624 0.6910
v -0.5559 8.5352 0.7094
v -0.5936 8.4720 1.0925
v -0.5957 8.5173 1.0482
v -0.5509 8.5798 0.7157
v 0.2032 8.6378 0.6610
v 0.2377 8.6103 1.0046
v 0.3914 8.6868 0.7313
v 0.3178 8.7138 0.9756
v -0.7572 8.4280 0.3200
v -0.7677 8.4281 0.5872
v -0.7767 8.5007 0.3463
v -0.7801 8.4948 0.5405
v -0.0060 8.7680 0.9023
v -0.0885 8.5952 0.9289
v -0.0652 8.6707 0.5107
v -0.0539 8.7937 0.5760
v -0.9926 8.2340 0.9807
v -0.8442 8.0936 1.2407
v -0.8481 8.0046 1.2452
v -0.9918 8.1807 0.9930
v -0.3103 8.6172 1.0849
v -0.3920 8.4312 1.0936
v -0.3627 8.6493 0.7039
v -0.4795 8.4522 0.7346
v -1.0310 7.9749 0.7050
v -0.9620 7.9427 0.9855
v -0.9902 7.9918 0.9777
v -1.0348 8.0223 0.7051
v -0.6865 8.3384 0.6516
v -0.7250 8.2511 1.0168
v -0.7061 8.4405 1.0536
v -0.6712 8.5316 0.6527
v -0.8099 8.2156 0.6359
v -0.8029 8.1757 0.9548
v -0.7863 8.0798 0.9533
v -0.8208 8.3074 0.6370
v -0.8897 7.7080 0.9525
v -0.9315 7.7268 0.8663
v -0.8932 7.7237 0.9563
v -0.9339 7.7480 0.8771
v -0.7852 7.9311 1.1776
v -0.7375 7.7225 1.1028
v -0.7948 7.9355 0.9101
v -0.8741 8.0558 0.9369
v -1.0501 7.9802 0.6044
v -1.0018 7.8979 0.8889
v -1.0422 7.9541 0.6038
v -0.9845 7.8662 0.8914
v -0.3781 8.5940 -0.0122
v -0.2997 8.5339 -0.1853
v -0.3827 8.5650 -0.0081
v -0.3002 8.5170 -0.1928
v 0.4106 8.6846 0.2154
v 0.3791 8.7449 0.4700
v 0.2416 8.7076 0.4509
v 0.1842 8.6403 0.1848
v 0.1895 8.2384 -0.4889
v -0.0470 8.3271 -0.4080
v -0.0253 8.3638 -0.4156
v 0.1795 8.2805 -0.4874
v 0.3724 8.4480 -0.1034
v 0.0783 8.5961 -0.0140
v 0.0707 8.6646 -0.0239
v 0.3491 8.5751 -0.0923
v -0.6038 8.3392 -0.0144
v -0.7635 8.4298 0.2709
v -0.6159 8.3742 -0.0338
v -0.7656 8.4627 0.2367
v -0.1447 8.5999 0.2451
v 0.0661 8.6912 0.3008
v 0.0320 8.7011 0.5730
v -0.1963 8.6491 0.4583
v -0.2744 8.4986 -0.2167
v -0.0901 8.4123 -0.3519
v -0.2735 8.4635 -0.1994
v -0.0825 8.3548 -0.3722
v -0.1418 8.6057 0.1529
v 0.0773 8.6329 -0.0422
v -0.0538 8.7122 0.1532
v 0.0478 8.4942 -0.1497
v 0.3051 7.8386 -0.5917
v 0.1378 7.8465 -0.6406
v 0.3123 7.8699 -0.6157
v 0.1386 7.8659 -0.6684
v 0.3967 8.3289 -0.3258
v 0.2097 8.3364 -0.3906
v 0.1093 8.2326 -0.3618
v 0.4091 8.1605 -0.3587
v 0.9166 7.9295 0.2760
v 0.8268 7.9976 0.1103
v 0.8345 8.0396 0.1217
v 0.9281 7.9773 0.2905
v 0.7229 8.3703 0.2941
v 0.6629 8.1643 0.2901
v 0.7913 8.3090 0.4816
v 0.7611 8.1061 0.4461
v 0.8185 8.0426 -0.1551
v 0.8490 7.9565 0.0734
v 0.7855 7.9506 -0.1810
v 0.8499 8.0410 0.0690
v 0.6766 8.4318 0.2364
v 0.6992 8.1736 0.2039
v 0.6016 8.3328 0.0705
v 0.6345 8.4731 0.0764
v 0.8740 7.7926 0.3492
v 0.9472 7.7056 0.4350
v 0.8813 7.8041 0.3490
v 0.9385 7.6903 0.4323
v 0.8641 7.8223 0.6308
v 0.8635 7.7441 0.5979
v 0.8105 7.9309 0.4758
v 0.8254 7.8537 0.4286
v 0.8625 7.7164 -0.0801
v 0.7841 7.7199 -0.2196
v 0.8645 7.7686 -0.1014
v 0.8010 7.7525 -0.2321
v 0.7686 7.8953 0.0864
v 0.8719 7.8436 0.2303
v 0.7664 7.8859 0.0780
v 0.8715 7.8239 0.2162
v 0.8280 7.9662 0.3797
v 0.7323 7.9839 0.1594
v 0.7083 8.1161 0.2162
v 0.8416 7.8706 0.3373
v 0.3602 7.8768 -0.4405
v 0.4074 8.1252 -0.3761
v 0.5731 8.0477 -0.3059
v 0.5648 7.8600 -0.2962
v 0.7721 8.0666 0.0480
v 0.7069 7.9321 -0.1148
v 0.6960 8.0751 -0.1115
v 0.8023 7.9051 0.0329
v 0.5081 7.6224 -0.4921
v 0.3560 7.6533 -0.5526
v 0.5132 7.6160 -0.4500
v 0.3473 7.6564 -0.5160
v -0.8983 8.2215 0.1489
v -0.9794 8.2383 0.4390
v -0.9064 8.1550 0.1565
v -0.9467 8.1499 0.4744
v -0.5979 8.5042 0.5788
v -0.3943 8.5193 0.2335
v -0.5826 8.5885 0.5438
v -0.4342 8.5721 0.1881
v -0.6350 8.2619 -0.1491
v -0.5061 8.1848 -0.3359
v -0.6263 8.2950 -0.1726
v -0.5059 8.2187 -0.3337
v -0.3451 8.5073 0.1570
v -0.1088 8.4443 -0.1742
v -0.2695 8.5844 0.0915
v -0.1746 8.3436 -0.2403
v -0.8946 8.3015 0.7169
v -0.8501 8.2184 0.0931
v -0.9034 8.2561 0.7182
v -0.8513 8.1659 0.0901
v -0.5553 8.4027 0.1917
v -0.6308 8.5638 0.6711
v -0.6059 8.4654 0.6663
v -0.5487 8.4660 0.1688
v -0.9962 7.8578 0.5116
v -0.9386 7.8588 0.1446
v -1.0048 7.9084 0.4983
v -0.9551 7.9501 0.1249
v -0.3909 8.3158 -0.2615
v -0.4074 8.1659 -0.2730
v -0.5981 8.4074 0.2055
v -0.5874 8.5251 0.1900
v 0.0729 7.6823 -0.6452
v 0.0704 7.6935 -0.6532
v -0.1283 7.6850 -0.6319
v -0.1331 7.6942 -0.6481
v -0.9253 7.8646 0.0152
v -0.7145 7.8260 -0.2067
v -0.9403 7.8567 -0.0115
v -0.7439 7.8412 -0.2300
v -0.8168 8.2303 0.0566
v -0.7971 8.0333 0.1315
v -0.5666 8.1783 -0.2053
v -0.5679 8.0424 -0.1862
v -0.8052 8.2502 0.0797
v -0.6181 8.0221 -0.3335
v -0.7976 8.2240 0.0753
v -0.6085 7.9671 -0.3267
v -0.1570 7.9352 -0.5180
v 0.1409 8.2362 -0.4589
v -0.1894 8.2480 -0.4681
v 0.1085 8.1023 -0.4736
v -0.7236 8.3409 0.2240
v -0.8414 8.1792 0.6264
v -0.8113 8.3383 0.6095
v -0.7189 8.1678 0.2343
v -0.6656 7.7842 -0.3854
v -0.3840 7.6733 -0.5340
v -0.6659 7.7588 -0.3775
v -0.3701 7.6457 -0.5233
v -0.4065 8.2934 -0.2833
v -0.4078 8.1248 -0.2540
v -0.2166 7.8642 -0.4934
v -0.2169 8.1158 -0.5402
v -0.9040 7.7898 0.6393
v -0.8929 7.7234 0.7973
v -0.9313 7.7563 0.6288
v -0.8963 7.6786 0.7964
v -0.7669 7.8925 0.9319
v -0.7994 7.9637 0.7343
v -0.7985 7.7672 0.9141
v -0.8112 7.7928 0.6827
v -0.9407 8.0249 0.7027
v -0.8612 7.9946 0.5188
v -0.8145 7.9099 0.5314
v -0.8686 7.9085 0.6846
v -0.9352 7.7440 0.5740
v -0.9070 7.7856 0.3266
v -0.9546 7.7729 0.5496
v -0.9238 7.7935 0.3367
v -0.9460 7.7013 0.0483
v -0.9601 7.7045 0.2538
v -0.9284 7.6500 0.0481
v -0.9460 7.6531 0.2446
v -0.8718 7.9798 0.2077
v -0.8292 7.8080 0.3790
v -0.8108 7.7964 0.2112
v -0.8737 7.9849 0.4089
v -0.8774 7.5632 0.0053
v -0.7755 7.5763 -0.1349
v -0.8999 7.5703 -0.0104
v -0.7945 7.5872 -0.1460
v -0.6021 7.6240 -0.3923
v -0.7355 7.6089 -0.3035
v -0.7278 7.5802 -0.2633
v -0.5915 7.6054 -0.3675
v -0.7403 7.6872 -0.0937
v -0.7072 7.8426 -0.1152
v -0.9163 7.9449 0.1140
v -0.8557 7.8576 0.1436
v -0.6134 7.9792 -0.2416
v -0.4234 7.9258 -0.4294
v -0.4227 7.8507 -0.3793
v -0.6425 7.8665 -0.1969
v -0.6083 8.1021 1.5221
v -0.6393 8.1504 1.5490
v -0.4207 8.0673 1.6383
v -0.4620 8.1393 1.6866
v -0.6685 8.1120 1.4641
v -0.7942 8.1267 1.3479
v -0.6620 8.0374 1.4562
v -0.7482 8.0509 1.3126
v -0.1960 8.1835 1.5529
v -0.3514 8.4304 1.4908
v -0.3665 8.3371 1.3917
v -0.2267 8.3246 1.5779
v 0.6365 7.8158 1.3430
v 0.5479 8.0145 1.0753
v 0.5568 7.7833 1.3481
v 0.4485 8.0941 1.1253
v 0.5776 8.0693 1.3472
v 0.4281 8.0707 1.4052
v 0.5210 7.9593 1.4045
v 0.6266 7.9485 1.3620
v 0.5727 7.9740 1.3966
v 0.5085 8.0867 1.3991
v 0.5629 8.1725 1.2449
v 0.4155 8.1492 1.2833
v 0.4601 8.1832 1.2659
v 0.6069 7.7849 1.3608
v 0.5155 8.0855 1.0861
v 0.5407 8.1527 0.9551
v 0.5129 8.0626 1.0579
v 0.7316 7.8729 1.0221
v 0.7192 7.7971 1.1112
v 0.7372 7.8583 1.1024
v 0.6820 8.0923 1.0556
v 0.6569 8.0842 1.1795
v 0.6746 8.1057 1.1289
v 0.5222 8.0749 1.0126
v 0.7851 7.5946 1.0142
v 0.7690 7.5994 1.0301
v 0.7801 7.6310 0.9961
v -0.5956 7.6307 1.5362
v -0.2841 8.0382 1.3315
v -0.6413 7.6059 1.4733
v -0.4102 8.0862 1.2860
v -0.5293 8.0774 1.5855
v -0.6887 8.0150 1.4412
v -0.6563 7.8138 1.4655
v -0.5988 7.8449 1.5808
v -0.6966 7.8402 1.5765
v -0.6462 8.1089 1.5271
v -0.3966 8.1816 1.5199
v -0.5855 8.1066 1.3655
v -0.5171 8.2005 1.4589
v -0.6426 7.5706 1.5179
v -0.3513 8.0752 1.2969
v 0.5162 8.1415 1.0445
v 0.4834 8.1159 1.1430
v 0.6541 8.1560 1.3029
v 0.6336 8.1457 1.4190
v 0.6485 8.1909 1.3734
v 0.6194 8.2609 1.2270
v 0.5374 8.1980 1.3120
v 0.5602 8.2404 1.2468
v 0.4815 8.0839 1.0837
v 0.7035 7.8921 1.3810
v 0.6782 7.8753 1.3967
v 0.7182 7.9256 1.3569
v 0.4797 8.1763 1.5717
v 0.5769 8.2201 1.5451
v 0.5360 8.2762 1.3153
v 0.3714 8.2701 1.4698
v 0.4580 8.3563 1.3938
v 0.3440 8.1500 1.2504
v 0.5571 7.8760 1.5496
v 0.5081 7.9155 1.5665
v 0.6202 7.9816 1.5027
v 0.3625 8.1163 1.2456
v 0.2547 8.0856 1.3339
v 0.4968 8.1233 1.4842
v 0.3569 8.0837 1.5990
v 0.4535 8.1703 1.6079
v 0.3994 8.2619 1.3795
v 0.2376 8.1771 1.4474
v 0.3085 8.2675 1.3864
v 0.3118 8.0860 1.2885
v 0.4813 7.7655 1.6219
v 0.4487 7.7340 1.6341
v 0.5035 7.7694 1.5768
v 0.8584 8.2157 0.4143
v 0.4857 8.3393 0.5599
v 0.9033 8.2018 0.5484
v 0.4832 8.3311 0.6292
v 0.6431 8.4757 0.4971
v 0.6873 8.4539 0.6373
v 0.8066 8.3715 0.6041
v 0.7556 8.4098 0.4671
v 0.7896 8.4021 0.5567
v 0.6582 8.5040 0.5675
v 0.5360 8.4413 0.5360
v 0.5662 8.3895 0.6392
v 0.5200 8.3847 0.5987
v 0.8958 8.1416 0.4752
v 0.4721 8.3142 0.5969
v 0.9389 8.0533 0.6020
v 0.5328 8.2847 0.7691
v 0.9664 8.0125 0.6875
v 0.5098 8.2387 0.8917
v 0.7634 8.3858 0.7434
v 0.8124 8.3230 0.9394
v 0.9455 8.1811 0.7980
v 0.9133 8.2382 0.6736
v 0.9182 8.2181 0.7384
v 0.7864 8.3685 0.8309
v 0.6578 8.3934 0.7643
v 0.7104 8.3381 0.9491
v 0.6743 8.3846 0.8479
v 0.9535 8.0194 0.6282
v 0.5118 8.2549 0.8439
v -0.3642 7.5895 1.5483
v 0.0827 8.0582 1.3975
v -0.4508 7.5769 1.5123
v -0.1253 8.0091 1.4047
v -0.1099 8.0604 1.6223
v -0.3760 8.1263 1.6101
v -0.4700 7.8580 1.5865
v -0.2940 7.8641 1.6559
v -0.3895 7.9026 1.6819
v -0.2174 8.1829 1.6272
v -0.4372 7.5673 1.5459
v -0.0381 8.0325 1.3788
v -0.2377 8.1136 1.4679
v -0.0918 8.1781 1.4755
v 0.0169 8.0237 1.4907
v -0.0474 7.6211 1.5676
v 0.3552 8.1092 1.2534
v -0.1846 7.6665 1.6609
v 0.0513 8.1935 1.2962
v 0.2208 8.0325 1.5542
v -0.0756 8.1158 1.5455
v -0.1378 8.0335 1.6745
v 0.0915 7.9407 1.6415
v -0.0065 8.0620 1.7564
v 0.1249 8.1839 1.6272
v -0.1030 7.5373 1.5551
v 0.2163 8.2096 1.2249
v 0.0058 8.1974 1.4158
v 0.1764 8.2379 1.4635
v -0.0654 7.7903 1.6943
v -0.1580 7.7865 1.6861
v -0.0020 7.7616 1.6267
v 0.3032 8.0588 1.3869
v 0.8100 7.6870 1.3437
v 0.4851 8.1726 1.0418
v 0.7815 7.6716 1.3874
v 0.4249 8.1178 1.2024
v 0.7880 8.0893 1.2446
v 0.6864 8.0913 1.4930
v 0.6918 7.9055 1.4517
v 0.8032 7.9725 1.3067
v 0.7962 7.9649 1.4251
v 0.7917 8.1745 1.4251
v 0.7186 8.2008 1.1729
v 0.5691 8.1889 1.4441
v 0.6765 8.3548 1.3423
v 0.8030 7.6696 1.3885
v 0.4601 8.1719 1.0815
v 0.4890 8.2083 1.3039
v 0.5598 8.3461 1.2452
v 0.8311 7.8115 1.4192
v 0.7254 7.8093 1.4197
v 0.8273 7.8110 1.3209
v 0.6007 8.2258 1.0980
v 0.9069 7.9683 1.0373
v 0.5055 8.2541 0.8630
v 0.8589 7.9062 1.1185
v 0.4349 8.2226 1.0550
v 0.7482 8.3172 0.9266
v 0.7301 8.2768 1.2141
v 0.8197 8.2178 1.2386
v 0.8507 8.2580 0.9597
v 0.8743 8.3027 1.1124
v 0.7697 8.4020 1.0820
v 0.6449 8.3469 0.8818
v 0.6374 8.2904 1.1928
v 0.6505 8.4369 1.0368
v 0.9070 7.8773 1.0849
v 0.4587 8.2494 0.9666
v 0.5590 8.3184 1.1556
v 0.5047 8.3809 1.0434
v 0.9262 8.1495 1.1196
v 0.8514 8.0996 1.2052
v 0.9084 8.1217 0.9935
v 0.5344 8.3634 0.8648
v -0.7272 7.9873 1.5175
v 0.0576 8.3164 1.1080
v -0.7678 8.0087 1.4653
v -0.1631 8.4548 0.7745
v -0.2100 8.4669 1.3818
v -0.4527 8.3750 1.1976
v -0.6065 8.3283 1.2760
v -0.3937 8.3772 1.4529
v -0.5420 8.4781 1.3861
v -0.3862 8.5572 1.2592
v -0.0426 8.4977 1.2795
v -0.4303 8.5218 1.0016
v -0.2613 8.6015 1.1237
v -0.7831 8.0344 1.5056
v -0.0311 8.4273 0.9104
v -0.6858 8.2633 1.4832
v -0.6778 8.2350 1.3534
v -0.5548 8.2002 1.5212
v 0.1892 7.5707 -0.5667
v 0.1674 7.7661 -0.4070
v 0.2836 7.5522 -0.5349
v 0.2550 7.7584 -0.3653
v 0.3398 7.7806 -0.5201
v 0.1294 7.7454 -0.5390
v 0.2436 7.7639 -0.5382
v 0.1357 7.9191 -0.5635
v 0.3448 7.9443 -0.4977
v 0.2431 7.9682 -0.5305
v 0.2576 7.5279 -0.5424
v 0.2157 7.7650 -0.3849
v 0.6226 7.4885 -0.2448
v 0.4500 7.7987 -0.2358
v 0.6662 7.4952 -0.2268
v 0.5161 7.8663 -0.1464
v 0.7275 7.6878 -0.2323
v 0.5780 7.6683 -0.3376
v 0.6877 7.7150 -0.3073
v 0.5009 8.0537 -0.3284
v 0.6672 8.0946 -0.1953
v 0.5801 8.1862 -0.2832
v 0.6509 7.4758 -0.2322
v 0.4781 7.8928 -0.1746
v 0.7882 8.2253 0.1560
v 0.7585 8.2664 -0.0462
v 0.7086 8.1824 -0.0544
v 0.7839 8.0945 0.1415
v 0.6666 8.0145 -0.3399
v 0.5318 7.9495 -0.3936
v 0.7122 7.9745 -0.2156
v 0.3611 8.4181 0.2520
v 0.4313 8.3353 0.3184
v 0.5998 8.3283 -0.0595
v 0.3394 8.4797 -0.0929
v 0.5008 8.4665 -0.0624
v 0.3806 8.5164 0.2551
v 0.5687 8.4818 0.2407
v 0.4796 8.4755 0.2826
v 0.3989 8.3517 0.3083
v 0.4098 8.5379 0.1340
v 0.5996 8.4751 0.1689
v 0.5003 8.5886 0.2120
v 0.6445 8.4071 0.0394
v 0.3665 8.5896 0.0060
v 0.5479 8.5733 0.0800
v 0.3861 8.2802 -0.3476
v 0.4701 8.2462 -0.2547
v 0.3565 8.3538 -0.2591
v -0.2411 7.5128 -0.5645
v -0.2315 7.6783 -0.3367
v -0.1703 7.4913 -0.6070
v -0.1705 7.6764 -0.3798
v -0.0726 7.6723 -0.6216
v -0.3127 7.7145 -0.5660
v -0.2101 7.7733 -0.6166
v -0.3011 7.8287 -0.5388
v -0.0556 7.8766 -0.5778
v -0.1614 7.9308 -0.5832
v -0.2035 7.4617 -0.5785
v -0.2049 7.6930 -0.3860
v 0.0174 7.5420 -0.5920
v 0.0605 7.7154 -0.4057
v 0.0984 7.5332 -0.5859
v 0.1495 7.7360 -0.4181
v 0.0294 7.7266 -0.6007
v -0.0320 7.7269 -0.6012
v 0.0662 7.7232 -0.5689
v -0.0137 7.8563 -0.5455
v 0.0111 7.8562 -0.5453
v 0.0760 7.9246 -0.5569
v 0.0806 7.5090 -0.5888
v 0.1088 7.7192 -0.3952
v -0.1759 7.8807 -0.4646
v -0.2549 7.7880 -0.4405
v -0.1055 7.7712 -0.4802
v 0.1553 7.8089 -0.4449
v 0.0225 7.7914 -0.4670
v 0.0878 7.8340 -0.4556
v 0.2781 7.8283 -0.3872
v 0.1445 7.8388 -0.4662
v 0.2136 7.8921 -0.4240
v 0.3544 8.1415 -0.5295
v 0.1953 8.1105 -0.5659
v 0.1562 8.0814 -0.5299
v 0.3822 8.0897 -0.4656
v -0.1259 7.9570 -0.6252
v -0.0939 7.7539 -0.5985
v 0.1384 7.8840 -0.5451
v 0.1298 7.9882 -0.6153
v 0.0223 8.5426 0.9824
v 0.0204 8.6382 1.2288
v 0.0047 8.6790 0.9891
v 0.0319 8.4722 1.2268
v -0.1229 7.7884 1.6984
v 0.4122 8.1214 1.2256
v -0.2594 7.8141 1.7138
v 0.1509 8.1825 1.2924
v 0.2220 8.1764 1.5094
v -0.0125 8.3738 1.4203
v -0.1662 8.2425 1.5993
v 0.0796 8.1264 1.6723
v -0.0361 8.3095 1.6411
v 0.1416 8.4123 1.4890
v -0.2212 7.7191 1.7377
v 0.2354 8.1579 1.2679
v 0.1248 8.3829 1.3941
v 0.2470 8.4138 1.3394
v -0.1585 8.0786 1.7921
v -0.2611 8.0546 1.7339
v -0.0193 7.9969 1.7305
v 0.3601 8.2310 1.3796
v -0.3846 8.5009 0.0595
v -0.3548 8.5516 0.0135
v -0.2421 8.3656 -0.2414
v -0.2151 8.4270 -0.2166
v -0.1991 8.2250 -0.1862
v -0.0822 8.2592 -0.1919
v -0.1304 8.0752 -0.5597
v -0.3539 8.0707 -0.5029
v -0.2323 8.1255 -0.5674
v -0.1970 8.2885 -0.2433
v -0.0116 8.2980 -0.2405
v -0.0922 8.3111 -0.2170
v -0.1340 8.2479 -0.1909
v -0.2992 8.2654 -0.3337
v -0.0428 8.2897 -0.3401
v -0.0775 8.3743 -0.2832
v -0.1121 8.2502 -0.4511
v -0.3394 8.2408 -0.4186
v -0.1764 8.3292 -0.4364
v -0.2405 7.7914 -0.5920
v -0.1432 7.9184 -0.5864
v -0.3155 7.9121 -0.5691
v -0.0471 8.2785 -0.1749
v 0.0768 8.3183 -0.1223
v 0.0891 8.1573 -0.5439
v -0.1058 8.2308 -0.5068
v -0.0434 8.2602 -0.5573
v -0.0366 8.3364 -0.2369
v 0.1497 8.3713 -0.1798
v 0.0639 8.3928 -0.1591
v 0.0241 8.3126 -0.1362
v -0.0661 8.3418 -0.3061
v 0.1740 8.3535 -0.2748
v 0.0521 8.4666 -0.1932
v 0.1277 8.2438 -0.4434
v -0.0868 8.3160 -0.3952
v 0.0415 8.4051 -0.3857
v -0.1378 7.9333 -0.6471
v 0.0170 7.9945 -0.6799
v -0.1606 8.0617 -0.5716
v -0.4495 8.7021 0.4623
v 0.5063 8.3174 0.6173
v -0.3356 8.6976 0.3248
v 0.4365 8.3356 0.3418
v 0.4507 8.5737 0.7079
v 0.4247 8.6629 0.4213
v 0.2629 8.7081 0.4159
v 0.3453 8.6816 0.7388
v 0.2405 8.7793 0.5077
v 0.5132 8.6410 0.5556
v -0.4986 8.6762 0.3560
v 0.5034 8.3307 0.5159
v 0.4394 8.5274 0.3705
v 0.5304 8.4678 0.5293
v -0.0274 8.7981 0.4515
v 0.0423 8.6917 0.3508
v -0.1144 8.7673 0.5660
v 0.5212 8.4201 0.6490
v -0.3372 8.5966 0.0068
v -0.4542 8.7271 0.3283
v -0.3720 8.6719 -0.0159
v -0.4223 8.6678 0.3647
v -0.6684 8.4776 0.1668
v -0.6578 8.4394 0.1860
v -0.8030 8.4929 0.5149
v -0.8091 8.3808 0.5560
v -0.5089 8.4137 -0.0534
v -0.4897 8.4555 -0.0879
v -0.3729 8.3067 -0.2960
v -0.3608 8.3619 -0.2878
v -0.8513 8.1364 1.0037
v -0.8696 8.2256 1.0098
v -0.8538 8.1807 0.6767
v -0.8862 8.2943 0.6748
v -0.6422 8.3967 1.1871
v -0.7750 8.4916 0.8104
v -0.7385 8.3729 0.8027
v -0.6014 8.3081 1.1784
v -0.3637 8.6936 0.7519
v -0.3666 8.5556 0.7799
v -0.3416 8.6267 0.4179
v -0.3741 8.7326 0.4625
v -0.0549 8.6366 1.0139
v -0.0621 8.7397 0.9664
v -0.0828 8.7388 0.6945
v -0.0807 8.7761 0.6962
v 0.0465 8.6968 0.0332
v -0.0678 8.7174 0.2787
v 0.0329 8.6223 0.0345
v -0.0554 8.7687 0.2481
v 0.8446 8.2080 0.3902
v 0.9387 8.1057 0.5843
v 0.9301 7.9314 0.5826
v 0.8461 8.0458 0.3949
v 0.0579 7.5376 -0.5889
vt 0.9633 0.3591
vt 0.4923 0.2548
vt 0.4806 0.4500
vt 0.9919 0.4421
vt 0.4105 0.6817
vt 0.9649 0.5331
vt 0.3066 0.7714
vt -0.0007 0.7283
vt -0.0007 0.7845
vt 0.3047 0.9107
vt 0.1766 0.9107
vt -0.0007 0.8360
vt 0.0115 0.8744
vt -0.0007 0.9107
vt -0.0007 0.5546
vt -0.0007 0.5856
vt 0.0052 0.6393
vt 0.1057 0.5855
vt -0.0005 0.5193
vt 0.0943 0.5273
vt 0.1787 0.6217
vt 0.3066 0.7714
vt 0.4150 0.7400
vt 0.1950 0.5764
vt -0.0007 0.6901
vt 0.1787 0.6217
vt 0.0943 0.5273
vt 0.1950 0.5764
vt 0.2127 0.5158
vt 0.0853 0.4741
vt 0.3422 0.4100
vt 0.6402 0.5189
vt 0.6361 0.4572
vt 0.5191 0.4022
vt 0.7087 0.4376
vt 0.7120 0.3888
vt 0.5542 0.6189
vt 0.2584 0.4806
vt 0.2127 0.5158
vt 0.5333 0.6620
vt 0.6402 0.5189
vt 0.5931 0.5699
vt 0.9993 0.7934
vt 0.9993 0.6463
vt 0.5698 0.9107
vt 0.8178 0.9107
vt 0.5333 0.6620
vt 0.4150 0.7400
vt 0.2584 0.4806
vt 0.3185 0.4448
vt 0.0939 0.3471
vt 0.0716 0.4086
vt 0.9993 0.5617
vt 0.5542 0.6189
vt 0.9993 0.9107
vt -0.0007 0.4523
vt 0.0791 0.2114
vt 0.0889 0.2755
vt 0.2144 0.2861
vt 0.2079 0.2114
vt 0.6668 0.2755
vt 0.9915 0.2771
vt 0.9993 0.2114
vt 0.6684 0.2114
vt 1.0000 0.3338
vt 0.6896 0.3486
vt 0.7120 0.3888
vt 0.9993 0.3844
vt 0.3185 0.4448
vt 0.2922 0.3715
vt 0.4231 0.2114
vt 0.4331 0.2746
vt 0.4790 0.3527
vt 0.9993 0.4480
vt 0.4331 0.2746
vt 1.0000 0.5191
vt 0.8972 0.6378
vt 0.4198 0.7687
vt 0.5255 0.5661
vt 0.9476 0.3683
vt 0.6512 0.3544
vt 1.0000 0.6127
vt 0.2549 0.6664
vt 0.2546 0.8006
vt 0.9454 0.7395
vt 1.0000 0.3095
vt 0.4277 0.3159
vt 1.0000 0.5169
vt 0.3933 0.5292
vt 0.3977 0.7748
vt 0.9761 0.5867
vt 0.5276 0.8619
vt 0.9290 0.7341
vt 1.0000 0.6453
vt 0.5202 0.6394
vt 0.9682 0.5272
vt 0.5504 0.3511
vt 0.4671 0.0000
vt 0.0000 0.2601
vt 0.0000 0.3144
vt 0.3313 0.2269
vt 0.0000 0.0000
vt 0.0000 0.0946
vt 0.0000 0.2104
vt 0.2582 0.0000
vt 0.1063 0.4524
vt 0.0059 0.4004
vt 0.0000 0.4523
vt 0.0000 0.4823
vt 0.0950 0.5086
vt 0.0001 0.5164
vt 0.1957 0.4612
vt 0.4157 0.3031
vt 0.3313 0.2269
vt 0.1794 0.4175
vt 0.1794 0.4175
vt 0.0000 0.3513
vt 0.0860 0.5601
vt 0.2134 0.5197
vt 0.1957 0.4612
vt 0.0950 0.5086
vt 0.5198 0.6295
vt 0.6368 0.5763
vt 0.6409 0.5167
vt 0.3429 0.6220
vt 0.7126 0.6424
vt 0.7094 0.5954
vt 0.5340 0.3784
vt 0.2134 0.5197
vt 0.2591 0.5538
vt 0.5549 0.4201
vt 1.0000 0.3936
vt 1.0000 0.2515
vt 0.5937 0.4674
vt 0.6409 0.5167
vt 0.4157 0.3031
vt 0.5340 0.3784
vt 0.8184 0.1381
vt 0.5683 0.1447
vt 0.0723 0.6233
vt 0.0946 0.6828
vt 0.3192 0.5883
vt 0.2591 0.5538
vt 1.0000 0.4754
vt 1.0000 0.1381
vt 0.5549 0.4201
vt 0.0860 0.5601
vt 0.0000 0.5811
vt 0.0000 0.6299
vt 0.0723 0.6233
vt 0.2086 0.8270
vt 0.2151 0.7417
vt 0.0896 0.7520
vt 0.0798 0.8270
vt 0.6997 0.6584
vt 0.7275 0.3696
vt 0.9826 0.3305
vt 0.9766 0.5721
vt 0.6691 0.8270
vt 1.0000 0.8270
vt 0.9922 0.7505
vt 0.6674 0.7519
vt 1.0000 0.6468
vt 0.7126 0.6424
vt 0.6903 0.6814
vt 1.0007 0.6956
vt 0.3192 0.5883
vt 0.2929 0.6592
vt 0.4338 0.7528
vt 0.4238 0.8270
vt 0.4796 0.6774
vt 1.0000 0.5853
vt 0.4338 0.7528
vt 0.7438 0.7294
vt 0.9995 0.6309
vt 0.7746 0.3017
vt 1.0000 0.2634
vt 0.5963 0.8384
vt 0.4407 0.7287
vt 0.4904 0.3118
vt 0.7103 0.2552
vt 0.4045 0.5036
vt 1.0000 0.5846
vt 0.8759 0.4304
vt 0.2807 0.2436
vt 0.5531 0.7760
vt 0.9271 0.7721
vt 0.4694 0.5076
vt 1.0000 0.5893
vt 0.8916 0.4496
vt 0.3629 0.2735
vt 0.5979 0.7533
vt 0.9320 0.7556
vt 0.9631 0.4448
vt 0.3977 0.2590
vt 0.5662 0.6514
vt 0.5659 0.7602
vt 0.1486 0.7445
vt 0.1486 0.6526
vt 0.6117 0.3962
vt 0.6006 0.2985
vt 0.9946 0.3414
vt 1.0000 0.4524
vt 0.5662 0.6514
vt 1.0000 0.5616
vt 1.0000 0.6898
vt 0.1486 0.3816
vt 0.1486 0.3055
vt 0.5787 0.4154
vt 0.5050 0.7105
vt 0.1003 0.7654
vt 0.0471 0.4014
vt 1.0000 0.6562
vt 1.0000 0.7061
vt 0.5770 0.7883
vt 0.5050 0.7105
vt 0.0468 0.3449
vt 0.6110 0.3705
vt 0.3518 0.8242
vt 1.0000 0.4902
vt 1.0000 0.4522
vt 0.7084 0.7043
vt 0.7553 0.7757
vt 0.6877 0.8221
vt 0.4620 0.7579
vt 0.6871 0.4053
vt 0.4214 0.3259
vt 0.7345 0.3331
vt 0.5850 0.2166
vt 0.9709 0.7513
vt 0.9871 0.8211
vt 0.9961 0.4415
vt 0.9709 0.5016
vt 0.5203 0.7847
vt 0.6095 0.3529
vt 0.8215 0.4297
vt 0.7875 0.7089
vt 0.8215 0.4297
vt 0.8736 0.3669
vt 0.9856 0.4564
vt 0.9630 0.4691
vt 0.8639 0.7624
vt 0.6900 0.7954
vt 0.7559 0.3155
vt 0.9633 0.6586
vt 1.0000 0.6889
vt 0.4580 0.2592
vt 0.6565 0.2448
vt 0.7731 0.2680
vt 0.7102 0.3583
vt 0.9533 0.6604
vt 1.0000 0.6914
vt 0.7037 0.8116
vt 0.6237 0.6965
vt 0.9378 0.4245
vt 0.7102 0.3583
vt 0.9645 0.3932
vt 0.5596 0.8594
vt 0.3034 0.7682
vt 0.2760 0.3768
vt 0.6102 0.3418
vt 1.0000 0.4013
vt 1.0000 0.4580
vt 0.4058 0.7857
vt 0.2622 0.6611
vt 1.0000 0.6232
vt 1.0000 0.6793
vt 0.6845 0.8161
vt 0.6846 0.7687
vt 0.5794 0.7687
vt 0.5794 0.8161
vt 0.8948 0.8161
vt 0.8949 0.7687
vt 0.7897 0.7687
vt 0.7897 0.8161
vt 0.6845 0.8634
vt 0.5793 0.8634
vt 0.8948 0.8634
vt 0.7896 0.8634
vt 0.9999 0.8634
vt 1.0000 0.8161
vt 0.3691 0.7687
vt 0.3691 0.8161
vt 1.0000 0.7687
vt 0.4742 0.7699
vt 0.4743 0.7338
vt 0.0001 0.7338
vt 0.0000 0.7699
vt 0.4742 0.8061
vt 0.0000 0.8061
vt 0.1246 0.8197
vt 0.1246 0.7896
vt 0.0000 0.7896
vt 0.0000 0.8197
vt 0.5794 0.9698
vt 0.5794 0.9397
vt 0.2640 0.9397
vt 0.2639 0.9698
vt 0.7897 0.7727
vt 0.7897 0.7365
vt 0.6846 0.7365
vt 0.6845 0.7727
vt 0.7371 0.8061
vt 0.7371 0.7699
vt 0.7050 0.7896
vt 0.7050 0.7594
vt 0.3275 0.7594
vt 0.3274 0.7896
vt 0.9999 1.0000
vt 1.0000 0.9639
vt 0.8422 0.9639
vt 0.8422 1.0000
vt 0.1247 0.7594
vt 0.0001 0.7594
vt 0.2639 0.7727
vt 0.2640 0.7365
vt 0.0001 0.7365
vt 0.0000 0.7727
vt 0.8948 0.7727
vt 0.8949 0.7365
vt 0.2639 0.8088
vt 0.0000 0.8088
vt 0.8948 0.8088
vt 0.7896 0.8088
vt 0.6845 0.8088
vt 0.9999 0.8088
vt 1.0000 0.7727
vt 1.0000 0.7365
vt 0.4742 0.8088
vt 0.4742 0.7727
vt 0.4743 0.7365
vt 0.3691 0.7451
vt 0.3691 0.6977
vt 0.2114 0.6977
vt 0.2114 0.7451
vt 1.0000 0.7451
vt 1.0000 0.6977
vt 0.8423 0.6977
vt 0.8422 0.7451
vt 0.3690 0.7924
vt 0.2113 0.7924
vt 0.9999 0.7924
vt 0.8422 0.7924
vt 0.7371 0.6977
vt 0.7371 0.7451
vt 0.7371 0.7924
vt 0.5794 0.6977
vt 0.5794 0.7451
vt 0.7371 0.9698
vt 0.7371 0.9397
vt 0.7371 1.0000
vt 0.5793 1.0000
vt 0.2639 1.0000
vt 0.2639 0.9639
vt 0.0000 0.9639
vt 0.0000 1.0000
vt 0.5793 0.7924
vt 0.2639 1.0000
vt 0.9474 0.9698
vt 0.9474 0.9397
vt 0.1588 0.9698
vt 0.1588 1.0000
vt 0.1588 0.9397
vt 0.9474 0.9639
vt 0.9474 0.9277
vt 0.7897 0.9277
vt 0.7897 0.9639
vt 0.5268 0.9639
vt 0.5268 0.9277
vt 0.2640 0.9277
vt 0.2639 0.9639
vt 0.9474 1.0000
vt 0.7896 1.0000
vt 0.5268 1.0000
vt 0.7371 0.7699
vt 0.7371 0.7338
vt 0.4743 0.7338
vt 0.4742 0.7699
vt 0.6846 0.9277
vt 0.6845 0.9639
vt 0.6845 1.0000
vt 0.9474 0.8061
vt 0.9474 0.7699
vt 0.7371 0.7699
vt 0.7371 0.8061
vt 0.0001 0.9277
vt 0.3690 0.8634
vt 0.3274 0.8197
vt 0.7897 0.9526
vt 0.7897 0.9053
vt 0.5794 0.9053
vt 0.5794 0.9526
vt 0.9999 1.0000
vt 1.0000 0.9526
vt 0.7897 0.9526
vt 0.7896 1.0000
vt 0.3691 0.9053
vt 0.3691 0.9526
vt 0.9474 0.9053
vt 0.1588 0.9053
vt 0.1588 0.9526
vt 0.5793 1.0000
vt 0.3690 1.0000
vt 0.5794 0.9698
vt 0.5794 0.9397
vt 0.2640 0.9397
vt 0.2639 0.9698
vt 0.7897 0.9698
vt 0.7897 0.9397
vt 0.9474 1.0000
vt 0.5793 1.0000
vt 0.2639 1.0000
vt 0.1588 0.9698
vt 0.1588 1.0000
vt 0.1588 0.9397
vt 0.5794 0.7677
vt 0.5794 0.7284
vt 0.2640 0.7284
vt 0.2639 0.7677
vt 0.7896 1.0000
vt 1.0000 0.7677
vt 1.0000 0.7284
vt 0.7897 0.7284
vt 0.7897 0.7677
vt 0.9999 0.8070
vt 0.7896 0.8070
vt 0.5793 0.8070
vt 0.2639 0.8070
vt 1.0000 0.9698
vt 1.0000 0.9397
vt 0.1588 0.7677
vt 0.1588 0.8070
vt 0.1588 0.7284
vt 0.9999 1.0000
vt 1.0000 0.6383
vt 0.9792 0.6837
vt 0.6760 0.7869
vt 0.6733 0.6777
vt 0.9605 0.5991
vt 0.6887 0.6105
vt 0.2407 0.5761
vt 0.2098 0.7117
vt 0.0000 0.7160
vt 0.0059 0.6463
vt 0.1921 0.8372
vt 0.0000 0.8249
vt 0.5091 0.5356
vt 0.5091 0.6555
vt 0.1061 0.6480
vt 0.1061 0.5354
vt 0.7708 0.5082
vt 0.7708 0.3732
vt 1.0000 0.3672
vt 1.0000 0.4880
vt 0.4877 0.3258
vt 0.4877 0.4278
vt 0.1061 0.4344
vt 0.1679 0.3271
vt 0.7569 0.7382
vt 0.7576 0.6191
vt 1.0000 0.6194
vt 1.0000 0.7326
vt 0.7304 0.5620
vt 0.7345 0.4490
vt 1.0000 0.4700
vt 1.0000 0.5750
vt 0.4981 0.5552
vt 0.5088 0.4385
vt 0.9932 0.4449
vt 0.9932 0.5599
vt 0.4987 0.7088
vt 0.4987 0.8136
vt 0.1061 0.8225
vt 0.1061 0.7075
vt 0.4893 0.4412
vt 0.4893 0.5491
vt 0.1061 0.5461
vt 0.1061 0.4457
vt 0.5250 0.6404
vt 0.5250 0.5354
vt 1.0000 0.5326
vt 1.0000 0.6422
vt 0.7615 0.5553
vt 0.7615 0.4775
vt 1.0000 0.4782
vt 1.0000 0.5576
vt 0.5760 0.3293
vt 0.5855 0.4492
vt 0.1946 0.4550
vt 0.1946 0.3411
vt 0.5147 0.5165
vt 0.5185 0.3843
vt 0.9924 0.3865
vt 0.9924 0.5327
vt 0.5019 0.4268
vt 0.5021 0.5243
vt 0.1092 0.5161
vt 0.2062 0.4265
vt 0.7464 0.7443
vt 0.7464 0.6344
vt 1.0000 0.6289
vt 1.0000 0.7454
vt 0.5192 0.6555
vt 0.5192 0.7809
vt 0.0992 0.7759
vt 0.2272 0.6539
vt 0.4849 0.2807
vt 0.4849 0.4445
vt 0.1061 0.4211
vt 0.1061 0.2610
vt 0.4593 0.4870
vt 0.4688 0.5783
vt 0.1061 0.5798
vt 0.1980 0.4762
vt 0.4789 0.6739
vt 0.4789 0.7611
vt 0.1061 0.7592
vt 0.1061 0.6731
vt 0.5636 0.3332
vt 0.5566 0.4405
vt 0.1061 0.4455
vt 0.1061 0.3395
vt 0.5136 0.6149
vt 0.5055 0.4993
vt 1.0000 0.4830
vt 1.0000 0.6071
vt 0.5099 0.5749
vt 0.5099 0.4886
vt 0.9899 0.4803
vt 0.9899 0.5625
vt 0.4962 0.7089
vt 0.4962 0.7981
vt 0.1061 0.8061
vt 0.1061 0.7087
vt 0.6094 0.4479
vt 0.6113 0.5351
vt 1.0000 0.5362
vt 1.0000 0.4467
vt 0.4304 0.7456
vt 0.4187 0.6315
vt 1.0000 0.6277
vt 1.0000 0.7509
vt 0.5372 0.4340
vt 0.5372 0.5881
vt 0.1061 0.5591
vt 0.1061 0.4084
vt 0.5725 0.5081
vt 0.5725 0.6420
vt 0.1061 0.6507
vt 0.1061 0.5170
vt 0.4683 0.5371
vt 0.4683 0.4409
vt 1.0000 0.4410
vt 1.0000 0.5293
vt 0.7529 0.8155
vt 0.7474 0.6685
vt 1.0000 0.6683
vt 1.0000 0.8142
vt 0.7412 0.8121
vt 0.7412 0.7100
vt 0.9932 0.7041
vt 0.9932 0.8117
vt 0.8788 0.6459
vt 0.8800 0.5341
vt 1.0000 0.5341
vt 1.0000 0.6439
vt 0.4900 0.5934
vt 0.4975 0.7027
vt 0.0000 0.7089
vt 0.0000 0.6106
vt 0.7649 0.8191
vt 0.7603 0.6682
vt 1.0000 0.6625
vt 1.0000 0.8142
vt 0.4997 0.3955
vt 0.4997 0.5256
vt 0.1061 0.5198
vt 0.1061 0.3988
vt 0.1605 0.4753
vt 0.1061 0.3651
vt 0.5050 0.3621
vt 0.4998 0.4815
vt 0.7458 0.6634
vt 0.7490 0.5756
vt 1.0000 0.5793
vt 1.0000 0.6578
vt 0.4981 0.5719
vt 0.1605 0.5907
vt 0.4916 0.6690
vt 0.4882 0.7643
vt 0.0000 0.7674
vt 0.0000 0.6719
vt 0.1061 0.6719
vt 0.7499 0.4780
vt 0.7490 0.5756
vt 0.7458 0.6634
vt 0.7441 0.7619
vt 0.7373 0.6892
vt 0.7344 0.5845
vt 1.0000 0.5907
vt 1.0000 0.6872
vt 0.0000 0.6943
vt 0.0000 0.5798
vt 0.4746 0.6912
vt 0.7289 0.3930
vt 0.7296 0.4869
vt 0.4593 0.4870
vt 0.4578 0.3952
vt 0.7344 0.5845
vt 0.4749 0.2894
vt 0.4578 0.3952
vt 0.1980 0.3856
vt 0.1061 0.2895
vt 0.7450 0.5893
vt 0.7434 0.4969
vt 1.0000 0.4907
vt 1.0000 0.5851
vt 0.7445 0.4100
vt 1.0000 0.4074
vt 0.7450 0.5893
vt 0.7488 0.6963
vt 0.1061 0.6106
vt 0.1061 0.5060
vt 0.4868 0.5032
vt 0.1061 0.4299
vt 0.1061 0.3368
vt 0.4885 0.3331
vt 0.4890 0.4127
vt 0.4523 0.6632
vt 0.4544 0.7770
vt 0.0000 0.7862
vt 0.0000 0.6700
vt 0.7261 0.6800
vt 1.0000 0.6968
vt 0.4811 0.3093
vt 0.4691 0.4279
vt 0.1741 0.4252
vt 0.0000 0.3116
vt 0.1061 0.5461
vt 0.4608 0.5490
vt 0.7261 0.6800
vt 0.7272 0.7913
vt 0.0000 0.5461
vt 0.4981 0.6872
vt 0.4981 0.7807
vt 0.0000 0.7853
vt 0.0000 0.6877
vt 0.9932 0.6899
vt 0.9932 0.7790
vt 0.4981 0.3317
vt 0.5088 0.4385
vt 0.0000 0.4418
vt 0.0000 0.3351
vt 0.1077 0.6877
vt 0.1826 0.5587
vt 0.4981 0.5552
vt 0.1077 0.4418
vt 0.9878 0.3359
vt 0.1704 0.5492
vt 0.1061 0.4780
vt 0.5231 0.4768
vt 0.5231 0.5530
vt 0.7615 0.4170
vt 1.0000 0.4139
vt 0.5231 0.6264
vt 0.5231 0.6820
vt 0.1061 0.6630
vt 0.1704 0.6156
vt 0.0000 0.4780
vt 0.0000 0.4187
vt 0.5231 0.4201
vt 0.7615 0.6175
vt 0.7615 0.6794
vt 0.7615 0.5553
vt 0.5827 0.5371
vt 0.1061 0.5471
vt 0.5753 0.6470
vt 0.5691 0.7419
vt 0.1946 0.7661
vt 0.1061 0.6436
vt 0.0000 0.6436
vt 0.0000 0.5471
vt 0.7927 0.4457
vt 0.7914 0.5304
vt 0.7876 0.6350
vt 0.7846 0.7459
vt 0.5236 0.2844
vt 0.5230 0.4165
vt 0.1061 0.4177
vt 0.1061 0.2828
vt 0.5171 0.4976
vt 0.1061 0.4984
vt 0.7586 0.4923
vt 1.0000 0.4869
vt 0.1061 0.7452
vt 0.1061 0.6213
vt 0.5152 0.6188
vt 0.5139 0.7437
vt 0.7615 0.4121
vt 0.7586 0.4923
vt 0.1061 0.8368
vt 0.1061 0.6776
vt 0.5206 0.6739
vt 0.5298 0.8240
vt 0.7565 0.5302
vt 1.0000 0.5240
vt 0.5214 0.3962
vt 0.5131 0.5364
vt 0.1061 0.5461
vt 0.1061 0.3955
vt 0.7607 0.3905
vt 0.7565 0.5302
vt 0.1061 0.2280
vt 0.5270 0.2334
vt 0.1061 0.4770
vt 0.1061 0.3874
vt 0.5348 0.3748
vt 0.5343 0.4832
vt 0.5454 0.6470
vt 0.5415 0.7512
vt 0.1061 0.7653
vt 0.1061 0.6462
vt 0.7730 0.5388
vt 0.7783 0.4426
vt 1.0000 0.4447
vt 1.0000 0.5343
vt 0.5460 0.5432
vt 0.1061 0.5494
vt 0.7727 0.6467
vt 0.7707 0.7595
vt 0.7730 0.5388
vt 0.5393 0.7313
vt 0.5376 0.6469
vt 1.0000 0.6318
vt 1.0000 0.7218
vt 0.0000 0.7249
vt 0.0000 0.6428
vt 0.5327 0.5626
vt 0.1061 0.6428
vt 0.1061 0.5602
vt 1.0000 0.4680
vt 1.0000 0.5606
vt 0.1037 0.5041
vt 0.1037 0.3599
vt 0.5218 0.3692
vt 0.5055 0.4993
vt 1.0000 0.3567
vt 0.5136 0.2410
vt 0.1037 0.2391
vt 0.0000 0.6323
vt 0.0000 0.4896
vt 0.4928 0.4988
vt 0.4928 0.6399
vt 0.1037 0.6254
vt 0.5136 0.7352
vt 1.0000 0.7350
vt 0.1037 0.7380
vt 0.7464 0.3703
vt 0.7464 0.4964
vt 0.4928 0.4988
vt 0.4928 0.3686
vt 0.1945 0.7522
vt 0.1061 0.6323
vt 0.4928 0.7432
vt 0.4928 0.2260
vt 0.4928 0.3686
vt 0.1945 0.3561
vt 0.1945 0.2369
vt 0.1061 0.4896
vt 0.7464 0.4964
vt 1.0000 0.4940
vt 0.5020 0.3191
vt 0.2062 0.3251
vt 0.5025 0.7450
vt 0.5022 0.6595
vt 0.9973 0.6508
vt 0.9973 0.7478
vt 0.5021 0.5243
vt 0.9973 0.5218
vt 0.9973 0.3121
vt 0.9973 0.4310
vt 0.2062 0.7621
vt 0.1092 0.6470
vt 0.0000 0.6470
vt 0.0000 0.5161
vt 0.1072 0.5230
vt 0.1072 0.3821
vt 0.5417 0.3792
vt 0.5417 0.5285
vt 0.7708 0.7908
vt 0.7708 0.6463
vt 1.0000 0.6270
vt 1.0000 0.7864
vt 0.5417 0.2086
vt 0.1072 0.2280
vt 0.1072 0.8122
vt 0.1072 0.6745
vt 0.5417 0.6657
vt 0.5417 0.7951
vt 0.5250 0.4281
vt 0.5250 0.5354
vt 0.1066 0.5303
vt 0.1066 0.4337
vt 1.0000 0.7597
vt 0.5250 0.7623
vt 1.0000 0.4180
vt 0.1066 0.6379
vt 0.5250 0.3187
vt 0.1066 0.3182
vt 0.1066 0.7659
vt 0.1468 0.8346
vt 0.1061 0.6933
vt 0.4948 0.6688
vt 0.5058 0.8168
vt 0.7474 0.4099
vt 0.7493 0.2518
vt 1.0000 0.2407
vt 1.0000 0.3994
vt 0.4948 0.4205
vt 0.4965 0.5505
vt 0.1061 0.5746
vt 0.1468 0.4283
vt 0.7482 0.5389
vt 1.0000 0.5273
vt 0.1468 0.2541
vt 0.4987 0.2628
vt 0.7474 0.4099
vt 0.7482 0.5389
vt 0.0000 0.6933
vt 0.0000 0.5746
vt 0.2452 0.5316
vt 0.1072 0.3913
vt 0.5147 0.2567
vt 0.0000 0.3913
vt 0.0076 0.2446
vt 0.5147 0.6596
vt 0.5147 0.8200
vt 0.1110 0.8267
vt 0.2452 0.6740
vt 1.0000 0.2610
vt 0.9924 0.6547
vt 0.9924 0.7990
vt 0.7596 0.6522
vt 0.7596 0.7786
vt 0.5192 0.5455
vt 0.2272 0.5474
vt 0.7596 0.5456
vt 0.7596 0.4375
vt 1.0000 0.4409
vt 1.0000 0.5457
vt 0.5192 0.3109
vt 0.5192 0.4340
vt 0.0000 0.4374
vt 0.0000 0.3143
vt 0.0992 0.4374
vt 0.7596 0.3124
vt 0.7596 0.4375
vt 1.0000 0.7004
vt 1.0000 0.7989
vt 0.4987 0.4704
vt 0.4987 0.3398
vt 1.0000 0.3404
vt 1.0000 0.4466
vt 0.4987 0.5909
vt 0.1061 0.5977
vt 0.4987 0.5909
vt 1.0000 0.5764
vt 0.1061 0.4679
vt 0.1061 0.3459
vt 0.9948 0.4390
vt 0.9948 0.5425
vt 0.4893 0.6708
vt 0.4893 0.7685
vt 0.1061 0.7702
vt 0.1061 0.6683
vt 0.9948 0.6588
vt 0.9948 0.7706
vt 0.5091 0.4168
vt 0.5091 0.3242
vt 1.0000 0.3272
vt 1.0000 0.4207
vt 0.4893 0.3349
vt 0.9948 0.3345
vt 0.1061 0.3402
vt 0.1061 0.4145
vt 0.5091 0.4168
vt 1.0000 0.5366
vt 0.5091 0.7489
vt 0.5091 0.6555
vt 1.0000 0.6522
vt 1.0000 0.7458
vt 0.1679 0.6500
vt 0.1061 0.5457
vt 0.4877 0.5417
vt 0.4877 0.6492
vt 0.1061 0.7498
vt 0.1061 0.3231
vt 0.0000 0.5457
vt 0.0000 0.4344
vt 1.0003 0.4254
vt 1.0003 0.5414
vt 0.4877 0.7683
vt 0.1679 0.7738
vt 1.0003 0.3250
vt 1.0003 0.6449
vt 1.0003 0.7552
vt 0.1061 0.3817
vt 0.1061 0.2709
vt 0.5677 0.2631
vt 0.5631 0.3820
vt 0.7857 0.7096
vt 0.7841 0.5850
vt 1.0000 0.5853
vt 1.0000 0.7098
vt 0.5695 0.4926
vt 0.1061 0.4920
vt 0.7847 0.4900
vt 1.0000 0.4874
vt 0.1061 0.7209
vt 0.1061 0.5972
vt 0.5682 0.5846
vt 0.5714 0.7095
vt 0.7816 0.3843
vt 0.7847 0.4900
vt 0.1061 0.4140
vt 0.1061 0.2709
vt 0.5343 0.2642
vt 0.5224 0.4137
vt 0.1061 0.6512
vt 0.1061 0.5333
vt 0.5199 0.5343
vt 0.5154 0.6518
vt 0.7612 0.4118
vt 0.7600 0.5342
vt 0.5199 0.5343
vt 0.5224 0.4137
vt 0.8803 0.7546
vt 1.0000 0.7587
vt 0.1061 0.7445
vt 0.5214 0.7425
vt 0.4789 0.5212
vt 0.1061 0.5118
vt 0.4650 0.2591
vt 0.4789 0.3997
vt 0.1061 0.4020
vt 0.1061 0.2660
vt 0.4789 0.5212
vt 0.4789 0.3997
vt 0.9881 0.3981
vt 0.9881 0.5063
vt 0.9881 0.6617
vt 0.9881 0.7539
vt 0.9938 0.5429
vt 0.9938 0.7105
vt 0.4849 0.7470
vt 0.4849 0.5606
vt 0.4849 0.4445
vt 0.9938 0.4316
vt 0.1061 0.7560
vt 0.1061 0.5519
vt 0.9938 0.8151
vt 0.4849 0.8387
vt 0.1061 0.8591
vt 0.1089 0.8147
vt 0.1089 0.7064
vt 0.4893 0.7158
vt 0.4893 0.8125
vt 0.7412 0.3247
vt 0.7412 0.4483
vt 0.4893 0.4459
vt 0.4893 0.3260
vt 0.7412 0.5978
vt 0.9932 0.5990
vt 0.1089 0.5912
vt 0.4893 0.5967
vt 0.4893 0.4459
vt 0.1089 0.4471
vt 0.1089 0.3263
vt 0.7412 0.5978
vt 0.4962 0.2736
vt 0.4962 0.3950
vt 0.1061 0.4132
vt 0.1061 0.2556
vt 0.4962 0.7089
vt 0.4962 0.5647
vt 0.9941 0.5672
vt 0.9941 0.7079
vt 0.4962 0.5647
vt 0.1061 0.5553
vt 0.5099 0.3898
vt 0.5099 0.4886
vt 0.1061 0.4993
vt 0.1061 0.3918
vt 0.9941 0.3926
vt 0.1061 0.6917
vt 0.1061 0.5829
vt 0.5099 0.5749
vt 0.5099 0.6833
vt 0.9941 0.8018
vt 0.5099 0.7398
vt 0.5099 0.6833
vt 0.9899 0.6608
vt 0.9899 0.7408
vt 0.1061 0.7455
vt 0.4997 0.7501
vt 0.4997 0.6401
vt 0.9983 0.6251
vt 0.9983 0.7450
vt 0.4997 0.5256
vt 0.9983 0.5212
vt 0.4997 0.2833
vt 0.1061 0.2815
vt 0.1061 0.7525
vt 0.1061 0.6326
vt 0.9983 0.2963
vt 0.9983 0.4148
vt 1.0000 0.5047
vt 1.0000 0.6290
vt 0.5725 0.3852
vt 0.1061 0.3890
vt 0.5725 0.7418
vt 1.0000 0.7382
vt 0.1061 0.2269
vt 0.5725 0.2241
vt 1.0000 0.3912
vt 0.0000 0.7539
vt 0.0000 0.6507
vt 0.1061 0.7116
vt 0.5372 0.7250
vt 0.5372 0.7743
vt 0.5372 0.7250
vt 1.0000 0.7124
vt 1.0000 0.7596
vt 0.5372 0.3012
vt 0.1061 0.2901
vt 1.0000 0.4419
vt 1.0000 0.5563
vt 0.1061 0.7817
vt 0.4254 0.5096
vt 1.0000 0.5045
vt 0.4342 0.3977
vt 0.4254 0.5096
vt 0.1061 0.5133
vt 0.1061 0.3972
vt 0.4431 0.3029
vt 0.1061 0.2868
vt 0.1131 0.7624
vt 0.1110 0.6343
vt 0.9973 0.4029
vt 0.6031 0.6448
vt 1.0000 0.6574
vt 0.6137 0.3605
vt 1.0000 0.3523
vt 0.1147 0.4380
vt 0.1147 0.5353
vt 0.1147 0.3608
vt 0.1147 0.6520
vt 0.4683 0.7272
vt 1.0000 0.7253
vt 0.4683 0.3016
vt 0.4683 0.4409
vt 0.1061 0.4301
vt 0.1061 0.2996
vt 0.1061 0.5199
vt 0.4683 0.7272
vt 0.4683 0.8307
vt 0.1061 0.8307
vt 0.1061 0.7150
vt 1.0000 0.8307
vt 0.0000 0.0000
vt 0.0000 0.0000
vt 0.0000 0.0000
vt 1.0000 0.3907
vt 1.0000 0.4869
vt 1.0000 0.6899
vt 1.0000 0.4744
vt 1.0000 0.7595
vt 0.8422 0.9639
vt 0.8423 0.9277
vt 0.6846 0.9277
vt 0.6845 0.9639
vt 0.6845 1.0000
vt 0.4217 0.9277
vt 0.4217 0.9639
vt 1.0000 0.9277
vt 0.1588 0.8161
vt 0.1588 0.8634
vt 0.1588 0.7687
vt 0.4216 1.0000
vt 0.9474 0.7338
vt 1.0000 0.7896
vt 1.0000 0.7594
vt 0.9999 0.8197
vt 0.7050 0.8197
vt 0.4742 0.8061
vt 0.0001 0.9277
vt 0.0000 0.9639
vt 0.0000 1.0000
vt 0.7897 0.9526
vt 0.7897 0.9053
vt 0.5794 0.9053
vt 0.5794 0.9526
vt 0.9999 1.0000
vt 1.0000 0.9526
vt 0.7897 0.9526
vt 0.7896 1.0000
vt 0.3691 0.9053
vt 0.3691 0.9526
vt 0.9474 0.9053
vt 0.0000 0.7699
vt 0.0000 0.8061
vt 0.5793 1.0000
vt 0.3690 1.0000
vt 0.1588 0.9526
vt 0.1588 1.0000
vt 0.0001 0.7338
vt 0.1588 0.9053
vt 0.1588 1.0000
vt 0.7371 0.7699
vt 0.7371 0.7338
vt 0.4743 0.7338
vt 0.4742 0.7699
vt 0.9474 0.8061
vt 0.9474 0.7699
vt 0.7371 0.7699
vt 0.7371 0.8061
vt 0.9474 0.7338
vt 0.4742 0.8061
vt 0.0000 0.7699
vt 0.0000 0.8061
vt 0.0001 0.7338
vt 0.9474 0.7699
vt 0.9474 0.7338
vt 0.7371 0.7338
vt 0.7371 0.7699
vt 0.9474 0.8061
vt 0.7371 0.7699
vt 0.7371 0.7338
vt 0.4743 0.7338
vt 0.4742 0.7699
vt 0.9474 0.8061
vt 0.9474 0.7699
vt 0.7371 0.7699
vt 0.7371 0.8061
vt 0.9474 0.7338
vt 0.4742 0.8061
vt 0.0000 0.7699
vt 0.0000 0.8061
vt 0.0001 0.7338
vt 0.5794 0.7377
vt 0.5794 0.7075
vt 0.2640 0.7075
vt 0.2639 0.7377
vt 1.0000 0.7377
vt 1.0000 0.7075
vt 0.7897 0.7075
vt 0.7897 0.7377
vt 0.9999 0.7679
vt 0.7896 0.7679
vt 0.5793 0.7679
vt 0.2639 0.7679
vt 0.1588 0.7377
vt 0.1588 0.7679
vt 0.1588 0.7075
vt 0.5794 0.6612
vt 0.5794 0.6311
vt 0.2640 0.6311
vt 0.2639 0.6612
vt 1.0000 0.6612
vt 1.0000 0.6311
vt 0.7897 0.6311
vt 0.7897 0.6612
vt 0.9999 0.6914
vt 0.7896 0.6914
vt 0.5793 0.6914
vt 0.2639 0.6914
vt 0.1588 0.6612
vt 0.1588 0.6914
vt 0.1588 0.6311
vt 0.7897 0.7727
vt 0.7897 0.7365
vt 0.4743 0.7365
vt 0.4742 0.7727
vt 0.2639 0.7727
vt 0.2640 0.7365
vt 0.0001 0.7365
vt 0.0000 0.7727
vt 0.9999 0.8088
vt 1.0000 0.7727
vt 0.7897 0.7727
vt 0.7896 0.8088
vt 0.2639 0.8088
vt 0.0000 0.8088
vt 0.4742 0.8088
vt 0.4742 1.0000
vt 0.4742 0.9639
vt 0.2639 0.9639
vt 0.2639 1.0000
vt 1.0000 0.7365
vt 0.7897 0.9639
vt 0.7897 0.9277
vt 0.4743 0.9277
vt 0.4742 0.9639
vt 0.2639 0.9639
vt 0.2640 0.9277
vt 0.0001 0.9277
vt 0.0000 0.9639
vt 0.8948 0.9639
vt 0.8949 0.9277
vt 0.0000 1.0000
vt 0.8948 1.0000
vt 0.7896 1.0000
vt 0.9999 1.0000
vt 1.0000 0.9639
vt 1.0000 0.9277
vt 0.7897 0.9580
vt 0.7897 0.9218
vt 0.6846 0.9218
vt 0.6845 0.9580
vt 0.2639 0.9580
vt 0.2640 0.9218
vt 0.0001 0.9218
vt 0.0000 0.9580
vt 0.8948 0.9580
vt 0.8949 0.9218
vt 0.2639 0.9941
vt 0.0000 0.9941
vt 0.8948 0.9941
vt 0.7896 0.9941
vt 0.6845 0.9941
vt 0.9999 0.9941
vt 1.0000 0.9580
vt 1.0000 0.9218
vt 0.4742 0.9941
vt 0.4742 0.9580
vt 0.4743 0.9218
vt 0.7897 0.7727
vt 0.7897 0.7365
vt 0.6846 0.7365
vt 0.6845 0.7727
vt 0.2639 0.7727
vt 0.2640 0.7365
vt 0.0001 0.7365
vt 0.0000 0.7727
vt 0.8948 0.7727
vt 0.8949 0.7365
vt 0.2639 0.8088
vt 0.0000 0.8088
vt 0.8948 0.8088
vt 0.7896 0.8088
vt 0.6845 0.8088
vt 0.9999 0.8088
vt 1.0000 0.7727
vt 1.0000 0.7365
vt 0.4742 0.8088
vt 0.4742 0.7727
vt 0.4743 0.7365
vt 0.6338 0.8066
vt 0.6338 0.8880
vt 0.5100 0.8880
vt 0.5100 0.8066
vt 0.7932 0.8066
vt 0.7932 0.8880
vt 0.7931 0.7251
vt 0.6338 0.7251
vt 0.5099 0.7251
vt 0.9999 0.7251
vt 1.0000 0.8066
vt 1.0000 0.8880
vt 0.3119 0.7251
vt 0.3119 0.8066
vt 0.0000 0.8066
vt 0.0000 0.7251
vt 0.3120 0.8880
vt 0.3119 0.8066
vt 0.0001 0.8880
vt 1.0000 0.6383
vt 0.9792 0.6837
vt 0.6760 0.7869
vt 0.6733 0.6777
vt 0.9605 0.5991
vt 0.6887 0.6105
vt 0.1233 0.6112
vt 0.1049 0.7139
vt 0.0000 0.7160
vt 0.0059 0.6463
vt 0.0961 0.8311
vt 0.0000 0.8249
vt 0.2098 0.7117
vt 0.1921 0.8372
vt 0.2407 0.5761
vt 1.0000 0.6383
vt 0.9792 0.6837
vt 0.6760 0.7869
vt 0.6733 0.6777
vt 0.9605 0.5991
vt 0.6887 0.6105
vt 0.2407 0.5761
vt 0.2098 0.7117
vt 0.0000 0.7160
vt 0.0059 0.6463
vt 0.1921 0.8372
vt 0.0000 0.8249
vt 0.4415 0.6947
vt 0.4340 0.8121
vt 0.4415 0.6947
vt 0.4647 0.5933
vt 1.0000 0.3139
vt 1.0000 0.6489
vt 1.0000 0.7762
vt 0.2639 1.0000
vt 0.2639 0.9639
vt 0.0000 0.9639
vt 0.0000 1.0000
vt 0.9474 0.9639
vt 0.9474 0.9277
vt 0.7897 0.9277
vt 0.7897 0.9639
vt 0.5268 0.9639
vt 0.5268 0.9277
vt 0.2640 0.9277
vt 0.2639 0.9639
vt 0.9474 1.0000
vt 0.7896 1.0000
vt 0.5268 1.0000
vt 0.6846 0.9277
vt 0.6845 0.9639
vt 0.6845 1.0000
vt 0.0001 0.9277
vt 1.0000 0.6383
vt 0.9792 0.6837
vt 0.6760 0.7869
vt 0.6733 0.6777
vt 0.9605 0.5991
vt 0.6887 0.6105
vt 0.1233 0.6112
vt 0.1049 0.7139
vt 0.0000 0.7160
vt 0.0059 0.6463
vt 0.0961 0.8311
vt 0.0000 0.8249
vt 0.2098 0.7117
vt 0.1921 0.8372
vt 0.2407 0.5761
vt 1.0000 0.6383
vt 0.9792 0.6837
vt 0.6760 0.7869
vt 0.6733 0.6777
vt 0.9605 0.5991
vt 0.6887 0.6105
vt 0.1233 0.6112
vt 0.1049 0.7139
vt 0.0000 0.7160
vt 0.0059 0.6463
vt 0.0961 0.8311
vt 0.0000 0.8249
vt 0.2098 0.7117
vt 0.1921 0.8372
vt 0.2407 0.5761
vt 0.0000 0.0000
vt 0.0000 0.0000
vt 0.0000 0.0000
vt 0.9932 0.3233
vt 0.9932 0.4507
vt 1.0000 0.8057
vt 0.4742 0.8088
vt 0.4742 0.7727
vt 0.2639 0.7727
vt 0.2639 0.8088
vt 0.7897 0.7727
vt 0.7897 0.7365
vt 0.4743 0.7365
vt 0.4742 0.7727
vt 0.2639 0.7727
vt 0.2640 0.7365
vt 0.0001 0.7365
vt 0.0000 0.7727
vt 0.8948 0.7727
vt 0.8949 0.7365
vt 0.0000 0.8088
vt 0.8948 0.8088
vt 0.7896 0.8088
vt 0.9999 0.8088
vt 1.0000 0.7727
vt 1.0000 0.7365
vt 0.7577 0.6478
vt 0.8806 0.4108
vt 0.8800 0.5341
vt 0.7607 0.7506
vt 0.2639 0.6810
vt 0.2639 0.6449
vt 0.0000 0.6449
vt 0.0000 0.6810
vt 0.9474 0.6449
vt 0.9474 0.6087
vt 0.7897 0.6087
vt 0.7897 0.6449
vt 0.5268 0.6449
vt 0.5268 0.6087
vt 0.2640 0.6087
vt 0.2639 0.6449
vt 0.9474 0.6810
vt 0.7896 0.6810
vt 0.5268 0.6810
vt 0.6846 0.6087
vt 0.6845 0.6449
vt 0.6845 0.6810
vt 0.0001 0.6087
vt 0.2639 0.6810
vt 0.2639 0.6449
vt 0.0000 0.6449
vt 0.0000 0.6810
vt 0.9474 0.6449
vt 0.9474 0.6087
vt 0.7897 0.6087
vt 0.7897 0.6449
vt 0.5268 0.6449
vt 0.5268 0.6087
vt 0.2640 0.6087
vt 0.2639 0.6449
vt 0.9474 0.6810
vt 0.7896 0.6810
vt 0.5268 0.6810
vt 0.6846 0.6087
vt 0.6845 0.6449
vt 0.6845 0.6810
vt 0.0001 0.6087
vt 0.7897 0.7727
vt 0.7897 0.7365
vt 0.4743 0.7365
vt 0.4742 0.7727
vt 0.2639 0.7727
vt 0.2640 0.7365
vt 0.0001 0.7365
vt 0.0000 0.7727
vt 0.8948 0.7727
vt 0.8949 0.7365
vt 0.2639 0.8088
vt 0.0000 0.8088
vt 0.8948 0.8088
vt 0.7896 0.8088
vt 0.4742 0.8088
vt 0.9999 0.8088
vt 1.0000 0.7727
vt 1.0000 0.7365
vt 1.0000 0.3866
vt 1.0000 0.4099
vt 1.0000 0.6463
vt 1.0000 0.7679
vt 1.0000 0.3848
vt 1.0000 0.4077
vt 1.0000 0.4421
vt 1.0000 0.5236
vt 1.0000 0.6230
vt 1.0000 0.7499
vt 1.0000 0.3720
vt 1.0000 0.6087
vt 1.0000 0.6769
f 5/1 73/2 1/3 3/4
f 2/5 4/6 3/4 1/3
f 40/7 41/8 9/9 6/10
f 46/11 45/12 10/13 11/14
f 49/15 48/16 14/17 18/18
f 47/19 49/15 18/18 17/20
f 7/21 40/22 39/23 15/24
f 18/18 14/17 8/25 7/26
f 17/27 15/28 53/29 42/30
f 33/31 26/32 20/33 31/34
f 25/35 32/36 31/34 20/33
f 30/37 52/38 53/39 50/40
f 26/41 43/42 44/43 35/44
f 16/45 51/46 50/47 39/48
f 52/49 34/50 29/51 12/52
f 20/33 26/32 35/44 24/53
f 7/21 8/25 41/8 40/22
f 40/7 6/10 16/45 39/23
f 43/42 30/54 36/55 44/43
f 6/10 9/9 45/12 46/11
f 42/30 53/29 52/38 12/52
f 47/19 17/20 42/30 38/56
f 131/57 28/58 22/59 130/60
f 23/61 54/62 133/63 134/64
f 56/65 37/66 32/67 55/68
f 51/46 36/55 30/54 50/47
f 50/40 53/39 15/28 39/48
f 33/31 34/69 43/42 26/32
f 52/38 30/37 43/42 34/50
f 17/20 18/18 7/26 15/28
f 27/70 29/51 34/50 33/31
f 27/70 22/59 28/58 29/51
f 23/61 134/64 132/71 19/72
f 32/36 37/66 21/73 31/34
f 13/74 25/35 20/33 24/53
f 27/70 33/31 31/34 21/73
f 21/73 19/75 22/59 27/70
f 19/72 21/73 37/66 23/61
f 56/65 54/62 23/61 37/66
f 130/60 22/59 19/75 132/71
f 55/68 32/67 25/35 13/74
f 57/76 61/77 59/78 58/79
f 62/80 57/76 58/79 60/81
f 63/82 64/83 65/84 67/85
f 68/86 66/87 64/83 63/82
f 158/88 156/89 69/90 70/91
f 222/92 76/93 74/94 71/95
f 75/96 72/97 71/95 74/94
f 77/98 80/99 112/100 111/101
f 82/102 81/103 117/104 118/105
f 89/106 85/107 121/108 122/109
f 88/110 89/106 122/109 120/111
f 86/112 110/113 111/114 78/115
f 78/116 79/117 85/107 89/106
f 114/118 126/119 86/120 88/121
f 102/122 91/123 97/124 104/125
f 91/123 102/122 103/126 96/127
f 123/128 126/129 125/130 101/131
f 106/132 116/133 115/134 97/135
f 110/136 123/137 124/138 87/139
f 83/140 100/141 105/142 125/143
f 95/144 106/132 97/135 91/123
f 111/114 112/100 79/117 78/115
f 110/136 87/139 77/98 111/114
f 116/133 107/145 101/146 115/134
f 118/105 117/104 80/99 77/98
f 114/147 109/148 113/149 83/150
f 83/140 125/143 126/129 114/147
f 109/148 114/147 88/121 120/111
f 130/151 93/152 99/153 131/154
f 135/155 136/156 220/157 221/158
f 134/159 133/160 127/161 94/162
f 128/163 103/164 108/165 129/166
f 123/128 101/131 107/145 124/138
f 110/113 86/112 126/119 123/137
f 97/124 115/134 105/167 104/125
f 105/167 115/134 101/146 125/143
f 86/112 78/115 89/106 88/121
f 104/125 105/167 100/141 98/168
f 100/141 99/153 93/152 98/168
f 90/169 132/170 134/159 94/162
f 102/122 92/171 108/165 103/126
f 95/144 91/123 96/127 84/172
f 92/171 102/122 104/125 98/168
f 98/168 93/152 90/173 92/171
f 94/162 108/165 92/171 90/169
f 108/165 94/162 127/161 129/166
f 132/170 90/169 93/152 130/151
f 84/172 96/127 103/126 128/163
f 138/174 135/155 221/158 119/175
f 136/156 137/176 219/177 220/157
f 142/178 139/179 135/155 138/174
f 139/179 140/180 136/156 135/155
f 140/180 141/181 137/176 136/156
f 144/182 143/183 147/184 145/185
f 146/186 148/187 143/183 144/182
f 150/188 149/189 153/190 151/191
f 152/192 154/193 149/189 150/188
f 156/89 158/88 157/194 155/195
f 168/196 167/197 159/198 162/199
f 170/200 169/201 164/202 165/203
f 168/204 170/200 165/203 166/205
f 166/205 163/206 167/197 168/204
f 161/207 160/208 169/201 170/200
f 162/199 161/207 170/200 168/196
f 174/209 176/210 182/211 172/212
f 180/213 179/214 175/215 176/216
f 172/212 171/217 173/218 174/209
f 181/219 182/211 176/210 175/215
f 178/220 180/213 176/216 174/209
f 174/209 173/218 177/221 178/220
f 189/222 188/223 184/224 185/225
f 190/226 189/222 185/225 186/227
f 187/228 190/226 186/227 183/229
f 193/230 192/231 188/223 189/222
f 191/232 194/233 190/226 187/228
f 194/233 193/230 189/222 190/226
f 196/234 198/235 202/236 200/237
f 202/238 201/239 205/240 206/241
f 200/237 199/242 195/243 196/234
f 201/239 202/238 198/235 197/244
f 200/237 202/236 206/241 204/245
f 204/245 203/246 199/242 200/237
f 210/247 207/248 215/249 216/250
f 213/251 212/252 217/253 218/254
f 214/255 213/251 218/254 216/256
f 216/256 215/249 211/257 214/255
f 218/254 217/253 208/258 209/259
f 216/250 218/254 209/259 210/247
f 224/260 226/261 230/262 228/263
f 223/264 225/265 229/266 227/267
f 225/265 224/260 228/263 229/266
f 248/268 247/269 235/270 240/271
f 249/272 251/273 238/274 239/275
f 246/276 248/268 240/271 236/277
f 250/278 249/272 239/275 237/279
f 239/275 238/274 247/269 248/268
f 237/279 239/275 248/268 246/276
f 233/280 244/281 249/272 250/278
f 240/271 235/270 241/282 243/283
f 244/281 231/284 251/273 249/272
f 805/285 803/286 267/287 806/288
f 804/289 805/285 806/288 268/290
f 263/291 264/292 266/293 255/294
f 314/295 312/296 315/297 317/298
f 278/299 277/300 274/301 279/302
f 801/303 802/304 805/285 804/289
f 260/305 259/306 256/307 261/308
f 749/309 760/310 755/311 753/312
f 264/292 262/313 253/314 266/293
f 286/315 290/316 271/317 284/318
f 287/319 289/320 277/300 278/299
f 285/321 286/315 284/318 273/322
f 288/323 287/319 278/299 276/324
f 276/324 278/299 279/302 275/325
f 272/326 283/327 287/319 288/323
f 283/327 270/328 289/320 287/319
f 281/329 282/330 286/315 285/321
f 282/330 280/331 290/316 286/315
f 298/332 308/333 291/334 296/335
f 305/336 307/337 294/338 295/339
f 297/340 298/332 296/335 292/341
f 306/342 305/336 295/339 293/343
f 295/339 294/338 303/344 304/345
f 293/343 295/339 304/345 302/346
f 304/345 303/344 299/347 301/348
f 301/348 299/347 308/333 298/332
f 321/349 320/350 312/296 314/295
f 319/351 321/349 314/295 313/352
f 330/353 331/354 332/355 325/356
f 300/357 301/348 298/332 297/340
f 313/352 314/295 317/298 316/358
f 322/359 309/360 320/350 321/349
f 316/358 317/298 318/361 311/362
f 317/298 315/297 310/363 318/361
f 339/364 341/365 327/366 328/367
f 335/368 333/369 329/370 331/371
f 340/372 339/364 328/367 326/373
f 334/374 335/368 331/371 330/353
f 766/375 764/376 767/377 769/378
f 328/367 327/366 337/379 338/380
f 326/373 328/367 338/380 336/381
f 772/382 771/383 766/384 765/385
f 338/380 337/379 333/369 335/368
f 336/381 338/380 335/368 334/374
f 331/354 329/370 324/386 332/355
f 236/277 240/271 243/283 242/387
f 261/308 256/307 262/313 264/292
f 257/388 261/308 264/292 263/291
f 350/389 349/390 346/391 351/392
f 344/393 355/394 350/395 348/396
f 351/392 346/391 352/397 354/398
f 355/394 342/399 349/390 350/395
f 354/398 352/397 343/400 356/401
f 347/402 351/392 354/398 353/403
f 366/404 361/405 367/406 369/407
f 302/346 304/345 301/348 300/357
f 365/408 364/409 361/405 366/404
f 323/410 322/359 321/349 319/351
f 362/411 366/404 369/407 368/412
f 368/412 369/407 371/413 360/414
f 369/407 367/406 358/415 371/413
f 381/416 376/417 382/418 384/419
f 363/420 365/408 366/404 362/411
f 385/421 372/422 379/423 380/424
f 380/424 379/423 376/417 381/416
f 374/425 385/421 380/424 378/426
f 377/427 381/416 384/419 383/428
f 370/429 357/430 364/409 365/408
f 383/428 384/419 386/431 375/432
f 384/419 382/418 373/433 386/431
f 359/434 370/429 365/408 363/420
f 397/435 387/436 392/437 393/438
f 378/426 380/424 381/416 377/427
f 389/439 397/435 393/438 391/440
f 395/441 396/442 398/443 390/444
f 396/442 394/445 388/446 398/443
f 624/447 626/448 407/449 408/450
f 1117/451 1115/452 559/453 561/454
f 621/455 620/456 409/457 418/458
f 1136/459 1135/460 506/461 504/462
f 1037/463 1035/464 472/465 473/466
f 481/467 480/468 484/469 483/470
f 604/471 603/472 415/473 420/474
f 617/475 616/476 407/477 417/478
f 573/479 572/480 568/481 567/482
f 1150/483 1147/484 490/485 489/486
f 500/487 499/488 412/489 413/490
f 588/491 587/492 585/493 584/494
f 556/495 555/496 409/497 410/498
f 1144/499 1146/500 543/501 545/502
f 596/503 595/504 419/505 417/506
f 661/507 660/508 425/509 426/510
f 457/511 456/512 423/513 403/514
f 652/515 653/516 427/517 446/518
f 524/519 523/520 427/521 428/522
f 528/523 530/524 539/525 540/526
f 673/527 674/528 668/529 670/530
f 685/531 684/532 432/533 427/534
f 729/535 728/536 722/537 721/538
f 716/539 718/540 712/541 714/542
f 705/543 704/544 432/545 438/546
f 700/547 699/548 434/549 433/550
f 732/551 733/552 726/553 723/554
f 1028/555 1027/556 577/557 578/558
f 1031/559 1034/560 664/561 666/562
f 1124/563 1126/564 642/565 641/566
f 468/567 467/568 429/569 444/570
f 1134/571 1131/572 512/573 513/574
f 692/575 693/576 424/577 425/578
f 403/579 423/580 451/581 452/582
f 746/583 744/584 448/585 449/586
f 452/582 453/587 413/588 403/579
f 454/589 451/590 423/591 421/592
f 421/593 413/588 453/587 454/589
f 745/594 744/595 453/587 452/582
f 746/596 743/597 451/590 454/589
f 737/598 738/599 461/600 460/601
f 444/602 423/603 456/512 455/604
f 735/605 736/606 457/607 458/608
f 736/606 738/609 456/512 457/607
f 455/610 458/611 445/612 444/613
f 458/608 457/607 403/514 445/612
f 739/614 740/615 466/616 465/617
f 740/615 742/618 463/619 466/616
f 739/620 741/621 467/568 468/567
f 444/622 445/623 469/624 468/567
f 428/625 429/626 467/627 470/628
f 445/623 428/625 470/628 469/624
f 478/629 477/630 421/631 404/632
f 1036/633 1037/463 473/466 471/634
f 477/635 475/636 413/637 421/638
f 414/639 413/637 475/636 476/640
f 1036/641 1038/642 477/630 478/629
f 404/632 414/643 476/640 478/629
f 482/644 479/645 404/646 405/647
f 485/648 486/649 479/645 482/644
f 479/650 480/651 414/652 404/653
f 405/654 415/655 481/656 482/644
f 415/655 414/657 480/651 481/656
f 482/644 481/656 483/470 485/648
f 486/658 484/469 480/468 479/650
f 416/659 422/660 491/661 492/662
f 1147/484 1148/663 487/664 490/485
f 494/665 493/666 414/667 415/668
f 492/662 494/665 415/668 416/659
f 422/669 414/670 493/671 491/661
f 1149/672 1148/673 493/666 494/665
f 1150/674 1149/672 494/665 492/662
f 499/488 501/675 422/676 412/489
f 502/677 500/678 413/679 414/680
f 501/675 502/677 414/681 422/682
f 1141/683 1142/684 501/675 499/488
f 1140/685 1139/686 500/678 502/677
f 1142/684 1140/685 502/677 501/675
f 508/687 509/688 402/689 403/690
f 509/688 510/691 412/692 402/689
f 1135/460 1138/693 505/694 506/461
f 403/695 413/696 507/697 508/698
f 1137/699 1138/700 510/691 509/688
f 413/696 412/692 510/691 507/697
f 445/701 403/702 515/703 516/704
f 1131/572 1132/705 511/706 512/573
f 518/707 517/708 402/709 446/710
f 403/702 402/709 517/708 515/703
f 1133/711 1132/712 517/708 518/707
f 446/710 445/713 516/714 518/707
f 433/715 434/716 536/717 537/718
f 525/719 524/720 428/721 445/722
f 1130/723 1129/724 519/725 522/726
f 526/727 525/719 445/722 446/728
f 1128/729 1127/730 524/720 525/719
f 446/728 427/521 523/520 526/727
f 1130/731 1128/729 525/719 526/727
f 536/732 535/733 533/734 531/735
f 434/736 429/737 535/733 536/732
f 538/738 535/733 429/739 428/740
f 537/718 538/738 428/740 433/715
f 532/741 534/742 538/738 537/718
f 427/743 432/744 527/745 530/746
f 530/746 527/745 541/747 539/525
f 534/742 533/734 535/733 538/738
f 529/748 527/745 432/744 433/749
f 422/750 419/751 547/752 548/753
f 428/754 427/743 530/746 528/523
f 529/755 528/523 540/526 542/756
f 433/757 428/754 528/523 529/755
f 1145/758 1143/759 547/760 550/761
f 412/762 422/763 548/753 549/764
f 549/765 550/766 411/767 412/768
f 550/766 547/760 419/769 411/767
f 1146/500 1143/770 544/771 543/501
f 557/772 556/495 410/498 411/773
f 557/774 558/775 554/776 553/777
f 558/775 555/778 551/779 554/776
f 553/780 552/781 556/495 557/772
f 411/782 419/783 558/775 557/774
f 419/784 409/785 555/496 558/775
f 411/786 401/787 563/788 564/789
f 1118/790 1116/791 562/792 560/793
f 1116/791 1117/451 561/454 562/792
f 566/794 563/788 401/787 402/795
f 402/796 412/797 565/798 566/799
f 412/797 411/786 564/789 565/798
f 574/800 572/801 410/802 400/803
f 567/482 569/804 571/805 573/479
f 570/806 568/481 572/480 574/800
f 411/807 410/802 572/801 573/479
f 571/808 574/800 400/803 401/809
f 573/479 571/805 401/810 411/807
f 410/811 409/812 579/813 580/814
f 1029/815 1028/816 578/817 576/818
f 581/819 582/820 399/821 400/822
f 1027/556 1030/823 575/824 577/557
f 400/822 410/825 580/826 581/819
f 1029/827 1030/828 582/820 581/819
f 409/829 399/830 582/820 579/813
f 417/831 419/832 587/492 588/491
f 589/833 587/492 419/834 422/835
f 590/836 589/837 422/838 416/839
f 588/491 590/836 416/839 417/831
f 586/840 585/493 587/492 589/833
f 583/841 586/842 589/837 590/836
f 972/843 969/844 595/504 596/503
f 597/845 596/503 417/506 418/846
f 971/847 970/848 591/849 593/850
f 595/851 598/852 409/853 419/854
f 418/846 409/855 598/852 597/845
f 969/856 970/857 598/852 595/851
f 602/858 600/859 603/472 604/471
f 605/860 603/861 600/862 601/863
f 606/864 604/471 420/474 406/865
f 606/866 605/860 601/863 599/867
f 416/868 415/869 603/861 605/860
f 406/865 416/868 605/860 606/864
f 611/870 613/871 616/476 617/475
f 618/872 615/873 416/874 406/875
f 614/876 612/877 615/873 618/872
f 625/878 623/879 609/880 610/881
f 617/475 615/882 612/883 611/870
f 616/476 618/872 406/875 407/477
f 417/478 416/884 615/882 617/475
f 408/450 418/885 625/886 624/447
f 624/447 625/886 610/881 608/887
f 623/888 626/889 607/890 609/891
f 408/892 399/893 619/894 622/895
f 417/896 407/449 626/448 623/888
f 418/885 417/897 623/879 625/886
f 620/456 619/894 399/898 409/899
f 628/900 630/901 619/894 620/456
f 622/895 621/902 418/903 408/892
f 627/904 628/900 620/456 621/455
f 629/905 627/906 621/902 622/895
f 443/907 446/908 635/909 636/910
f 1122/911 1121/912 632/913 634/914
f 636/910 638/915 401/916 443/907
f 1121/912 1119/917 631/918 632/913
f 446/919 402/920 637/921 635/922
f 1120/923 1119/924 638/915 636/910
f 402/920 401/916 638/915 637/921
f 442/925 443/926 643/927 646/928
f 401/929 400/930 644/931 645/932
f 1059/933 1060/934 644/935 646/936
f 646/936 644/935 400/930 442/925
f 1123/937 1124/563 641/566 639/938
f 443/939 401/929 645/932 643/940
f 654/941 652/515 446/518 443/942
f 653/943 651/944 426/945 427/946
f 654/947 651/948 650/949 648/950
f 647/951 649/952 653/516 652/515
f 648/950 647/951 652/515 654/947
f 443/942 426/945 651/944 654/941
f 676/953 675/954 662/955 659/956
f 659/956 660/957 678/958 676/953
f 659/956 662/955 443/959 442/960
f 675/954 677/961 661/962 662/955
f 442/960 425/509 660/508 659/956
f 662/955 661/962 426/963 443/959
f 442/964 400/965 680/966 681/967
f 1031/968 1032/969 679/970 681/971
f 1034/560 1033/972 663/973 664/561
f 400/965 399/974 682/975 680/966
f 679/976 682/975 399/974 441/977
f 681/971 679/970 441/977 442/978
f 1032/969 1033/979 682/975 679/970
f 684/980 686/981 431/982 432/983
f 685/984 683/985 658/986 657/987
f 686/981 683/988 426/989 431/982
f 672/990 674/991 430/992 431/993
f 656/994 658/986 683/985 686/981
f 426/995 425/996 673/997 671/998
f 427/534 426/989 683/988 685/531
f 657/987 655/999 684/532 685/984
f 425/996 430/992 674/991 673/997
f 672/1000 671/1001 669/1002 667/1003
f 431/1004 426/995 671/998 672/1000
f 671/1001 673/997 670/530 669/1002
f 691/1005 694/1006 688/1007 687/1008
f 694/1006 693/1009 690/1010 688/1007
f 691/1011 692/575 425/578 442/1012
f 442/1013 441/1014 694/1006 691/1005
f 441/1014 424/577 693/576 694/1006
f 687/1015 689/1016 692/575 691/1011
f 695/1017 696/1018 699/548 700/547
f 702/1019 700/547 433/550 439/1020
f 701/1021 699/548 696/1018 698/1022
f 439/1020 440/1023 701/1024 702/1019
f 697/1025 695/1017 700/547 702/1019
f 440/1026 434/1027 699/548 701/1021
f 433/1028 432/545 704/544 703/1029
f 706/1030 703/1031 709/1032 707/1033
f 706/1034 705/543 438/546 439/1035
f 708/1036 710/1037 704/544 705/543
f 439/1038 433/1028 703/1029 706/1030
f 703/1031 704/544 710/1037 709/1032
f 718/540 715/1039 711/1040 712/541
f 717/1041 715/1042 431/1043 437/1044
f 716/1045 717/1041 437/1044 438/1046
f 438/1047 432/1048 718/540 716/539
f 432/1048 431/1043 715/1042 718/540
f 713/1049 711/1040 715/1039 717/1041
f 728/536 727/1050 720/1051 722/537
f 730/1052 729/535 721/538 719/1053
f 431/1054 430/1055 728/536 729/535
f 437/1056 431/1054 729/535 730/1052
f 430/1055 436/1057 727/1050 728/536
f 731/1058 732/551 723/554 724/1059
f 734/1060 733/1061 435/1062 430/1063
f 424/1064 435/1062 733/1061 732/551
f 731/1065 734/1066 430/1067 425/1068
f 425/1068 424/1064 732/551 731/1065
f 724/1059 725/1069 734/1066 731/1058
f 437/1070 730/1071 727/1057 436/1072
f 455/604 456/512 738/609 737/598
f 459/1073 462/1074 736/606 735/605
f 462/1074 461/600 738/599 736/606
f 468/567 469/624 740/615 739/620
f 469/624 470/628 742/618 740/615
f 465/617 464/1075 741/621 739/614
f 454/589 453/587 744/595 746/596
f 447/1076 448/585 744/584 745/594
f 449/586 450/1077 743/597 746/583
f 755/1078 754/1079 751/1080 756/1081
f 753/312 755/311 756/1081 752/1082
f 348/396 350/395 351/392 347/402
f 756/1081 751/1080 757/1083 759/1084
f 760/310 747/1085 754/1079 755/311
f 242/387 243/283 245/1086 234/1087
f 243/283 241/282 232/1088 245/1086
f 752/1082 756/1081 759/1084 758/1089
f 771/383 773/1090 764/376 766/384
f 265/1091 252/1092 259/306 260/305
f 254/1093 265/1091 260/305 258/1094
f 765/385 766/384 769/378 768/1095
f 759/1084 757/1083 748/1096 761/1097
f 279/302 274/301 280/331 282/330
f 275/325 279/302 282/330 281/329
f 758/1089 759/1084 761/1097 750/1098
f 782/1099 781/1100 778/1101 783/1102
f 776/1103 787/1104 782/1105 780/1106
f 783/1102 778/1101 784/1107 786/1108
f 787/1104 774/1109 781/1100 782/1105
f 768/1095 769/378 770/1110 763/1111
f 779/1112 783/1102 786/1108 785/1113
f 780/1106 782/1105 783/1102 779/1112
f 785/1113 786/1108 788/1114 777/1115
f 769/378 767/377 762/1116 770/1110
f 786/1108 784/1107 775/1117 788/1114
f 353/403 354/398 356/401 345/1118
f 793/1119 791/1120 794/1121 796/1122
f 799/1123 798/1124 793/1125 792/1126
f 798/1124 800/1127 791/1120 793/1125
f 792/1126 793/1125 796/1122 795/1128
f 795/1128 796/1122 797/1129 790/1130
f 796/1122 794/1121 789/1131 797/1129
f 807/1132 809/1133 269/1134 802/1135
f 808/1136 807/1132 802/1135 801/303
f 258/1094 260/305 261/308 257/388
f 802/1135 269/1134 803/286 805/285
f 814/1137 812/1138 815/1139 817/1140
f 820/1141 819/1142 814/1143 813/1144
f 819/1142 821/1145 812/1138 814/1143
f 813/1144 814/1143 817/1140 816/1146
f 816/1146 817/1140 818/1147 811/1148
f 817/1140 815/1139 810/1149 818/1147
f 831/1150 826/1151 832/1152 834/1153
f 835/1154 822/1155 829/1156 830/1157
f 830/1157 829/1156 826/1151 831/1150
f 824/1158 835/1154 830/1157 828/1159
f 827/1160 831/1150 834/1153 833/1161
f 833/1161 834/1153 836/1162 825/1163
f 834/1153 832/1152 823/1164 836/1162
f 828/1159 830/1157 831/1150 827/1160
f 846/1165 841/1166 847/1167 849/1168
f 850/1169 837/1170 844/1171 845/1172
f 839/1173 850/1169 845/1172 843/1174
f 842/1175 846/1165 849/1168 848/1176
f 843/1174 845/1172 846/1165 842/1175
f 848/1176 849/1168 851/1177 840/1178
f 849/1168 847/1167 838/1179 851/1177
f 845/1172 844/1171 841/1166 846/1165
f 860/1180 859/1181 856/1182 861/1183
f 865/1184 866/1185 853/1186 863/1187
f 854/1188 862/1189 860/1190 858/1191
f 864/1192 865/1184 863/1187 855/1193
f 858/1191 860/1190 861/1183 857/1194
f 872/1195 876/1196 880/1197 879/1198
f 862/1189 852/1199 859/1181 860/1190
f 861/1183 856/1182 866/1185 865/1184
f 875/1200 874/1201 871/1202 876/1203
f 880/1204 884/1205 868/1206 878/1207
f 881/1208 883/1209 874/1201 875/1200
f 879/1198 880/1197 878/1207 870/1210
f 882/1211 881/1208 875/1200 873/1212
f 873/1212 875/1200 876/1203 872/1195
f 869/1213 877/1214 881/1208 882/1211
f 877/1214 867/1215 883/1209 881/1208
f 876/1196 871/1202 884/1205 880/1197
f 857/1194 861/1183 865/1184 864/1192
f 893/1216 892/1217 889/1218 894/1219
f 901/1220 905/1221 886/1222 899/1223
f 902/1224 904/1225 892/1217 893/1216
f 900/1226 901/1220 899/1223 888/1227
f 903/1228 902/1224 893/1216 891/1229
f 891/1229 893/1216 894/1219 890/1230
f 887/1231 898/1232 902/1224 903/1228
f 898/1232 885/1233 904/1225 902/1224
f 896/1234 897/1235 901/1220 900/1226
f 897/1235 895/1236 905/1221 901/1220
f 894/1219 889/1218 895/1236 897/1235
f 890/1230 894/1219 897/1235 896/1234
f 396/442 393/438 392/437 394/445
f 393/438 396/442 395/441 391/440
f 914/1237 913/1238 910/1239 915/1240
f 922/1241 926/1242 907/1243 920/1244
f 923/1245 925/1246 913/1238 914/1237
f 921/1247 922/1241 920/1244 909/1248
f 924/1249 923/1245 914/1237 912/1250
f 912/1250 914/1237 915/1240 911/1251
f 908/1252 919/1253 923/1245 924/1249
f 919/1253 906/1254 925/1246 923/1245
f 917/1255 918/1256 922/1241 921/1247
f 918/1256 916/1257 926/1242 922/1241
f 915/1240 910/1239 916/1257 918/1256
f 911/1251 915/1240 918/1256 917/1255
f 935/1258 934/1259 931/1260 936/1261
f 942/1262 944/1263 934/1259 935/1258
f 943/1264 942/1262 935/1258 933/1265
f 933/1265 935/1258 936/1261 932/1266
f 929/1267 940/1268 942/1262 943/1264
f 940/1268 927/1269 944/1263 942/1262
f 938/1270 939/1271 941/1272 930/1273
f 936/1261 931/1260 937/1274 939/1275
f 932/1266 936/1261 939/1275 938/1270
f 939/1275 937/1274 928/1276 941/1272
f 955/1277 945/1278 950/1279 951/1280
f 947/1281 955/1277 951/1280 949/1282
f 1024/1283 1026/1284 956/1285 948/1286
f 1026/1284 1025/1287 946/1288 956/1285
f 954/1289 951/1280 950/1279 952/1290
f 951/1280 954/1289 953/1291 949/1282
f 967/1292 957/1293 962/1294 963/1295
f 959/1296 967/1292 963/1295 961/1297
f 965/1298 966/1299 968/1300 960/1301
f 966/1299 964/1302 958/1303 968/1300
f 973/1304 963/1295 962/1294 974/1305
f 973/1306 966/1299 965/1298 975/1307
f 594/1308 591/849 970/848 969/856
f 597/845 598/852 970/857 971/847
f 592/1309 594/1310 969/844 972/843
f 966/1299 973/1306 974/1305 964/1302
f 963/1295 973/1304 975/1307 961/1297
f 982/1311 983/1312 984/1313 977/1314
f 991/1315 993/1316 979/1317 980/1318
f 987/1319 985/1320 981/1321 983/1322
f 992/1323 991/1315 980/1318 978/1324
f 986/1325 987/1319 983/1322 982/1311
f 980/1318 979/1317 989/1326 990/1327
f 978/1324 980/1318 990/1327 988/1328
f 990/1327 989/1326 985/1320 987/1319
f 988/1328 990/1327 987/1319 986/1325
f 983/1312 981/1321 976/1329 984/1313
f 1004/1330 994/1331 999/1332 1000/1333
f 996/1334 1004/1330 1000/1333 998/1335
f 1020/1336 1018/1337 1005/1338 997/1339
f 1018/1337 1019/1340 995/1341 1005/1338
f 1003/1342 1000/1333 999/1332 1001/1343
f 1000/1333 1003/1342 1002/1344 998/1335
f 1016/1345 1006/1346 1011/1347 1012/1348
f 1008/1349 1016/1345 1012/1348 1010/1350
f 1021/1351 1023/1352 1017/1353 1009/1354
f 1023/1352 1022/1355 1007/1356 1017/1353
f 1015/1357 1012/1348 1011/1347 1013/1358
f 1012/1348 1015/1357 1014/1359 1010/1350
f 1006/1360 1016/1349 1008/1361 1151/1362
f 1002/1344 1003/1342 1018/1337 1020/1336
f 1003/1342 1001/1343 1019/1340 1018/1337
f 1014/1359 1015/1357 1023/1352 1021/1351
f 1015/1357 1013/1358 1022/1355 1023/1352
f 954/1289 952/1290 1025/1287 1026/1284
f 953/1291 954/1289 1026/1284 1024/1283
f 580/814 579/813 1027/556 1028/555
f 581/819 580/826 1028/816 1029/827
f 579/813 582/820 1030/828 1027/556
f 576/818 575/824 1030/823 1029/815
f 681/967 680/966 1034/560 1031/559
f 666/1363 665/1364 1032/969 1031/968
f 680/966 682/975 1033/979 1034/560
f 476/640 475/636 1035/464 1037/463
f 478/629 476/640 1037/463 1036/641
f 471/634 474/1365 1038/642 1036/633
f 1044/1366 1048/1367 1052/1368 1051/1369
f 1047/1370 1046/1371 1043/1372 1048/1373
f 1052/1374 1056/1375 1040/1376 1050/1377
f 1053/1378 1055/1379 1046/1371 1047/1370
f 1051/1369 1052/1368 1050/1377 1042/1380
f 1054/1381 1053/1378 1047/1370 1045/1382
f 1045/1382 1047/1370 1048/1373 1044/1366
f 1041/1383 1049/1384 1053/1378 1054/1381
f 1049/1384 1039/1385 1055/1379 1053/1378
f 1048/1367 1043/1372 1056/1375 1052/1368
f 645/932 644/931 1060/934 1058/1386
f 1125/1387 1126/1388 1060/934 1059/933
f 643/940 645/932 1058/1386 1057/1389
f 1067/1390 1068/1391 1069/1392 1062/1393
f 1076/1394 1078/1395 1064/1396 1065/1397
f 1072/1398 1070/1399 1066/1400 1068/1401
f 1077/1402 1076/1394 1065/1397 1063/1403
f 1071/1404 1072/1398 1068/1401 1067/1390
f 1065/1397 1064/1396 1074/1405 1075/1406
f 1063/1403 1065/1397 1075/1406 1073/1407
f 1075/1406 1074/1405 1070/1399 1072/1398
f 1073/1407 1075/1406 1072/1398 1071/1404
f 1068/1391 1066/1400 1061/1408 1069/1392
f 1085/1409 1086/1410 1087/1411 1080/1412
f 1094/1413 1096/1414 1082/1415 1083/1416
f 1090/1417 1088/1418 1084/1419 1086/1420
f 1095/1421 1094/1413 1083/1416 1081/1422
f 1089/1423 1090/1417 1086/1420 1085/1409
f 1083/1416 1082/1415 1092/1424 1093/1425
f 1081/1422 1083/1416 1093/1425 1091/1426
f 1093/1425 1092/1424 1088/1418 1090/1417
f 1091/1426 1093/1425 1090/1417 1089/1423
f 1086/1410 1084/1419 1079/1427 1087/1411
f 1105/1428 1104/1429 1101/1430 1106/1431
f 1110/1432 1114/1433 1098/1434 1108/1435
f 1111/1436 1113/1437 1104/1429 1105/1428
f 1109/1438 1110/1432 1108/1435 1100/1439
f 1112/1440 1111/1436 1105/1428 1103/1441
f 1103/1441 1105/1428 1106/1431 1102/1442
f 1099/1443 1107/1444 1111/1436 1112/1440
f 1107/1444 1097/1445 1113/1437 1111/1436
f 1102/1442 1106/1431 1110/1432 1109/1438
f 1106/1431 1101/1430 1114/1433 1110/1432
f 564/789 563/788 1115/452 1117/451
f 566/799 565/798 1116/791 1118/790
f 565/798 564/789 1117/451 1116/791
f 635/922 637/921 1121/912 1122/911
f 633/1446 631/918 1119/917 1120/923
f 637/921 638/915 1119/924 1121/912
f 1058/1386 1060/934 1126/1388 1124/563
f 1057/1389 1058/1386 1124/563 1123/937
f 640/1447 642/565 1126/564 1125/1387
f 526/727 523/520 1129/724 1130/731
f 521/1448 520/1449 1127/730 1128/729
f 522/726 521/1448 1128/729 1130/723
f 516/704 515/703 1131/572 1134/571
f 515/703 517/708 1132/712 1131/572
f 514/1450 511/706 1132/705 1133/711
f 508/698 507/697 1135/460 1136/459
f 507/697 510/691 1138/700 1135/460
f 503/1451 505/694 1138/693 1137/699
f 495/1452 498/1453 1142/684 1141/683
f 497/1454 496/1455 1139/686 1140/685
f 498/1453 497/1454 1140/685 1142/684
f 549/764 548/753 1146/500 1144/499
f 546/1456 544/771 1143/770 1145/758
f 548/753 547/752 1143/759 1146/500
f 492/662 491/661 1147/484 1150/674
f 491/661 493/671 1148/663 1147/484
f 488/1457 487/1458 1148/673 1149/672