# Exported from MakeClothes (TM)
# author JALdMIC
# license AGPL3 (see also http://www.makehuman.org/doc/node/external_tools_license.html)
# homepage http://www.makehuman.org/
v -0.0356 16.5528 0.4924
v -0.1749 16.5343 0.4785
v -0.2669 16.5095 0.4437
v -0.0276 16.4526 0.9584
v -0.1697 16.4339 0.9582
v -0.2597 16.4037 0.9549
v 0.0041 16.2465 1.2363
v -0.1213 16.2144 1.2474
v -0.2137 16.1848 1.2483
v 0.0645 16.0638 1.3592
v -0.0558 16.0143 1.3850
v -0.1319 15.9663 1.3984
v 0.1552 15.9334 1.4091
v 0.0535 15.8533 1.4448
v -0.0148 15.7956 1.4609
v 0.2585 15.8351 1.4143
v 0.1932 15.7398 1.4597
v 0.1342 15.6703 1.4754
v 0.3711 15.7572 1.3837
v 0.3393 15.6505 1.4312
v 0.2849 15.5611 1.4358
v 0.4811 15.6840 1.3193
v 0.4570 15.5916 1.3637
v 0.4038 15.4967 1.3578
v 0.5580 15.6272 1.2291
v 0.5397 15.5357 1.2623
v 0.4991 15.4488 1.2715
v 0.6120 15.5959 1.1209
v 0.6113 15.4767 1.1398
v 0.6008 15.4266 1.1596
v 0.6499 15.5779 0.9957
v 0.6614 15.4530 0.9972
v 0.6645 15.4104 0.9927
v 0.6755 15.5868 0.8383
v 0.6859 15.4565 0.8261
v 0.6900 15.4121 0.8139
v 0.7139 15.6180 0.6619
v 0.7236 15.4847 0.6435
v 0.7233 15.4386 0.6526
v 0.7395 15.6524 0.5234
v 0.8025 15.5041 0.4926
v 0.7276 15.5090 0.5071
v 0.7475 15.6581 0.3713
v 0.7649 15.5261 0.3799
v 0.7412 15.4802 0.3880
v 0.7365 15.6460 0.2263
v 0.8103 15.4692 0.3060
v 0.7390 15.4576 0.2662
v 0.7087 15.6101 0.0951
v 0.7148 15.4814 0.1215
v 0.7123 15.4213 0.1333
v 0.6582 15.5802 -0.0545
v 0.6645 15.4610 -0.0205
v 0.6571 15.3957 -0.0131
v 0.6006 15.5569 -0.1729
v 0.6032 15.4374 -0.1376
v 0.5928 15.3674 -0.1271
v 0.5188 15.5254 -0.2757
v 0.5244 15.3999 -0.2345
v 0.5365 15.3451 -0.1928
v 0.4010 15.4701 -0.3560
v 0.4375 15.3485 -0.2961
v 0.4582 15.3011 -0.2598
v 0.2747 15.3675 -0.3984
v 0.3182 15.2781 -0.3470
v 0.3288 15.2316 -0.3117
v 0.1079 15.2819 -0.4314
v 0.1351 15.2063 -0.3762
v 0.1409 15.1627 -0.3444
v -0.0508 15.2465 -0.4180
v -0.0476 15.1728 -0.3764
v -0.0592 15.1370 -0.3471
v 0.0578 16.5494 0.4729
v -0.0718 16.5471 0.4600
v -0.1545 16.5354 0.4246
v 0.0845 16.4818 0.8630
v -0.0446 16.4797 0.8774
v -0.1236 16.4709 0.8782
v 0.1172 16.3413 1.1158
v 0.0043 16.3297 1.1535
v -0.0665 16.3075 1.1686
v 0.1967 16.1787 1.2615
v 0.0797 16.1625 1.2978
v 0.0130 16.1302 1.3227
v 0.2591 16.0653 1.3158
v 0.1646 16.0117 1.3746
v 0.0968 15.9752 1.3991
v 0.3236 15.9671 1.3315
v 0.2660 15.8783 1.3971
v 0.2126 15.8476 1.4250
v 0.4180 15.8741 1.3046
v 0.3825 15.7737 1.3698
v 0.3545 15.7483 1.3973
v 0.5031 15.8055 1.2395
v 0.4919 15.6934 1.3031
v 0.4808 15.6768 1.3222
v 0.5637 15.7527 1.1679
v 0.5653 15.6458 1.2112
v 0.5672 15.6142 1.2144
v 0.6088 15.7243 1.0844
v 0.6140 15.6166 1.1091
v 0.6154 15.5885 1.1139
v 0.6381 15.7247 0.9711
v 0.6494 15.5974 0.9866
v 0.6540 15.5693 0.9891
v 0.6735 15.7177 0.8183
v 0.6787 15.5936 0.8164
v 0.6813 15.5613 0.8108
v 0.7111 15.7364 0.6567
v 0.7205 15.6135 0.6364
v 0.7201 15.5775 0.6422
v 0.7330 15.7699 0.4943
v 0.7439 15.6512 0.4745
v 0.7452 15.6132 0.4696
v 0.7356 15.7800 0.3348
v 0.7452 15.6622 0.3422
v 0.7461 15.6254 0.3337
v 0.7243 15.7676 0.1773
v 0.7332 15.6455 0.1989
v 0.7356 15.6076 0.2107
v 0.6859 15.7527 0.0350
v 0.6938 15.6288 0.0465
v 0.6961 15.5842 0.0539
v 0.6234 15.7365 -0.1295
v 0.6367 15.6202 -0.1122
v 0.6420 15.5617 -0.0926
v 0.5424 15.6984 -0.2697
v 0.5544 15.5903 -0.2432
v 0.5663 15.5250 -0.2158
v 0.4220 15.6509 -0.3743
v 0.4490 15.5412 -0.3439
v 0.4663 15.4769 -0.3117
v 0.2994 15.5764 -0.4388
v 0.3376 15.4644 -0.4015
v 0.3607 15.4124 -0.3724
v 0.1721 15.4675 -0.4653
v 0.2274 15.3788 -0.4239
v 0.2486 15.3409 -0.4013
v 0.0633 15.3974 -0.4712
v 0.0987 15.2928 -0.4377
v 0.1092 15.2506 -0.4112
v -0.0403 15.3635 -0.4651
v -0.0496 15.2722 -0.4341
v -0.0615 15.2273 -0.4044
v 0.3925 16.4590 0.4217
v 0.2551 16.5132 0.4313
v 0.1414 16.5379 0.4189
v 0.4240 16.3729 0.8082
v 0.2996 16.4263 0.8625
v 0.1882 16.4555 0.8916
v 0.4394 16.2763 0.9840
v 0.3530 16.2972 1.0442
v 0.2550 16.2903 1.1177
v 0.4883 16.1716 1.0321
v 0.4186 16.1641 1.1350
v 0.3275 16.1540 1.2180
v 0.5295 16.0904 1.0528
v 0.4475 16.0748 1.1749
v 0.3860 16.0495 1.2485
v 0.5390 16.0668 1.0595
v 0.4990 15.9866 1.1693
v 0.4372 15.9562 1.2511
v 0.5599 16.0225 1.0422
v 0.5483 15.9107 1.1248
v 0.5305 15.8256 1.1913
v 0.5957 15.9958 0.9766
v 0.6136 15.8648 0.9970
v 0.6240 15.7677 1.0124
v 0.6374 16.0251 0.8234
v 0.6652 15.8812 0.8101
v 0.6729 15.7894 0.8038
v 0.6752 16.0627 0.6126
v 0.7043 15.9253 0.5979
v 0.7164 15.8321 0.5850
v 0.6922 16.0874 0.4064
v 0.7186 15.9429 0.3933
v 0.7290 15.8564 0.3871
v 0.6801 16.0705 0.2239
v 0.7086 15.9419 0.2196
v 0.7234 15.8558 0.2284
v 0.6556 16.0723 0.0668
v 0.6831 15.9292 0.0751
v 0.6955 15.8445 0.0800
v 0.6080 16.0247 -0.0688
v 0.6296 15.9121 -0.0719
v 0.6458 15.8257 -0.0613
v 0.5258 16.0156 -0.2118
v 0.5658 15.8783 -0.2051
v 0.5865 15.8034 -0.1892
v 0.4371 15.9728 -0.3161
v 0.4801 15.8549 -0.3095
v 0.5059 15.7783 -0.2951
v 0.3472 15.9285 -0.3970
v 0.3890 15.8067 -0.3919
v 0.4245 15.7361 -0.3747
v 0.2190 15.8295 -0.4620
v 0.2853 15.7308 -0.4472
v 0.3193 15.6692 -0.4341
v 0.0654 15.7212 -0.5097
v 0.1508 15.6175 -0.4879
v 0.1854 15.5597 -0.4742
v -0.0425 15.6205 -0.5074
v -0.0063 15.5054 -0.4994
v 0.0313 15.4576 -0.4904
v 0.2175 16.5474 0.4217
v 0.1341 16.5469 0.4358
v 0.0160 16.5499 0.4349
v 0.2309 16.5219 0.6214
v 0.1443 16.5298 0.6249
v 0.0210 16.5421 0.6118
v 0.2316 16.4685 0.8421
v 0.1545 16.4751 0.8546
v 0.0402 16.4849 0.8636
v 0.2377 16.3649 1.0303
v 0.1752 16.3693 1.0559
v 0.0774 16.3652 1.1001
v 0.2982 16.2390 1.1584
v 0.2364 16.2382 1.1864
v 0.1373 16.2277 1.2308
v 0.3353 16.1376 1.2256
v 0.2914 16.1191 1.2622
v 0.2196 16.0975 1.3122
v 0.4200 16.0246 1.2378
v 0.3747 16.0024 1.2819
v 0.3152 15.9663 1.3394
v 0.4743 15.9464 1.2174
v 0.4466 15.9095 1.2614
v 0.4060 15.8720 1.3154
v 0.5276 15.8804 1.1723
v 0.5171 15.8311 1.2084
v 0.4986 15.8018 1.2457
v 0.5834 15.8159 1.0969
v 0.5716 15.7650 1.1168
v 0.5679 15.7188 1.1453
v 0.6327 15.7859 0.9760
v 0.6354 15.7340 0.9833
v 0.6406 15.6968 0.9710
v 0.6634 15.8018 0.8437
v 0.6675 15.7425 0.8390
v 0.6718 15.6867 0.8317
v 0.6992 15.8220 0.6876
v 0.7034 15.7648 0.6819
v 0.7045 15.7078 0.6874
v 0.7205 15.8504 0.5387
v 0.7270 15.7939 0.5311
v 0.7316 15.7450 0.5312
v 0.7275 15.8749 0.3948
v 0.7332 15.8155 0.3886
v 0.7383 15.7622 0.3815
v 0.7241 15.8662 0.2439
v 0.7281 15.8140 0.2460
v 0.7324 15.7635 0.2532
v 0.6991 15.8655 0.1021
v 0.7060 15.8087 0.1065
v 0.7115 15.7439 0.1085
v 0.6498 15.8504 -0.0451
v 0.6564 15.7931 -0.0395
v 0.6662 15.7283 -0.0241
v 0.5790 15.8314 -0.1983
v 0.5923 15.7720 -0.1833
v 0.6076 15.7082 -0.1653
v 0.4977 15.7936 -0.3011
v 0.5150 15.7390 -0.2905
v 0.5279 15.6692 -0.2816
v 0.3978 15.7449 -0.3928
v 0.4206 15.6902 -0.3762
v 0.4624 15.6348 -0.3423
v 0.2670 15.6496 -0.4568
v 0.3000 15.5931 -0.4388
v 0.3205 15.5448 -0.4249
v 0.1172 15.5108 -0.4847
v 0.1431 15.4697 -0.4718
v 0.1608 15.4252 -0.4588
v -0.0596 15.4093 -0.4819
v -0.0504 15.3625 -0.4705
v -0.0351 15.3289 -0.4655
v 0.2555 15.8503 -0.4473
v 0.1302 15.8841 -0.4766
v 0.0103 15.8798 -0.5022
v 0.2900 16.0754 -0.3691
v 0.1593 16.0988 -0.3951
v 0.0516 16.1208 -0.4017
v 0.3165 16.2746 -0.2103
v 0.1981 16.3059 -0.2159
v 0.0870 16.3265 -0.2169
v 0.3560 16.4029 0.0439
v 0.2274 16.4476 0.0432
v 0.1180 16.4705 0.0458
v 0.3681 16.4555 0.2640
v 0.2394 16.5042 0.2633
v 0.1325 16.5270 0.2780
v 0.3788 16.4716 0.5003
v 0.2465 16.5201 0.4957
v 0.1294 16.5453 0.4972
v 0.1695 15.3371 -0.4286
v 0.0353 15.3314 -0.4573
v -0.0729 15.3072 -0.4453
v 0.1782 15.7412 -0.4802
v 0.0276 15.7454 -0.5184
v -0.0956 15.7319 -0.5015
v 0.1582 16.0848 -0.4032
v 0.0100 16.0941 -0.4225
v -0.0966 16.0985 -0.4067
v 0.1729 16.2311 -0.3047
v 0.0198 16.2498 -0.3184
v -0.0873 16.2492 -0.3036
v 0.1883 16.3823 -0.1363
v 0.0324 16.4040 -0.1424
v -0.0849 16.3924 -0.1451
v 0.1857 16.4736 0.0801
v 0.0398 16.4874 0.0711
v -0.0832 16.4847 0.0741
v 0.1767 16.5214 0.2760
v 0.0393 16.5352 0.2744
v -0.0816 16.5319 0.2818
v 0.1806 16.5343 0.4943
v 0.0400 16.5524 0.4922
v -0.0815 16.5492 0.4949
v 0.4282 16.0423 1.2177
v 0.5193 15.9496 1.1638
v 0.5912 15.9179 1.0344
v 0.5403 16.1531 0.9688
v 0.5815 16.0628 0.9526
v 0.6235 15.9711 0.9189
v 0.5789 16.2586 0.6992
v 0.6393 16.1208 0.6846
v 0.6681 16.0391 0.6776
v 0.6082 16.2578 0.4596
v 0.6579 16.1491 0.4459
v 0.6936 16.0663 0.4389
v 0.5944 16.2569 0.2583
v 0.6485 16.1607 0.2466
v 0.6841 16.0718 0.2581
v 0.5631 16.2432 0.0960
v 0.6435 16.1262 0.0965
v 0.6685 16.0603 0.1190
v 0.5369 16.2320 -0.0324
v 0.6071 16.1264 0.0015
v 0.6364 16.0381 -0.0011
v 0.5049 16.2133 -0.0919
v 0.5507 16.1015 -0.1122
v 0.5861 16.0166 -0.1113
v 0.4379 16.1904 -0.1955
v 0.5095 16.0658 -0.2139
v 0.5267 15.9961 -0.2179
v 0.3842 16.1477 -0.2886
v 0.4211 16.0656 -0.2976
v 0.4502 15.9752 -0.3031
v 0.2855 16.1215 -0.3508
v 0.3461 16.0072 -0.3689
v 0.3876 15.9316 -0.3730
v 0.1594 16.0081 -0.4455
v 0.2434 15.9467 -0.4350
v 0.2871 15.8778 -0.4302
v 0.0188 15.9289 -0.4867
v 0.1292 15.8322 -0.4854
v 0.1694 15.7793 -0.4817
v -0.0477 15.8318 -0.5051
v -0.0064 15.7517 -0.5222
v 0.0251 15.6799 -0.5143
v 0.3576 16.2280 1.1219
v 0.4546 16.1648 1.0923
v 0.5219 16.0892 1.0650
v 0.4039 16.3462 0.9135
v 0.4926 16.2622 0.9072
v 0.5556 16.1839 0.8993
v 0.4424 16.3941 0.7212
v 0.5269 16.3113 0.7179
v 0.5881 16.2259 0.7246
v 0.4639 16.4139 0.5078
v 0.5488 16.3278 0.5181
v 0.6112 16.2421 0.5305
v 0.4562 16.4057 0.2887
v 0.5465 16.3229 0.2909
v 0.6052 16.2431 0.3055
v 0.4347 16.3704 0.0709
v 0.5150 16.2895 0.0544
v 0.5704 16.2185 0.0593
v 0.3306 16.3309 -0.1418
v 0.4312 16.2276 -0.1709
v 0.4675 16.1581 -0.1867
v 0.1791 16.2089 -0.3268
v 0.2661 16.1397 -0.3461
v 0.2874 16.0568 -0.3779
v 0.2217 16.4651 0.8365
v 0.3392 16.4063 0.8674
v 0.4441 16.3238 0.9043
v 0.2972 16.4970 0.5437
v 0.4168 16.4380 0.5563
v 0.5177 16.3551 0.5723
v 0.3039 16.4851 0.2776
v 0.4220 16.4311 0.2697
v 0.5262 16.3502 0.2728
v 0.2695 16.4464 0.0671
v 0.3829 16.3883 0.0421
v 0.4778 16.3135 0.0207
v 0.2014 16.3974 -0.1010
v 0.3047 16.3676 -0.1166
v 0.3961 16.2631 -0.1631
v 0.1213 16.3568 -0.1772
v 0.2136 16.2798 -0.2393
v 0.3057 16.1940 -0.3015
v 0.0527 15.3114 -0.4494
v 0.0084 15.2242 -0.4150
v -0.0146 15.1264 -0.3494
v -0.0288 15.3509 -0.4634
v -0.0757 15.2708 -0.4295
v -0.1012 15.1612 -0.3546
v -0.1678 15.4115 -0.4523
v -0.1962 15.2929 -0.4065
v -0.2108 15.1964 -0.3468
v -0.3907 15.4793 -0.3706
v -0.4072 15.3773 -0.3297
v -0.4116 15.2565 -0.2780
v -0.5450 15.5475 -0.2520
v -0.5518 15.4547 -0.2142
v -0.5640 15.3370 -0.1500
v -0.6314 15.6216 -0.1245
v -0.6433 15.5213 -0.0847
v -0.6555 15.4003 -0.0181
v -0.6863 15.7042 0.0295
v -0.6995 15.6189 0.0652
v -0.7155 15.4877 0.1229
v -0.7291 15.8283 0.2482
v -0.7331 15.7543 0.2540
v -0.7056 15.5892 0.3118
v -0.7244 15.8519 0.5310
v -0.7282 15.7914 0.5261
v -0.7012 15.6413 0.5071
v -0.6820 15.7858 0.7696
v -0.6831 15.7355 0.7763
v -0.6799 15.6065 0.8088
v -0.6525 15.8585 0.8710
v -0.6448 15.8111 0.9259
v -0.6283 15.7108 1.0181
v -0.6001 15.9961 0.9643
v -0.5800 15.9721 1.0269
v -0.5378 15.9278 1.1382
v -0.5636 16.1114 0.9596
v -0.5313 16.1185 1.0198
v -0.4640 16.1135 1.1242
v -0.4805 16.2726 0.9149
v -0.4494 16.2823 0.9601
v -0.3807 16.2818 1.0386
v -0.3747 16.3925 0.8408
v -0.3390 16.3987 0.8893
v -0.2730 16.3901 0.9671
v -0.2537 16.4783 0.7630
v -0.2364 16.4709 0.8048
v -0.1823 16.4505 0.9096
v -0.0129 15.5690 -0.5060
v -0.0362 15.4450 -0.4879
v -0.0425 15.3175 -0.4525
v -0.0970 15.5776 -0.4937
v -0.1209 15.4437 -0.4765
v -0.1144 15.3304 -0.4454
v -0.1824 15.5992 -0.4789
v -0.2118 15.4706 -0.4538
v -0.2254 15.3606 -0.4186
v -0.3354 15.6741 -0.4278
v -0.3643 15.5672 -0.4062
v -0.3960 15.4391 -0.3578
v -0.4654 15.7571 -0.3397
v -0.5077 15.6529 -0.2997
v -0.5418 15.5282 -0.2557
v -0.5777 15.8506 -0.1963
v -0.6085 15.7344 -0.1598
v -0.6354 15.6171 -0.1147
v -0.6540 15.9389 -0.0040
v -0.6794 15.8403 0.0290
v -0.7015 15.7009 0.0727
v -0.6948 16.0316 0.2458
v -0.7124 15.9340 0.2542
v -0.7314 15.8029 0.2764
v -0.6938 16.0415 0.5177
v -0.7122 15.9541 0.5056
v -0.7285 15.8203 0.4903
v -0.6731 15.9852 0.7054
v -0.6879 15.9062 0.7066
v -0.6997 15.7657 0.7033
v -0.6558 16.0047 0.7669
v -0.6585 15.9290 0.8064
v -0.6543 15.8168 0.8821
v -0.6423 16.0243 0.8068
v -0.6278 15.9876 0.8893
v -0.5955 15.9416 1.0114
v -0.6048 16.1601 0.7657
v -0.5630 16.2021 0.8611
v -0.5103 16.1876 0.9791
v -0.4693 16.3865 0.6670
v -0.4394 16.3898 0.7378
v -0.3542 16.4004 0.8565
v -0.3842 16.4531 0.5880
v -0.3432 16.4644 0.6511
v -0.2511 16.4873 0.7392
v -0.2983 16.5018 0.5076
v -0.2513 16.5116 0.5650
v -0.1857 16.5157 0.6710
v 0.0057 15.3212 -0.4590
v -0.1149 15.3378 -0.4474
v -0.2239 15.3322 -0.4097
v 0.0064 15.7312 -0.5209
v -0.1209 15.7261 -0.4947
v -0.2658 15.7187 -0.4553
v -0.0053 16.0901 -0.4254
v -0.1334 16.0741 -0.4138
v -0.2903 16.0779 -0.3679
v 0.0060 16.2377 -0.3352
v -0.1246 16.2259 -0.3212
v -0.2924 16.2171 -0.2923
v 0.0060 16.3776 -0.1774
v -0.1219 16.3753 -0.1568
v -0.2726 16.3550 -0.1427
v 0.0073 16.4769 0.0344
v -0.1148 16.4693 0.0415
v -0.2873 16.4357 0.0489
v 0.0082 16.5353 0.2397
v -0.1219 16.5245 0.2332
v -0.2766 16.4930 0.2415
v 0.0320 16.5529 0.4618
v -0.1222 16.5436 0.4685
v -0.2584 16.5144 0.4677
v 0.0338 16.5508 0.5415
v -0.1271 16.5424 0.5436
v -0.2579 16.5134 0.5399
v 0.0350 16.5440 0.6009
v -0.1143 16.5360 0.6068
v -0.2393 16.5114 0.6013
v 0.0105 15.7936 -0.5241
v -0.0064 15.6761 -0.5171
v -0.0168 15.5591 -0.5042
v -0.0579 15.7939 -0.5113
v -0.0884 15.6866 -0.5037
v -0.1235 15.5783 -0.4902
v -0.1697 15.8469 -0.4732
v -0.2211 15.7240 -0.4694
v -0.2446 15.6075 -0.4650
v -0.3106 15.9351 -0.4114
v -0.3702 15.8054 -0.4055
v -0.4015 15.7003 -0.3892
v -0.4229 16.0157 -0.3138
v -0.4772 15.8986 -0.3052
v -0.5286 15.7833 -0.2699
v -0.5252 16.1056 -0.1555
v -0.5868 15.9862 -0.1317
v -0.6194 15.8783 -0.1036
v -0.6027 16.1720 0.0568
v -0.6508 16.0892 0.0610
v -0.6858 15.9576 0.0991
v -0.6226 16.2257 0.3400
v -0.6621 16.1379 0.3250
v -0.7017 16.0334 0.3250
v -0.6107 16.2213 0.6023
v -0.6597 16.1108 0.5920
v -0.6935 16.0040 0.5690
v -0.5836 16.1710 0.8361
v -0.6261 16.0700 0.8108
v -0.6591 15.9511 0.7895
v -0.2537 15.8851 -0.4421
v -0.3775 15.8723 -0.3919
v -0.4688 15.8355 -0.3240
v -0.2550 15.9789 -0.4226
v -0.3906 15.9647 -0.3619
v -0.4771 15.9460 -0.2896
v -0.2784 16.1291 -0.3486
v -0.3893 16.1116 -0.3040
v -0.4809 16.0726 -0.2426
v -0.2712 16.2230 -0.2829
v -0.3842 16.1926 -0.2426
v -0.4737 16.1496 -0.1864
v -0.2745 16.3543 -0.1430
v -0.3891 16.3210 -0.1098
v -0.4866 16.2589 -0.0740
v -0.2653 16.4389 0.0450
v -0.3809 16.3975 0.0634
v -0.4845 16.3345 0.0903
v -0.2570 16.4980 0.2360
v -0.3835 16.4475 0.2427
v -0.4842 16.3836 0.2654
v -0.2491 16.5180 0.4757
v -0.3825 16.4689 0.4851
v -0.4845 16.4003 0.4809
v -0.2320 16.5049 0.6706
v -0.3550 16.4572 0.6657
v -0.4802 16.3787 0.6602
v -0.2233 16.4645 0.8365
v -0.3315 16.4227 0.8331
v -0.4517 16.3484 0.8281
v -0.4506 16.3456 0.8373
v -0.3404 16.4272 0.8060
v -0.2546 16.4640 0.8051
v -0.5167 16.3647 0.5294
v -0.4280 16.4371 0.5118
v -0.3416 16.4846 0.5144
v -0.5280 16.3485 0.2493
v -0.4332 16.4221 0.2582
v -0.3531 16.4625 0.2697
v -0.4775 16.3229 0.0432
v -0.3949 16.3938 0.0733
v -0.3085 16.4400 0.0812
v -0.4263 16.3034 -0.1008
v -0.3195 16.3672 -0.1011
v -0.2441 16.4034 -0.0599
v -0.2972 16.2533 -0.2438
v -0.2516 16.3304 -0.1744
v -0.1735 16.3755 -0.1467
v -0.5861 16.1662 0.8334
v -0.5328 16.2583 0.8217
v -0.4529 16.3517 0.8172
v -0.6388 16.1652 0.5712
v -0.5862 16.2751 0.5629
v -0.4986 16.3786 0.5614
v -0.6549 16.1554 0.2954
v -0.5873 16.2671 0.2873
v -0.5220 16.3564 0.2978
v -0.6308 16.1203 0.0360
v -0.5488 16.2388 0.0287
v -0.4688 16.3301 0.0413
v -0.5186 16.0679 -0.1959
v -0.4550 16.1815 -0.1816
v -0.3816 16.2697 -0.1668
v -0.3943 15.9940 -0.3479
v -0.3339 16.1224 -0.3280
v -0.2662 16.1773 -0.3292
v -0.0000 15.5199 -0.6215
v 0.1500 15.3878 -0.5503
v -0.0000 15.2558 -0.4791
v -0.1500 15.3878 -0.5503
v 0.0000 7.3306 -1.4473
v -0.2000 10.1239 -1.4432
v -0.2000 12.9540 -1.3307
v 0.0000 10.1225 -1.2432
v 0.0000 12.9344 -1.1316
v 0.2000 10.1239 -1.4432
v 0.2000 12.9540 -1.3307
v 0.0000 10.1253 -1.6432
v 0.0000 12.9736 -1.5297
v 0.0000 12.2658 -1.6850
v -0.3000 14.7825 -0.9689
v -0.0000 14.6748 -0.6889
v 0.3000 14.7825 -0.9689
v 0.3000 9.3906 -1.4462
v 0.0000 9.3899 -1.1462
v -0.3000 9.3906 -1.4462
v -0.0000 13.6933 -1.5407
v 0.3000 10.9122 -1.4339
v 0.0000 10.9067 -1.1339
v -0.3000 10.9122 -1.4339
v 0.0000 9.3912 -1.7462
v -0.3000 13.6473 -1.2442
v -0.0000 13.6013 -0.9478
v 0.3000 13.6473 -1.2442
v -0.2000 10.2039 -1.4426
v 0.0000 10.2024 -1.2426
v 0.2000 10.2039 -1.4426
v 0.0000 10.2054 -1.6426
v -0.2000 13.0336 -1.3227
v 0.0000 13.0130 -1.1237
v 0.2000 13.0336 -1.3227
v 0.0000 13.0542 -1.5216
v -0.0000 14.8903 -1.2488
v -0.3000 12.2479 -1.3856
v 0.0000 12.2299 -1.0861
v 0.3000 12.2479 -1.3856
v 0.0000 10.9176 -1.7339
v 0.0000 8.0139 -1.7098
v -0.2625 8.0139 -1.4473
v 0.0000 8.0139 -1.1848
v 0.2625 8.0139 -1.4473
v -0.0000 12.9666 -1.0574
v -0.0000 13.0068 -1.4554
v -0.0000 12.9131 -1.5355
v -0.0000 13.1147 -1.5152
v 0.2000 13.0933 -1.3164
v 0.2000 12.8943 -1.3364
v -0.2707 12.9938 -1.3267
v 0.1293 12.9938 -1.3267
v -0.0000 13.0210 -1.5961
v -0.0000 12.9808 -1.1981
v -0.0000 12.8755 -1.1373
v -0.0000 13.0718 -1.1175
v 0.2707 12.9938 -1.3267
v -0.1293 12.9938 -1.3267
v -0.2000 12.8943 -1.3364
v -0.2000 13.0933 -1.3164
v -0.2000 15.1978 -0.7516
v -0.1293 15.2734 -0.6871
v -0.2000 15.3506 -0.6057
v 0.2707 15.2734 -0.6871
v -0.0000 15.0765 -0.5926
v -0.0000 15.1833 -0.5944
v -0.0000 15.1942 -0.4811
v -0.0000 15.4622 -0.8812
v -0.2707 15.2734 -0.6871
v 0.2000 15.1978 -0.7516
v 0.1293 15.2734 -0.6871
v 0.2000 15.3506 -0.6057
v -0.0000 15.3190 -0.9107
v -0.0000 15.3636 -0.7798
v -0.0000 15.5069 -0.7304
v -0.0000 15.4540 -0.2952
v -0.0000 15.6307 -0.3888
v -0.1000 15.5423 -0.3420
v 0.1000 15.5423 -0.3420
v -0.0000 15.0847 -0.4930
v -0.0000 10.1619 -1.1722
v -0.0000 10.1648 -1.5722
v -0.0000 10.0652 -1.6436
v -0.0000 10.2656 -1.6421
v 0.2000 10.2639 -1.4421
v 0.2000 10.0639 -1.4436
v -0.2707 10.1639 -1.4429
v 0.1293 10.1639 -1.4429
v -0.0000 10.1659 -1.7136
v -0.0000 10.1630 -1.3136
v -0.0000 10.0626 -1.2436
v -0.0000 10.2622 -1.2421
v 0.2707 10.1639 -1.4429
v -0.1293 10.1639 -1.4429
v -0.2000 10.0639 -1.4436
v -0.2000 10.2639 -1.4421
v 0.0000 7.5014 -1.5754
v -0.1125 15.4869 -0.6037
v -0.0000 15.5727 -0.4878
v -0.2250 14.7017 -0.7589
v 0.1281 7.5014 -1.4473
v 0.1125 15.4733 -0.4351
v 0.2250 14.7017 -0.7589
v 0.0000 7.5014 -1.3192
v -0.0000 15.3738 -0.3825
v 0.2250 14.8634 -1.1789
v -0.1281 7.5014 -1.4473
v -0.1125 15.4733 -0.4351
v -0.1500 10.1249 -1.5932
v -0.1500 12.9687 -1.4800
v 0.1500 13.0491 -1.4719
v 0.1500 10.2051 -1.5926
v 0.1500 13.0181 -1.1735
v 0.1500 10.2027 -1.2926
v -0.1500 13.0181 -1.1735
v -0.1500 10.2027 -1.2926
v -0.2000 10.1639 -1.4429
v -0.2000 12.9938 -1.3267
v 0.0000 10.1624 -1.2429
v 0.0000 12.9737 -1.1277
v 0.2000 10.1639 -1.4429
v 0.2000 12.9938 -1.3267
v 0.0000 10.1654 -1.6429
v 0.0000 13.0139 -1.5257
v 0.1125 15.4869 -0.6037
v 0.1125 15.2888 -0.4969
v -0.1125 15.2888 -0.4969
v -0.2125 15.2075 -0.7442
v -0.0000 15.0765 -0.5769
v 0.2125 15.2075 -0.7442
v -0.0000 15.3385 -0.9115
v -0.2250 13.6818 -1.4666
v -0.3500 14.2189 -1.1359
v -0.0000 14.1400 -0.7949
v 0.3500 14.2189 -1.1359
v -0.0000 14.2979 -1.4769
v -0.2250 14.8634 -1.1789
v -0.2250 9.3911 -1.6712
v 0.1500 10.1249 -1.5932
v 0.1500 10.1229 -1.2932
v -0.1500 10.1229 -1.2932
v 0.0000 9.9217 -1.6694
v 0.2250 9.9206 -1.4444
v 0.0000 9.9194 -1.2194
v -0.2250 9.9206 -1.4444
v 0.2250 10.9163 -1.6589
v 0.2250 10.9081 -1.2089
v -0.2250 10.9081 -1.2089
v -0.1500 10.2051 -1.5926
v -0.2250 10.4010 -1.4409
v 0.0000 10.3987 -1.2159
v 0.2250 10.4010 -1.4409
v 0.0000 10.4032 -1.6659
v 0.2250 13.6818 -1.4666
v 0.2250 13.6128 -1.0219
v -0.2250 13.6128 -1.0219
v -0.1500 13.0491 -1.4719
v -0.2250 13.2073 -1.3036
v 0.0000 13.1813 -1.0801
v 0.2250 13.2073 -1.3036
v 0.0000 13.2332 -1.5271
v -0.2250 12.2613 -1.6101
v 0.1500 12.9687 -1.4800
v 0.1500 12.9393 -1.1814
v -0.1500 12.9393 -1.1814
v 0.0000 12.7771 -1.5729
v 0.2250 12.7578 -1.3487
v 0.0000 12.7385 -1.1245
v -0.2250 12.7578 -1.3487
v 0.2250 12.2613 -1.6101
v 0.2250 12.2344 -1.1610
v -0.2250 12.2344 -1.1610
v -0.2250 10.9163 -1.6589
v -0.3500 11.5803 -1.4166
v 0.0000 11.5681 -1.0668
v 0.3500 11.5803 -1.4166
v 0.0000 11.5925 -1.7664
v 0.2250 9.3911 -1.6712
v 0.2250 9.3901 -1.2212
v -0.2250 9.3901 -1.2212
v 0.0000 8.6999 -1.7877
v -0.3406 8.6997 -1.4471
v 0.0000 8.6995 -1.1065
v 0.3406 8.6997 -1.4471
v 0.1969 8.0139 -1.6442
v 0.1969 8.0139 -1.2504
v -0.1969 8.0139 -1.2504
v -0.1969 8.0139 -1.6442
v -0.1470 13.0684 -1.3190
v -0.0000 13.0951 -1.5707
v -0.2530 13.0684 -1.3190
v -0.0000 12.9332 -1.4804
v -0.1470 12.9192 -1.3341
v -0.0000 12.9434 -1.5859
v -0.2530 12.9192 -1.3341
v -0.0000 13.0839 -1.4652
v 0.2530 13.0684 -1.3190
v 0.2530 12.9192 -1.3341
v -0.0000 13.0529 -1.1729
v 0.1470 13.0684 -1.3190
v 0.1470 12.9192 -1.3341
v 0.2030 13.0142 -1.5287
v -0.0000 13.0417 -1.0674
v 0.0970 13.0036 -1.4232
v -0.0000 12.9051 -1.1878
v 0.1500 12.9084 -1.4858
v -0.0000 12.8950 -1.0822
v 0.1500 13.1094 -1.4655
v 0.2030 12.9734 -1.1247
v 0.1500 12.8802 -1.1871
v -0.1500 13.1094 -1.4655
v 0.1500 13.0772 -1.1672
v 0.0970 12.9841 -1.2303
v -0.2030 12.9734 -1.1247
v -0.2030 13.0142 -1.5287
v -0.0970 12.9841 -1.2303
v -0.0970 13.0036 -1.4232
v -0.1500 12.8802 -1.1871
v -0.1500 12.9084 -1.4858
v -0.1500 13.0772 -1.1672
v -0.1500 15.1068 -0.6323
v -0.0970 15.2058 -0.6176
v -0.1500 15.2333 -0.5122
v -0.2030 15.1319 -0.5415
v -0.1500 15.2887 -0.8709
v -0.0970 15.3410 -0.7566
v -0.1500 15.4678 -0.6993
v -0.2030 15.4150 -0.8326
v 0.1500 15.1068 -0.6323
v 0.0970 15.2058 -0.6176
v 0.1500 15.2333 -0.5122
v 0.2030 15.1319 -0.5415
v 0.1500 15.2887 -0.8709
v 0.0970 15.3410 -0.7566
v 0.1500 15.4678 -0.6993
v 0.2030 15.4150 -0.8326
v -0.0000 15.6911 -0.3074
v 0.1000 15.6028 -0.2606
v -0.0000 15.5144 -0.2138
v -0.1000 15.6028 -0.2606
v 0.0750 15.4761 -0.3069
v -0.0750 15.4761 -0.3069
v -0.0750 15.6086 -0.3771
v 0.0750 15.6086 -0.3771
v -0.0000 15.0587 -0.5393
v -0.0000 15.1252 -0.6219
v -0.0000 15.2244 -0.5302
v -0.0000 15.1450 -0.4598
v 0.2530 15.2174 -0.7363
v 0.1470 15.2174 -0.7363
v 0.1470 15.3344 -0.6276
v 0.2530 15.3344 -0.6276
v -0.0000 15.3762 -0.9333
v -0.0000 15.3096 -0.8508
v -0.0000 15.4444 -0.7250
v -0.0000 15.5238 -0.7954
v -0.2530 15.2174 -0.7363
v -0.1470 15.2174 -0.7363
v -0.1470 15.3344 -0.6276
v -0.2530 15.3344 -0.6276
v -0.1470 10.2389 -1.4423
v -0.0000 10.2409 -1.6954
v -0.2530 10.2389 -1.4423
v -0.0000 10.0899 -1.5904
v -0.1470 10.0889 -1.4434
v -0.0000 10.0906 -1.6965
v -0.2530 10.0889 -1.4434
v -0.0000 10.2401 -1.5893
v 0.2530 10.2389 -1.4423
v 0.2530 10.0889 -1.4434
v -0.0000 10.2377 -1.2954
v 0.1470 10.2389 -1.4423
v 0.1470 10.0889 -1.4434
v 0.2030 10.1654 -1.6459
v -0.0000 10.2369 -1.1893
v 0.0970 10.1646 -1.5399
v -0.0000 10.0879 -1.2965
v 0.1500 10.0649 -1.5936
v -0.0000 10.0872 -1.1904
v 0.1500 10.2651 -1.5921
v 0.2030 10.1624 -1.2399
v 0.1500 10.0630 -1.2936
v -0.1500 10.2651 -1.5921
v 0.1500 10.2626 -1.2921
v 0.0970 10.1632 -1.3459
v -0.2030 10.1624 -1.2399
v -0.2030 10.1654 -1.6459
v -0.0970 10.1632 -1.3459
v -0.0970 10.1646 -1.5399
v -0.1500 10.0630 -1.2936
v -0.1500 10.0649 -1.5936
v -0.1500 10.2626 -1.2921
v -0.1153 7.6343 -1.5626
v -0.0844 15.5478 -0.4746
v 0.1153 7.6343 -1.5626
v 0.0844 15.5478 -0.4746
v -0.1153 7.6343 -1.3320
v -0.0844 15.3987 -0.3956
v 0.1153 7.6343 -1.3320
v 0.0844 15.3987 -0.3956
v -0.1500 10.1650 -1.5929
v -0.1500 13.0089 -1.4760
v 0.1500 13.0089 -1.4760
v 0.1500 10.1650 -1.5929
v 0.1500 12.9788 -1.1775
v 0.1500 10.1628 -1.2929
v -0.1500 12.9788 -1.1775
v -0.1500 10.1628 -1.2929
v -0.1594 15.3057 -0.8697
v 0.1594 15.3057 -0.8697
v 0.1594 15.1092 -0.6187
v -0.1594 15.1092 -0.6187
v -0.2625 14.1597 -0.8802
v 0.2625 14.1597 -0.8802
v 0.2625 14.2781 -1.3917
v -0.2625 14.2781 -1.3917
v -0.1687 9.9214 -1.6131
v 0.1688 9.9214 -1.6131
v 0.1688 9.9197 -1.2757
v -0.1687 9.9197 -1.2757
v 0.1688 10.4027 -1.6096
v 0.1688 10.3993 -1.2722
v -0.1687 10.3993 -1.2722
v -0.1687 10.4027 -1.6096
v 0.1688 13.2267 -1.4712
v 0.1688 13.1878 -1.1360
v -0.1688 13.1878 -1.1360
v -0.1688 13.2267 -1.4712
v -0.1687 12.7722 -1.5168
v 0.1688 12.7722 -1.5168
v 0.1688 12.7433 -1.1806
v -0.1687 12.7433 -1.1806
v 0.2625 11.5894 -1.6790
v 0.2625 11.5711 -1.1543
v -0.2625 11.5711 -1.1543
v -0.2625 11.5894 -1.6790
v 0.2555 8.6999 -1.7026
v 0.2555 8.6996 -1.1916
v -0.2555 8.6996 -1.1916
v -0.2555 8.6999 -1.7026
v -0.1898 13.0484 -1.1303
v -0.1102 13.0568 -1.2094
v -0.1102 12.9086 -1.2243
v -0.1898 12.9010 -1.1452
v 0.1898 13.0484 -1.1303
v 0.1102 13.0568 -1.2094
v 0.1102 12.9086 -1.2243
v 0.1898 12.9010 -1.1452
v 0.1898 13.0884 -1.5077
v 0.1102 13.0801 -1.4286
v 0.1102 12.9297 -1.4438
v 0.1898 12.9373 -1.5230
v -0.1898 13.0884 -1.5077
v -0.1102 13.0801 -1.4286
v -0.1102 12.9297 -1.4438
v -0.1898 12.9373 -1.5230
v -0.1898 15.3365 -0.8841
v -0.1102 15.2866 -0.8221
v -0.1102 15.4169 -0.7007
v -0.1898 15.4765 -0.7534
v 0.1898 15.3365 -0.8841
v 0.1102 15.2866 -0.8221
v 0.1102 15.4169 -0.7007
v 0.1898 15.4765 -0.7534
v 0.1898 15.0984 -0.5885
v 0.1102 15.1483 -0.6505
v 0.1102 15.2519 -0.5545
v 0.1898 15.1923 -0.5018
v -0.1898 15.0984 -0.5885
v -0.1102 15.1483 -0.6505
v -0.1102 15.2519 -0.5545
v -0.1898 15.1923 -0.5018
v -0.0750 15.6690 -0.2957
v 0.0750 15.6690 -0.2957
v -0.0750 15.5365 -0.2255
v 0.0750 15.5365 -0.2255
v -0.1898 10.2374 -1.2526
v -0.1102 10.2380 -1.3321
v -0.1102 10.0882 -1.3332
v -0.1898 10.0877 -1.2537
v 0.1898 10.2374 -1.2526
v 0.1102 10.2380 -1.3321
v 0.1102 10.0882 -1.3332
v 0.1898 10.0877 -1.2537
v 0.1898 10.2404 -1.6321
v 0.1102 10.2398 -1.5526
v 0.1102 10.0896 -1.5536
v 0.1898 10.0901 -1.6332
v -0.1898 10.2404 -1.6321
v -0.1102 10.2398 -1.5526
v -0.1102 10.0896 -1.5536
v -0.1898 10.0901 -1.6332
vt 0.8818 0.4300
vt 0.8752 0.3750
vt 0.8940 0.3718
vt 0.8999 0.4253
vt 0.8710 0.4361
vt 0.8641 0.3774
vt 0.8837 0.3416
vt 0.8999 0.3401
vt 0.8722 0.3436
vt 0.7044 0.2855
vt 0.6875 0.2665
vt 0.7056 0.2617
vt 0.7209 0.2791
vt 0.6919 0.2895
vt 0.6746 0.2680
vt 0.6817 0.2459
vt 0.7011 0.2449
vt 0.6686 0.2460
vt 0.6851 0.2261
vt 0.7024 0.2288
vt 0.6718 0.2245
vt 0.6930 0.2069
vt 0.7080 0.2130
vt 0.6788 0.2029
vt 0.7022 0.1915
vt 0.7149 0.1969
vt 0.6879 0.1866
vt 0.7092 0.1779
vt 0.7209 0.1839
vt 0.6965 0.1732
vt 0.6377 0.0059
vt 0.6456 0.0208
vt 0.6282 0.0220
vt 0.6243 0.0090
vt 0.7090 0.1610
vt 0.7155 0.1643
vt 0.6480 0.0378
vt 0.6298 0.0369
vt 0.6529 0.0190
vt 0.6541 0.0387
vt 0.6459 0.0579
vt 0.6271 0.0553
vt 0.6522 0.0597
vt 0.6402 0.0791
vt 0.6211 0.0758
vt 0.6469 0.0784
vt 0.6366 0.0967
vt 0.6149 0.0917
vt 0.6001 0.7275
vt 0.5955 0.7456
vt 0.5855 0.7464
vt 0.5978 0.7294
vt 0.6318 0.1097
vt 0.6125 0.1095
vt 0.5945 0.7588
vt 0.5890 0.7603
vt 0.6397 0.1189
vt 0.6126 0.1266
vt 0.5953 0.7725
vt 0.5852 0.7673
vt 0.6349 0.1403
vt 0.6161 0.1423
vt 0.6001 0.7875
vt 0.5968 0.7899
vt 0.6358 0.1571
vt 0.6182 0.1600
vt 0.6437 0.1395
vt 0.6452 0.1568
vt 0.6373 0.1710
vt 0.6197 0.1741
vt 0.6474 0.1703
vt 0.6408 0.1826
vt 0.6222 0.1863
vt 0.6493 0.1782
vt 0.6466 0.1901
vt 0.6281 0.1961
vt 0.6541 0.1863
vt 0.5546 0.7838
vt 0.5522 0.7692
vt 0.5650 0.7713
vt 0.5708 0.7887
vt 0.7943 0.6519
vt 0.7909 0.6697
vt 0.7846 0.6699
vt 0.7880 0.6532
vt 0.5545 0.7476
vt 0.5644 0.7507
vt 0.7911 0.6935
vt 0.7853 0.6932
vt 0.5623 0.7275
vt 0.5708 0.7325
vt 0.7943 0.7166
vt 0.7889 0.7146
vt 0.9291 0.4208
vt 0.9249 0.3724
vt 0.9429 0.3711
vt 0.9465 0.4163
vt 0.9192 0.4268
vt 0.9144 0.3741
vt 0.9305 0.3401
vt 0.9465 0.3418
vt 0.9213 0.3401
vt 0.8344 0.6313
vt 0.8249 0.6133
vt 0.8413 0.6075
vt 0.8500 0.6253
vt 0.8239 0.6335
vt 0.8136 0.6144
vt 0.8204 0.5949
vt 0.8379 0.5937
vt 0.8087 0.5957
vt 0.8214 0.5762
vt 0.8374 0.5805
vt 0.8117 0.5768
vt 0.8283 0.5585
vt 0.8426 0.5652
vt 0.8220 0.5581
vt 0.8378 0.5427
vt 0.8500 0.5520
vt 0.8344 0.5421
vt 0.6633 0.3401
vt 0.6702 0.3513
vt 0.6544 0.3556
vt 0.6467 0.3468
vt 0.8442 0.5286
vt 0.8465 0.5318
vt 0.6740 0.3635
vt 0.6582 0.3657
vt 0.6748 0.3511
vt 0.6781 0.3632
vt 0.6760 0.3781
vt 0.6575 0.3790
vt 0.6802 0.3780
vt 0.6754 0.3981
vt 0.6575 0.3970
vt 0.6801 0.3990
vt 0.6714 0.4191
vt 0.6538 0.4159
vt 0.6767 0.4187
vt 0.6648 0.4379
vt 0.6478 0.4347
vt 0.6703 0.4388
vt 0.6621 0.4534
vt 0.6450 0.4534
vt 0.6673 0.4546
vt 0.6631 0.4703
vt 0.6452 0.4720
vt 0.6687 0.4692
vt 0.6638 0.4883
vt 0.6458 0.4887
vt 0.6703 0.4877
vt 0.6630 0.5069
vt 0.6460 0.5081
vt 0.6717 0.5050
vt 0.6654 0.5224
vt 0.6494 0.5247
vt 0.6751 0.5196
vt 0.6705 0.5344
vt 0.6541 0.5372
vt 0.6802 0.5311
vt 0.9241 0.7127
vt 0.9222 0.6984
vt 0.9373 0.7034
vt 0.9383 0.7184
vt 0.9161 0.7092
vt 0.9151 0.6964
vt 0.9202 0.6829
vt 0.9338 0.6847
vt 0.9147 0.6817
vt 0.9198 0.6654
vt 0.9339 0.6700
vt 0.9148 0.6628
vt 0.9292 0.6501
vt 0.9383 0.6579
vt 0.9257 0.6452
vt 0.8966 0.2861
vt 0.8957 0.2358
vt 0.9162 0.2396
vt 0.9178 0.2845
vt 0.8803 0.2899
vt 0.8785 0.2348
vt 0.9037 0.2143
vt 0.9178 0.2195
vt 0.8887 0.2080
vt 0.9296 0.4505
vt 0.9299 0.4665
vt 0.9156 0.4687
vt 0.9161 0.4559
vt 0.9462 0.4479
vt 0.9462 0.4642
vt 0.5671 0.5232
vt 0.5534 0.5266
vt 0.5568 0.5124
vt 0.5692 0.5112
vt 0.9436 0.4774
vt 0.9312 0.4770
vt 0.5403 0.5247
vt 0.5532 0.5129
vt 0.9404 0.4894
vt 0.9273 0.4885
vt 0.5296 0.5184
vt 0.5469 0.5103
vt 0.9300 0.5075
vt 0.9214 0.4990
vt 0.5245 0.5028
vt 0.5438 0.5022
vt 0.5165 0.5251
vt 0.5102 0.5033
vt 0.5294 0.4811
vt 0.5501 0.4846
vt 0.5162 0.4791
vt 0.5388 0.4568
vt 0.5586 0.4604
vt 0.5255 0.4541
vt 0.5446 0.4331
vt 0.5654 0.4366
vt 0.5322 0.4313
vt 0.5474 0.4129
vt 0.5661 0.4151
vt 0.5347 0.4127
vt 0.5482 0.3958
vt 0.5692 0.3968
vt 0.5359 0.3953
vt 0.5488 0.3785
vt 0.5651 0.3804
vt 0.5360 0.3786
vt 0.5468 0.3626
vt 0.5670 0.3637
vt 0.5356 0.3634
vt 0.5460 0.3502
vt 0.5635 0.3511
vt 0.5346 0.3508
vt 0.5415 0.3401
vt 0.5594 0.3412
vt 0.5307 0.3411
vt 0.9428 0.2639
vt 0.9423 0.2502
vt 0.9585 0.2527
vt 0.9595 0.2700
vt 0.9325 0.2610
vt 0.9331 0.2480
vt 0.9412 0.2307
vt 0.9595 0.2321
vt 0.9323 0.2288
vt 0.9433 0.2088
vt 0.9587 0.2149
vt 0.9350 0.2080
vt 0.8885 0.7351
vt 0.8846 0.7133
vt 0.8968 0.7113
vt 0.9002 0.7344
vt 0.8724 0.7385
vt 0.8678 0.7181
vt 0.8809 0.6869
vt 0.8920 0.6863
vt 0.8648 0.6890
vt 0.8816 0.6637
vt 0.8910 0.6649
vt 0.8671 0.6613
vt 0.8910 0.6475
vt 0.9002 0.6490
vt 0.8766 0.6452
vt 0.7121 0.7800
vt 0.7067 0.7664
vt 0.7148 0.7651
vt 0.7206 0.7760
vt 0.6979 0.7854
vt 0.6947 0.7693
vt 0.7071 0.7504
vt 0.7159 0.7491
vt 0.6951 0.7513
vt 0.7096 0.7365
vt 0.7174 0.7377
vt 0.6998 0.7361
vt 0.7143 0.7235
vt 0.7206 0.7271
vt 0.7084 0.7224
vt 0.7434 0.1011
vt 0.7531 0.1121
vt 0.7457 0.1143
vt 0.7362 0.1052
vt 0.7476 0.0968
vt 0.7598 0.1089
vt 0.7576 0.1280
vt 0.7500 0.1286
vt 0.7630 0.1296
vt 0.7561 0.1449
vt 0.7475 0.1442
vt 0.7641 0.1460
vt 0.7525 0.1633
vt 0.7442 0.1625
vt 0.7608 0.1629
vt 0.7479 0.1810
vt 0.7397 0.1799
vt 0.7550 0.1812
vt 0.7442 0.1977
vt 0.7356 0.1967
vt 0.7519 0.1987
vt 0.7437 0.2144
vt 0.7361 0.2145
vt 0.7511 0.2138
vt 0.7436 0.2308
vt 0.7353 0.2311
vt 0.7530 0.2308
vt 0.7447 0.2480
vt 0.7363 0.2484
vt 0.7542 0.2464
vt 0.7464 0.2649
vt 0.7376 0.2665
vt 0.7559 0.2630
vt 0.7499 0.2776
vt 0.7418 0.2786
vt 0.7601 0.2768
vt 0.7556 0.2878
vt 0.7473 0.2895
vt 0.7641 0.2840
vt 0.9585 0.0712
vt 0.9563 0.0546
vt 0.9649 0.0564
vt 0.9660 0.0737
vt 0.9497 0.0700
vt 0.9496 0.0525
vt 0.9553 0.0323
vt 0.9617 0.0333
vt 0.9492 0.0302
vt 0.9604 0.0072
vt 0.9660 0.0101
vt 0.9555 0.0059
vt 0.9763 0.4754
vt 0.9755 0.4496
vt 0.9928 0.4513
vt 0.9928 0.4783
vt 0.9607 0.4769
vt 0.9607 0.4479
vt 0.8304 0.4494
vt 0.8286 0.4261
vt 0.8463 0.4258
vt 0.8496 0.4465
vt 0.8145 0.4500
vt 0.8123 0.4261
vt 0.8281 0.3943
vt 0.8478 0.3946
vt 0.8120 0.3938
vt 0.8283 0.3679
vt 0.8481 0.3682
vt 0.8125 0.3660
vt 0.8293 0.3405
vt 0.8496 0.3404
vt 0.8120 0.3401
vt 0.7786 0.5308
vt 0.7739 0.5789
vt 0.7545 0.5780
vt 0.7610 0.5311
vt 0.7943 0.5286
vt 0.7918 0.5780
vt 0.7773 0.6206
vt 0.7575 0.6190
vt 0.7927 0.6218
vt 0.7788 0.6396
vt 0.7582 0.6369
vt 0.7943 0.6402
vt 0.8406 0.1962
vt 0.8390 0.1738
vt 0.8616 0.1745
vt 0.8629 0.1960
vt 0.8259 0.1938
vt 0.8230 0.1734
vt 0.8396 0.1479
vt 0.8606 0.1480
vt 0.8226 0.1467
vt 0.8404 0.1235
vt 0.8601 0.1245
vt 0.8237 0.1219
vt 0.8425 0.0979
vt 0.8629 0.0989
vt 0.8258 0.0968
vt 0.6242 0.3459
vt 0.6101 0.3714
vt 0.5965 0.3700
vt 0.6095 0.3401
vt 0.6305 0.3609
vt 0.6240 0.3748
vt 0.6043 0.4032
vt 0.5837 0.4023
vt 0.6164 0.4035
vt 0.6021 0.4314
vt 0.5858 0.4304
vt 0.6145 0.4317
vt 0.6018 0.4549
vt 0.5873 0.4541
vt 0.6149 0.4530
vt 0.6078 0.4723
vt 0.5901 0.4730
vt 0.6174 0.4693
vt 0.6081 0.4834
vt 0.5924 0.4880
vt 0.6212 0.4832
vt 0.6119 0.4966
vt 0.5952 0.4949
vt 0.6245 0.4960
vt 0.6174 0.5084
vt 0.5985 0.5069
vt 0.6277 0.5084
vt 0.6171 0.5182
vt 0.6048 0.5176
vt 0.6305 0.5183
vt 0.9312 0.5317
vt 0.9330 0.5412
vt 0.9145 0.5378
vt 0.9187 0.5286
vt 0.9438 0.5362
vt 0.9450 0.5435
vt 0.9322 0.5534
vt 0.9183 0.5555
vt 0.9435 0.5551
vt 0.9358 0.5711
vt 0.9153 0.5729
vt 0.9450 0.5718
vt 0.9333 0.5882
vt 0.9203 0.5858
vt 0.9436 0.5913
vt 0.7178 0.5145
vt 0.7133 0.4942
vt 0.7290 0.4941
vt 0.7342 0.5168
vt 0.8081 0.0995
vt 0.7962 0.1196
vt 0.7842 0.1192
vt 0.7963 0.0968
vt 0.7073 0.4731
vt 0.7223 0.4727
vt 0.7920 0.1404
vt 0.7791 0.1417
vt 0.7017 0.4503
vt 0.7166 0.4483
vt 0.7915 0.1633
vt 0.7786 0.1653
vt 0.6980 0.4238
vt 0.7137 0.4226
vt 0.7932 0.1897
vt 0.7812 0.1919
vt 0.6972 0.3955
vt 0.7117 0.3967
vt 0.7985 0.2184
vt 0.7877 0.2195
vt 0.7026 0.3676
vt 0.7211 0.3701
vt 0.8081 0.2469
vt 0.7976 0.2455
vt 0.7192 0.3440
vt 0.7342 0.3453
vt 0.6947 0.3659
vt 0.7125 0.3401
vt 0.7025 0.1445
vt 0.6899 0.1093
vt 0.7087 0.1070
vt 0.7208 0.1402
vt 0.6851 0.1493
vt 0.6728 0.1115
vt 0.6862 0.0758
vt 0.7048 0.0759
vt 0.6686 0.0765
vt 0.6878 0.0484
vt 0.7060 0.0506
vt 0.6715 0.0463
vt 0.6963 0.0289
vt 0.7120 0.0299
vt 0.6791 0.0236
vt 0.7044 0.0129
vt 0.7208 0.0198
vt 0.6877 0.0059
vt 0.8843 0.6222
vt 0.8861 0.6118
vt 0.8996 0.6142
vt 0.8987 0.6240
vt 0.8694 0.6220
vt 0.8694 0.6116
vt 0.8822 0.5976
vt 0.9001 0.5967
vt 0.8680 0.5984
vt 0.8814 0.5694
vt 0.8963 0.5679
vt 0.8645 0.5726
vt 0.8828 0.5472
vt 0.8959 0.5450
vt 0.8659 0.5491
vt 0.8857 0.5305
vt 0.9001 0.5286
vt 0.8682 0.5325
vt 0.5834 0.1719
vt 0.5829 0.1529
vt 0.5955 0.1496
vt 0.5981 0.1680
vt 0.5641 0.1749
vt 0.5633 0.1575
vt 0.5830 0.1271
vt 0.5919 0.1222
vt 0.5585 0.1330
vt 0.5638 0.0999
vt 0.5702 0.0950
vt 0.5476 0.1117
vt 0.5349 0.0803
vt 0.5412 0.0773
vt 0.5173 0.0866
vt 0.5299 0.0605
vt 0.5403 0.0622
vt 0.5102 0.0591
vt 0.5383 0.0383
vt 0.5469 0.0427
vt 0.5228 0.0304
vt 0.5547 0.0272
vt 0.5597 0.0339
vt 0.5437 0.0165
vt 0.5768 0.0187
vt 0.5802 0.0242
vt 0.5685 0.0100
vt 0.5939 0.0139
vt 0.5981 0.0196
vt 0.5848 0.0059
vt 0.7613 0.3095
vt 0.7455 0.3076
vt 0.7443 0.3023
vt 0.7611 0.3025
vt 0.7599 0.3215
vt 0.7473 0.3215
vt 0.8324 0.7297
vt 0.8270 0.7207
vt 0.8462 0.7171
vt 0.8503 0.7265
vt 0.8149 0.7341
vt 0.8122 0.7259
vt 0.8249 0.7094
vt 0.8438 0.7069
vt 0.8093 0.7123
vt 0.8280 0.6876
vt 0.8440 0.6860
vt 0.8087 0.6891
vt 0.8296 0.6654
vt 0.8462 0.6658
vt 0.8107 0.6666
vt 0.8328 0.6466
vt 0.8503 0.6452
vt 0.8153 0.6482
vt 0.5687 0.1867
vt 0.5605 0.2085
vt 0.5457 0.2088
vt 0.5514 0.1873
vt 0.5866 0.1871
vt 0.5814 0.2083
vt 0.5557 0.2351
vt 0.5419 0.2378
vt 0.5747 0.2328
vt 0.5624 0.2632
vt 0.5508 0.2678
vt 0.5803 0.2568
vt 0.5769 0.2844
vt 0.5659 0.2872
vt 0.5963 0.2793
vt 0.5777 0.2969
vt 0.5657 0.2950
vt 0.5963 0.3018
vt 0.5729 0.3087
vt 0.5646 0.3004
vt 0.5842 0.3216
vt 0.5425 0.3143
vt 0.5444 0.3013
vt 0.5494 0.3283
vt 0.5126 0.3104
vt 0.5102 0.3017
vt 0.5163 0.3263
vt 0.9814 0.3672
vt 0.9814 0.3546
vt 0.9917 0.3521
vt 0.9914 0.3634
vt 0.9609 0.3710
vt 0.9635 0.3557
vt 0.9813 0.3416
vt 0.9917 0.3401
vt 0.9641 0.3458
vt 0.5282 0.6442
vt 0.5348 0.5992
vt 0.5535 0.6001
vt 0.5451 0.6474
vt 0.5115 0.6435
vt 0.5131 0.5984
vt 0.5349 0.5577
vt 0.5534 0.5572
vt 0.5114 0.5554
vt 0.5347 0.5392
vt 0.5535 0.5392
vt 0.5102 0.5384
vt 0.7223 0.6408
vt 0.7184 0.6198
vt 0.7360 0.6226
vt 0.7400 0.6427
vt 0.6994 0.6369
vt 0.6982 0.6179
vt 0.7175 0.5955
vt 0.7342 0.5966
vt 0.6947 0.5944
vt 0.7159 0.5724
vt 0.7338 0.5719
vt 0.6955 0.5713
vt 0.7170 0.5446
vt 0.7382 0.5458
vt 0.6990 0.5446
vt 0.7169 0.5359
vt 0.7391 0.5365
vt 0.6997 0.5362
vt 0.7195 0.5286
vt 0.7400 0.5297
vt 0.7029 0.5291
vt 0.8478 0.2947
vt 0.8436 0.2856
vt 0.8594 0.2830
vt 0.8641 0.2902
vt 0.8320 0.2996
vt 0.8272 0.2875
vt 0.8391 0.2693
vt 0.8583 0.2678
vt 0.8226 0.2731
vt 0.8389 0.2480
vt 0.8596 0.2471
vt 0.8232 0.2501
vt 0.8425 0.2291
vt 0.8613 0.2284
vt 0.8239 0.2292
vt 0.8444 0.2080
vt 0.8641 0.2084
vt 0.8281 0.2098
vt 0.6127 0.5301
vt 0.6000 0.5509
vt 0.5881 0.5527
vt 0.5953 0.5304
vt 0.6286 0.5312
vt 0.6194 0.5529
vt 0.5961 0.5809
vt 0.5837 0.5846
vt 0.6112 0.5787
vt 0.6032 0.6109
vt 0.5874 0.6146
vt 0.6183 0.6062
vt 0.6117 0.6363
vt 0.5975 0.6414
vt 0.6286 0.6317
vt 0.8851 0.4495
vt 0.8854 0.4608
vt 0.8641 0.4589
vt 0.8658 0.4479
vt 0.9012 0.4479
vt 0.9005 0.4613
vt 0.8833 0.4784
vt 0.8659 0.4776
vt 0.8992 0.4765
vt 0.8826 0.4883
vt 0.8648 0.4891
vt 0.8982 0.4859
vt 0.8847 0.5048
vt 0.8668 0.5059
vt 0.9012 0.5001
vt 0.6631 0.6620
vt 0.6608 0.6409
vt 0.6754 0.6421
vt 0.6779 0.6650
vt 0.6517 0.6589
vt 0.6486 0.6389
vt 0.6580 0.6195
vt 0.6738 0.6191
vt 0.6463 0.6180
vt 0.6566 0.5909
vt 0.6734 0.5908
vt 0.6450 0.5926
vt 0.6603 0.5697
vt 0.6757 0.5681
vt 0.6458 0.5718
vt 0.6644 0.5503
vt 0.6779 0.5490
vt 0.6505 0.5523
vt 0.9539 0.7141
vt 0.9528 0.6780
vt 0.9635 0.6774
vt 0.9659 0.7144
vt 0.6531 0.2124
vt 0.6358 0.2452
vt 0.6255 0.2454
vt 0.6425 0.2120
vt 0.9551 0.6491
vt 0.9659 0.6452
vt 0.6313 0.2739
vt 0.6214 0.2750
vt 0.6214 0.2750
vt 0.6250 0.2973
vt 0.6155 0.3010
vt 0.6107 0.2762
vt 0.6354 0.2966
vt 0.6338 0.3187
vt 0.6212 0.3185
vt 0.6436 0.3141
vt 0.9697 0.1449
vt 0.9712 0.1339
vt 0.9834 0.1336
vt 0.9834 0.1539
vt 0.6531 0.3252
vt 0.6434 0.3283
vt 0.8969 0.1897
vt 0.8923 0.1589
vt 0.9082 0.1575
vt 0.9103 0.1888
vt 0.8834 0.1923
vt 0.8773 0.1621
vt 0.8912 0.1276
vt 0.9074 0.1257
vt 0.8783 0.1313
vt 0.8931 0.0992
vt 0.9103 0.0968
vt 0.8800 0.1037
vt 0.8326 0.4641
vt 0.8334 0.4832
vt 0.8148 0.4831
vt 0.8120 0.4617
vt 0.8494 0.4670
vt 0.8494 0.4856
vt 0.8351 0.5031
vt 0.8148 0.5043
vt 0.8465 0.5071
vt 0.7757 0.3816
vt 0.7666 0.4171
vt 0.7487 0.4073
vt 0.7628 0.3762
vt 0.7711 0.3618
vt 0.7808 0.3659
vt 0.7934 0.3681
vt 0.7925 0.3846
vt 0.7908 0.4192
vt 0.2660 0.0432
vt 0.2418 0.0678
vt 0.2218 0.0579
vt 0.2564 0.0323
vt 0.2737 0.0229
vt 0.2808 0.0312
vt 0.2879 0.0390
vt 0.2756 0.0536
vt 0.2617 0.0768
vt 0.4761 0.0323
vt 0.4719 0.0535
vt 0.4480 0.0501
vt 0.4598 0.0286
vt 0.4682 0.0154
vt 0.4804 0.0182
vt 0.4912 0.0151
vt 0.4905 0.0282
vt 0.4915 0.0495
vt 0.1075 0.9573
vt 0.0817 0.9332
vt 0.1029 0.9238
vt 0.1182 0.9467
vt 0.1312 0.9611
vt 0.1233 0.9691
vt 0.1175 0.9774
vt 0.0997 0.9683
vt 0.0644 0.9432
vt 0.9612 0.1671
vt 0.9834 0.1740
vt 0.9834 0.1919
vt 0.9637 0.1879
vt 0.4525 0.9660
vt 0.4345 0.9461
vt 0.4415 0.9302
vt 0.4582 0.9456
vt 0.1380 0.0059
vt 0.1526 0.0276
vt 0.1441 0.0423
vt 0.1301 0.0251
vt 0.3827 0.0059
vt 0.4000 0.0260
vt 0.3932 0.0409
vt 0.3771 0.0251
vt 0.0794 0.3306
vt 0.0821 0.3067
vt 0.1076 0.3093
vt 0.1021 0.3329
vt 0.1014 0.3375
vt 0.0787 0.3353
vt 0.0597 0.3335
vt 0.0604 0.3289
vt 0.0607 0.3048
vt 0.0426 0.6622
vt 0.0428 0.6389
vt 0.0684 0.6399
vt 0.0654 0.6629
vt 0.0652 0.6675
vt 0.0424 0.6669
vt 0.0232 0.6668
vt 0.0234 0.6621
vt 0.0213 0.6386
vt 0.4542 0.6373
vt 0.4559 0.6611
vt 0.4302 0.6615
vt 0.4313 0.6377
vt 0.4312 0.6330
vt 0.4541 0.6326
vt 0.4721 0.6324
vt 0.4722 0.6371
vt 0.4762 0.6609
vt 0.4513 0.3065
vt 0.4522 0.3295
vt 0.4265 0.3294
vt 0.4284 0.3063
vt 0.4285 0.3017
vt 0.4514 0.3019
vt 0.4694 0.3011
vt 0.4694 0.3058
vt 0.4725 0.3288
vt 0.2408 0.6695
vt 0.2446 0.6934
vt 0.2203 0.6955
vt 0.2192 0.6714
vt 0.2185 0.6667
vt 0.2400 0.6649
vt 0.2615 0.6622
vt 0.2623 0.6668
vt 0.2688 0.6903
vt 0.2017 0.3389
vt 0.2029 0.3622
vt 0.1785 0.3627
vt 0.1799 0.3391
vt 0.1797 0.3344
vt 0.2014 0.3342
vt 0.2231 0.3331
vt 0.2233 0.3378
vt 0.2273 0.3607
vt 0.3665 0.3327
vt 0.3660 0.3086
vt 0.3918 0.3091
vt 0.3893 0.3331
vt 0.3892 0.3378
vt 0.3664 0.3374
vt 0.3475 0.3376
vt 0.3476 0.3329
vt 0.3448 0.3089
vt 0.3624 0.6679
vt 0.3613 0.6445
vt 0.3870 0.6444
vt 0.3853 0.6677
vt 0.3853 0.6725
vt 0.3625 0.6726
vt 0.3436 0.6723
vt 0.3436 0.6675
vt 0.3401 0.6442
vt 0.3584 0.5838
vt 0.3571 0.5042
vt 0.3972 0.5046
vt 0.3927 0.5839
vt 0.3301 0.5836
vt 0.3241 0.5042
vt 0.0551 0.8800
vt 0.0406 0.8116
vt 0.0804 0.8088
vt 0.0885 0.8740
vt 0.0273 0.8869
vt 0.0072 0.8154
vt 0.4676 0.1010
vt 0.4641 0.1641
vt 0.4241 0.1624
vt 0.4335 0.0984
vt 0.4949 0.0976
vt 0.4957 0.1615
vt 0.2179 0.1215
vt 0.2050 0.1901
vt 0.1671 0.1865
vt 0.1862 0.1148
vt 0.2496 0.1269
vt 0.2428 0.1921
vt 0.2547 0.7557
vt 0.2681 0.8363
vt 0.2314 0.8396
vt 0.2224 0.7585
vt 0.2870 0.7515
vt 0.3047 0.8315
vt 0.4610 0.7232
vt 0.4650 0.8043
vt 0.4260 0.8050
vt 0.4267 0.7238
vt 0.4881 0.7230
vt 0.4957 0.8040
vt 0.0888 0.2445
vt 0.1000 0.1637
vt 0.1386 0.1677
vt 0.1228 0.2480
vt 0.0604 0.2418
vt 0.0677 0.1606
vt 0.3598 0.7523
vt 0.3618 0.6984
vt 0.3875 0.6981
vt 0.3941 0.7516
vt 0.4005 0.8221
vt 0.3606 0.8237
vt 0.3275 0.8218
vt 0.3315 0.7513
vt 0.3405 0.6979
vt 0.2268 0.5786
vt 0.1944 0.5811
vt 0.1784 0.5035
vt 0.2163 0.5012
vt 0.2540 0.4973
vt 0.2591 0.5749
vt 0.2599 0.6345
vt 0.2357 0.6375
vt 0.2114 0.6395
vt 0.4572 0.5449
vt 0.4228 0.5453
vt 0.4184 0.4673
vt 0.4585 0.4670
vt 0.4900 0.4664
vt 0.4842 0.5445
vt 0.4750 0.6045
vt 0.4547 0.6048
vt 0.4289 0.6051
vt 0.0624 0.4221
vt 0.0964 0.4252
vt 0.0903 0.5031
vt 0.0505 0.5000
vt 0.0172 0.4978
vt 0.0339 0.4198
vt 0.0523 0.3609
vt 0.0736 0.3628
vt 0.0992 0.3653
vt 0.3646 0.2459
vt 0.3650 0.1644
vt 0.4039 0.1651
vt 0.3989 0.2465
vt 0.3363 0.2462
vt 0.3329 0.1648
vt 0.0380 0.7437
vt 0.0407 0.6920
vt 0.0664 0.6924
vt 0.0722 0.7433
vt 0.0093 0.7450
vt 0.0192 0.6922
vt 0.4583 0.2277
vt 0.4531 0.2774
vt 0.4274 0.2770
vt 0.4239 0.2269
vt 0.4853 0.2261
vt 0.4734 0.2764
vt 0.2006 0.2578
vt 0.2006 0.3092
vt 0.1761 0.3091
vt 0.1680 0.2567
vt 0.2331 0.2576
vt 0.2250 0.3084
vt 0.0780 0.3399
vt 0.1007 0.3422
vt 0.0590 0.3382
vt 0.4540 0.6279
vt 0.4311 0.6283
vt 0.4720 0.6277
vt 0.2393 0.6602
vt 0.2177 0.6620
vt 0.2608 0.6576
vt 0.3663 0.3421
vt 0.3891 0.3425
vt 0.3905 0.3656
vt 0.3647 0.3652
vt 0.3435 0.3654
vt 0.3474 0.3423
vt 0.0422 0.6716
vt 0.0650 0.6722
vt 0.0231 0.6716
vt 0.4515 0.2973
vt 0.4286 0.2970
vt 0.4695 0.2965
vt 0.2012 0.3295
vt 0.1795 0.3296
vt 0.2229 0.3285
vt 0.3625 0.6774
vt 0.3854 0.6772
vt 0.3436 0.6770
vt 0.3679 0.8948
vt 0.4021 0.8922
vt 0.4039 0.9461
vt 0.3800 0.9496
vt 0.7634 0.4633
vt 0.7975 0.4645
vt 0.3395 0.8919
vt 0.0443 0.5785
vt 0.0785 0.5806
vt 0.0157 0.5774
vt 0.4556 0.3892
vt 0.4213 0.3893
vt 0.4827 0.3885
vt 0.2076 0.4227
vt 0.1751 0.4240
vt 0.2401 0.4200
vt 0.3605 0.4251
vt 0.3948 0.4256
vt 0.3322 0.4253
vt 0.3702 0.0844
vt 0.4002 0.0849
vt 0.3454 0.0847
vt 0.3612 0.0407
vt 0.1156 0.0841
vt 0.1453 0.0873
vt 0.0907 0.0817
vt 0.1121 0.0390
vt 0.4632 0.8851
vt 0.4332 0.8856
vt 0.4869 0.8849
vt 0.4729 0.9298
vt 0.2815 0.9153
vt 0.2914 0.9737
vt 0.2722 0.9600
vt 0.2532 0.9179
vt 0.3096 0.9116
vt 0.3053 0.9564
vt 0.9699 0.5537
vt 0.9708 0.5286
vt 0.9816 0.5298
vt 0.9808 0.5533
vt 0.9816 0.5719
vt 0.9708 0.5736
vt 0.9603 0.5713
vt 0.9595 0.5528
vt 0.9603 0.5293
vt 0.9261 0.6145
vt 0.9253 0.6050
vt 0.9363 0.6030
vt 0.9372 0.6138
vt 0.9372 0.6275
vt 0.9261 0.6265
vt 0.9154 0.6275
vt 0.9154 0.6138
vt 0.9145 0.6030
vt 0.5355 0.7099
vt 0.5183 0.6989
vt 0.5239 0.6958
vt 0.5366 0.7039
vt 0.5525 0.7038
vt 0.5571 0.7098
vt 0.5593 0.7156
vt 0.5320 0.7158
vt 0.5102 0.7018
vt 0.7348 0.7044
vt 0.7527 0.6933
vt 0.7606 0.6966
vt 0.7380 0.7106
vt 0.7104 0.7106
vt 0.7130 0.7044
vt 0.7178 0.6988
vt 0.7339 0.6988
vt 0.7470 0.6907
vt 0.7534 0.6748
vt 0.7410 0.6600
vt 0.7457 0.6545
vt 0.7615 0.6732
vt 0.7475 0.6771
vt 0.7384 0.6662
vt 0.5183 0.6803
vt 0.5312 0.6653
vt 0.5334 0.6712
vt 0.5239 0.6822
vt 0.5102 0.6783
vt 0.5266 0.6594
vt 0.6254 0.7698
vt 0.6260 0.7446
vt 0.6368 0.7459
vt 0.6364 0.7693
vt 0.6368 0.7890
vt 0.6257 0.7908
vt 0.6148 0.7887
vt 0.6147 0.7691
vt 0.6153 0.7456
vt 0.9358 0.1791
vt 0.9355 0.1690
vt 0.9463 0.1671
vt 0.9467 0.1785
vt 0.9467 0.1922
vt 0.9357 0.1911
vt 0.9249 0.1921
vt 0.9250 0.1785
vt 0.9247 0.1671
vt 0.9432 0.3026
vt 0.9437 0.3277
vt 0.9328 0.3267
vt 0.9323 0.3032
vt 0.9328 0.2839
vt 0.9437 0.2818
vt 0.9547 0.2836
vt 0.9544 0.3030
vt 0.9547 0.3265
vt 0.7462 0.7942
vt 0.7458 0.8041
vt 0.7351 0.8060
vt 0.7355 0.7947
vt 0.7355 0.7811
vt 0.7461 0.7822
vt 0.7570 0.7811
vt 0.7570 0.7947
vt 0.7566 0.8060
vt 0.5528 0.6652
vt 0.5493 0.6711
vt 0.5539 0.6592
vt 0.5757 0.6732
vt 0.5700 0.6762
vt 0.5620 0.6792
vt 0.7192 0.6600
vt 0.7013 0.6711
vt 0.6956 0.6685
vt 0.7182 0.6545
vt 0.7223 0.6662
vt 0.7092 0.6744
vt 0.9621 0.7540
vt 0.9627 0.7301
vt 0.9738 0.7316
vt 0.9731 0.7540
vt 0.9738 0.7763
vt 0.9630 0.7779
vt 0.9524 0.7764
vt 0.9515 0.7541
vt 0.9519 0.7317
vt 0.7188 0.3154
vt 0.7191 0.3267
vt 0.7081 0.3282
vt 0.7078 0.3153
vt 0.7084 0.3023
vt 0.7192 0.3039
vt 0.7299 0.3024
vt 0.7295 0.3154
vt 0.7299 0.3283
vt 0.5700 0.6948
vt 0.5620 0.6928
vt 0.5757 0.6967
vt 0.7006 0.6896
vt 0.6947 0.6919
vt 0.7087 0.6880
vt 0.6582 0.6827
vt 0.6551 0.6891
vt 0.6408 0.6891
vt 0.6385 0.6828
vt 0.6331 0.6775
vt 0.6577 0.6775
vt 0.8079 0.3115
vt 0.8032 0.3173
vt 0.7909 0.3025
vt 0.7986 0.2999
vt 0.6755 0.6936
vt 0.6675 0.6971
vt 0.6812 0.3158
vt 0.6812 0.3270
vt 0.6676 0.3283
vt 0.6688 0.3156
vt 0.6706 0.3026
vt 0.6818 0.3042
vt 0.6910 0.3025
vt 0.6919 0.3156
vt 0.6933 0.3283
vt 0.7398 0.7464
vt 0.7351 0.7302
vt 0.7405 0.7242
vt 0.7450 0.7448
vt 0.9348 0.0569
vt 0.9324 0.0620
vt 0.9120 0.0600
vt 0.9179 0.0551
vt 0.9768 0.4264
vt 0.9649 0.4169
vt 0.9707 0.4130
vt 0.9802 0.4199
vt 0.6730 0.7446
vt 0.6756 0.7513
vt 0.6639 0.7585
vt 0.6564 0.7542
vt 0.5249 0.7517
vt 0.5232 0.7275
vt 0.5377 0.7283
vt 0.5373 0.7509
vt 0.5377 0.7728
vt 0.5275 0.7751
vt 0.5193 0.7743
vt 0.5143 0.7527
vt 0.5102 0.7303
vt 0.9692 0.2973
vt 0.9760 0.2985
vt 0.9788 0.3120
vt 0.9728 0.3157
vt 0.6286 0.6974
vt 0.6311 0.7156
vt 0.6237 0.7190
vt 0.6208 0.6960
vt 0.9736 0.2818
vt 0.9794 0.2871
vt 0.9774 0.3986
vt 0.9804 0.4103
vt 0.9707 0.4130
vt 0.9676 0.3996
vt 0.9707 0.3880
vt 0.9804 0.3883
vt 0.9846 0.2978
vt 0.9874 0.3096
vt 0.9879 0.2877
vt 0.9123 0.0397
vt 0.9053 0.0406
vt 0.9120 0.0179
vt 0.9179 0.0219
vt 0.9609 0.3986
vt 0.9649 0.3828
vt 0.9251 0.1166
vt 0.9370 0.0968
vt 0.9490 0.0988
vt 0.9384 0.1174
vt 0.9375 0.1409
vt 0.9247 0.1418
vt 0.7791 0.2782
vt 0.7911 0.2586
vt 0.8026 0.2607
vt 0.7920 0.2790
vt 0.7909 0.3025
vt 0.7786 0.3034
vt 0.7576 0.7444
vt 0.7566 0.7693
vt 0.7461 0.7680
vt 0.7450 0.7448
vt 0.7549 0.7224
vt 0.7677 0.7248
vt 0.7677 0.7453
vt 0.7642 0.7685
vt 0.9848 0.3256
vt 0.9879 0.3192
vt 0.6483 0.7265
vt 0.6478 0.7213
vt 0.6621 0.7213
vt 0.6680 0.7264
vt 0.6698 0.7329
vt 0.6452 0.7329
vt 0.7621 0.4934
vt 0.7619 0.4828
vt 0.7733 0.4819
vt 0.7747 0.4940
vt 0.7739 0.5074
vt 0.7604 0.5052
vt 0.7487 0.5051
vt 0.7521 0.4918
vt 0.7534 0.4800
vt 0.9348 0.0126
vt 0.9324 0.0059
vt 0.9552 0.1496
vt 0.9502 0.1553
vt 0.9375 0.1409
vt 0.9462 0.1382
vt 0.7801 0.4927
vt 0.7801 0.5111
vt 0.7771 0.4763
vt 0.6779 0.7118
vt 0.6693 0.7105
vt 0.7996 0.2813
vt 0.8079 0.2668
vt 0.6721 0.7737
vt 0.6756 0.7834
vt 0.6645 0.7829
vt 0.6603 0.7717
vt 0.6639 0.7585
vt 0.6751 0.7620
vt 0.6602 0.7117
vt 0.6589 0.6999
vt 0.6541 0.7211
vt 0.9472 0.1197
vt 0.9552 0.1050
vt 0.6512 0.7721
vt 0.6572 0.7874
vt 0.4844 0.0086
vt 0.4940 0.0059
vt 0.4735 0.0061
vt 0.9839 0.2156
vt 0.9862 0.2247
vt 0.9762 0.2275
vt 0.9740 0.2184
vt 0.9762 0.2108
vt 0.9862 0.2080
vt 0.7841 0.3539
vt 0.7952 0.3558
vt 0.7754 0.3502
vt 0.7777 0.3401
vt 0.7863 0.3437
vt 0.7975 0.3457
vt 0.1354 0.9786
vt 0.1303 0.9859
vt 0.1424 0.9715
vt 0.1526 0.9797
vt 0.1456 0.9867
vt 0.1404 0.9941
vt 0.2928 0.0216
vt 0.2991 0.0285
vt 0.2865 0.0142
vt 0.2970 0.0059
vt 0.3033 0.0132
vt 0.3096 0.0202
vt 0.8965 0.0393
vt 0.9032 0.0149
vt 0.9032 0.0599
vt 0.6147 0.6964
vt 0.6274 0.6767
vt 0.6173 0.7212
vt 0.9703 0.6052
vt 0.9704 0.6304
vt 0.9595 0.6294
vt 0.9595 0.6059
vt 0.9595 0.5873
vt 0.9704 0.5853
vt 0.9812 0.5873
vt 0.9812 0.6059
vt 0.9812 0.6294
vt 0.7824 0.7926
vt 0.7824 0.7831
vt 0.7933 0.7811
vt 0.7933 0.7919
vt 0.7932 0.8055
vt 0.7824 0.8046
vt 0.7715 0.8055
vt 0.7715 0.7919
vt 0.7716 0.7811
vt 0.8427 0.0562
vt 0.8253 0.0450
vt 0.8307 0.0422
vt 0.8435 0.0504
vt 0.8592 0.0504
vt 0.8640 0.0562
vt 0.8663 0.0622
vt 0.8393 0.0622
vt 0.8173 0.0481
vt 0.7765 0.0564
vt 0.7941 0.0452
vt 0.8021 0.0482
vt 0.7798 0.0623
vt 0.7519 0.0623
vt 0.7545 0.0564
vt 0.7590 0.0505
vt 0.7751 0.0505
vt 0.7881 0.0423
vt 0.7942 0.0266
vt 0.7810 0.0118
vt 0.7855 0.0059
vt 0.8022 0.0247
vt 0.7882 0.0286
vt 0.7785 0.0177
vt 0.8248 0.0265
vt 0.8372 0.0116
vt 0.8395 0.0177
vt 0.8303 0.0286
vt 0.8166 0.0247
vt 0.8324 0.0059
vt 0.8756 0.7753
vt 0.8757 0.7502
vt 0.8866 0.7514
vt 0.8865 0.7748
vt 0.8866 0.7945
vt 0.8757 0.7963
vt 0.8649 0.7944
vt 0.8648 0.7748
vt 0.8649 0.7513
vt 0.9806 0.1099
vt 0.9807 0.1199
vt 0.9699 0.1218
vt 0.9697 0.1104
vt 0.9697 0.0968
vt 0.9806 0.0979
vt 0.9914 0.0968
vt 0.9914 0.1104
vt 0.9916 0.1218
vt 0.8195 0.7710
vt 0.8200 0.7459
vt 0.8309 0.7471
vt 0.8305 0.7706
vt 0.8309 0.7900
vt 0.8200 0.7918
vt 0.8092 0.7897
vt 0.8087 0.7703
vt 0.8092 0.7468
vt 0.9716 0.5031
vt 0.9720 0.5130
vt 0.9611 0.5149
vt 0.9607 0.5037
vt 0.9607 0.4900
vt 0.9716 0.4911
vt 0.9824 0.4900
vt 0.9823 0.5037
vt 0.9828 0.5149
vt 0.8586 0.0116
vt 0.8552 0.0177
vt 0.8594 0.0059
vt 0.8814 0.0200
vt 0.8760 0.0227
vt 0.8679 0.0259
vt 0.7590 0.0118
vt 0.7414 0.0229
vt 0.7354 0.0200
vt 0.7577 0.0059
vt 0.7623 0.0177
vt 0.7494 0.0259
vt 0.9253 0.7540
vt 0.9260 0.7301
vt 0.9370 0.7317
vt 0.9363 0.7540
vt 0.9370 0.7763
vt 0.9261 0.7779
vt 0.9154 0.7763
vt 0.9147 0.7540
vt 0.9153 0.7317
vt 0.8896 0.3147
vt 0.8899 0.3261
vt 0.8789 0.3276
vt 0.8785 0.3146
vt 0.8790 0.3017
vt 0.8899 0.3033
vt 0.9006 0.3017
vt 0.9002 0.3146
vt 0.9006 0.3276
vt 0.8764 0.0413
vt 0.8683 0.0395
vt 0.8820 0.0435
vt 0.7413 0.0415
vt 0.7353 0.0435
vt 0.7493 0.0396
f 2/1 5/2 4/3 1/4
f 3/5 6/6 5/2 2/1
f 5/2 8/7 7/8 4/3
f 6/6 9/9 8/7 5/2
f 8/10 11/11 10/12 7/13
f 9/14 12/15 11/11 8/10
f 11/11 14/16 13/17 10/12
f 12/15 15/18 14/16 11/11
f 14/16 17/19 16/20 13/17
f 15/18 18/21 17/19 14/16
f 17/19 20/22 19/23 16/20
f 18/21 21/24 20/22 17/19
f 20/22 23/25 22/26 19/23
f 21/24 24/27 23/25 20/22
f 23/25 26/28 25/29 22/26
f 24/27 27/30 26/28 23/25
f 26/31 29/32 28/33 25/34
f 27/30 30/35 29/36 26/28
f 29/32 32/37 31/38 28/33
f 30/39 33/40 32/37 29/32
f 32/37 35/41 34/42 31/38
f 33/40 36/43 35/41 32/37
f 35/41 38/44 37/45 34/42
f 36/43 39/46 38/44 35/41
f 38/44 41/47 40/48 37/45
f 39/49 42/50 41/51 38/52
f 41/47 44/53 43/54 40/48
f 42/50 45/55 44/56 41/51
f 44/53 47/57 46/58 43/54
f 45/55 48/59 47/60 44/56
f 47/57 50/61 49/62 46/58
f 48/59 51/63 50/64 47/60
f 50/61 53/65 52/66 49/62
f 51/67 54/68 53/65 50/61
f 53/65 56/69 55/70 52/66
f 54/68 57/71 56/69 53/65
f 56/69 59/72 58/73 55/70
f 57/71 60/74 59/72 56/69
f 59/72 62/75 61/76 58/73
f 60/74 63/77 62/75 59/72
f 62/78 65/79 64/80 61/81
f 63/82 66/83 65/84 62/85
f 65/79 68/86 67/87 64/80
f 66/83 69/88 68/89 65/84
f 68/86 71/90 70/91 67/87
f 69/88 72/92 71/93 68/89
f 74/94 77/95 76/96 73/97
f 75/98 78/99 77/95 74/94
f 77/95 80/100 79/101 76/96
f 78/99 81/102 80/100 77/95
f 80/103 83/104 82/105 79/106
f 81/107 84/108 83/104 80/103
f 83/104 86/109 85/110 82/105
f 84/108 87/111 86/109 83/104
f 86/109 89/112 88/113 85/110
f 87/111 90/114 89/112 86/109
f 89/112 92/115 91/116 88/113
f 90/114 93/117 92/115 89/112
f 92/115 95/118 94/119 91/116
f 93/117 96/120 95/118 92/115
f 95/121 98/122 97/123 94/124
f 96/120 99/125 98/126 95/118
f 98/122 101/127 100/128 97/123
f 99/129 102/130 101/127 98/122
f 101/127 104/131 103/132 100/128
f 102/130 105/133 104/131 101/127
f 104/131 107/134 106/135 103/132
f 105/133 108/136 107/134 104/131
f 107/134 110/137 109/138 106/135
f 108/136 111/139 110/137 107/134
f 110/137 113/140 112/141 109/138
f 111/139 114/142 113/140 110/137
f 113/140 116/143 115/144 112/141
f 114/142 117/145 116/143 113/140
f 116/143 119/146 118/147 115/144
f 117/145 120/148 119/146 116/143
f 119/146 122/149 121/150 118/147
f 120/148 123/151 122/149 119/146
f 122/149 125/152 124/153 121/150
f 123/151 126/154 125/152 122/149
f 125/152 128/155 127/156 124/153
f 126/154 129/157 128/155 125/152
f 128/155 131/158 130/159 127/156
f 129/157 132/160 131/158 128/155
f 131/161 134/162 133/163 130/164
f 132/165 135/166 134/162 131/161
f 134/162 137/167 136/168 133/163
f 135/166 138/169 137/167 134/162
f 137/167 140/170 139/171 136/168
f 138/169 141/172 140/170 137/167
f 140/170 143/173 142/174 139/171
f 141/172 144/175 143/173 140/170
f 146/176 149/177 148/178 145/179
f 147/180 150/181 149/177 146/176
f 149/177 152/182 151/183 148/178
f 150/181 153/184 152/182 149/177
f 152/185 155/186 154/187 151/188
f 153/189 156/190 155/186 152/185
f 155/191 158/192 157/193 154/194
f 156/190 159/195 158/196 155/186
f 158/192 161/197 160/198 157/193
f 159/195 162/199 161/200 158/196
f 161/197 164/201 163/202 160/198
f 162/199 165/203 164/204 161/200
f 164/201 167/205 166/206 163/202
f 165/207 168/208 167/205 164/201
f 167/205 170/209 169/210 166/206
f 168/208 171/211 170/209 167/205
f 170/209 173/212 172/213 169/210
f 171/211 174/214 173/212 170/209
f 173/212 176/215 175/216 172/213
f 174/214 177/217 176/215 173/212
f 176/215 179/218 178/219 175/216
f 177/217 180/220 179/218 176/215
f 179/218 182/221 181/222 178/219
f 180/220 183/223 182/221 179/218
f 182/221 185/224 184/225 181/222
f 183/223 186/226 185/224 182/221
f 185/224 188/227 187/228 184/225
f 186/226 189/229 188/227 185/224
f 188/227 191/230 190/231 187/228
f 189/229 192/232 191/230 188/227
f 191/230 194/233 193/234 190/231
f 192/232 195/235 194/233 191/230
f 194/236 197/237 196/238 193/239
f 195/240 198/241 197/237 194/236
f 197/237 200/242 199/243 196/238
f 198/241 201/244 200/242 197/237
f 200/242 203/245 202/246 199/243
f 201/244 204/247 203/245 200/242
f 206/248 209/249 208/250 205/251
f 207/252 210/253 209/249 206/248
f 209/249 212/254 211/255 208/250
f 210/253 213/256 212/254 209/249
f 212/254 215/257 214/258 211/255
f 213/256 216/259 215/257 212/254
f 215/257 218/260 217/261 214/258
f 216/259 219/262 218/260 215/257
f 218/263 221/264 220/265 217/266
f 219/267 222/268 221/264 218/263
f 221/264 224/269 223/270 220/265
f 222/268 225/271 224/269 221/264
f 224/269 227/272 226/273 223/270
f 225/271 228/274 227/272 224/269
f 227/272 230/275 229/276 226/273
f 228/274 231/277 230/275 227/272
f 230/278 233/279 232/280 229/281
f 231/282 234/283 233/279 230/278
f 233/279 236/284 235/285 232/280
f 234/283 237/286 236/284 233/279
f 236/284 239/287 238/288 235/285
f 237/286 240/289 239/287 236/284
f 239/287 242/290 241/291 238/288
f 240/289 243/292 242/290 239/287
f 242/290 245/293 244/294 241/291
f 243/292 246/295 245/293 242/290
f 245/293 248/296 247/297 244/294
f 246/295 249/298 248/296 245/293
f 248/296 251/299 250/300 247/297
f 249/298 252/301 251/299 248/296
f 251/299 254/302 253/303 250/300
f 252/301 255/304 254/302 251/299
f 254/302 257/305 256/306 253/303
f 255/304 258/307 257/305 254/302
f 257/305 260/308 259/309 256/306
f 258/307 261/310 260/308 257/305
f 260/308 263/311 262/312 259/309
f 261/310 264/313 263/311 260/308
f 263/311 266/314 265/315 262/312
f 264/313 267/316 266/314 263/311
f 266/317 269/318 268/319 265/320
f 267/321 270/322 269/318 266/317
f 269/318 272/323 271/324 268/319
f 270/322 273/325 272/323 269/318
f 272/323 275/326 274/327 271/324
f 273/325 276/328 275/326 272/323
f 278/329 281/330 280/331 277/332
f 279/333 282/334 281/330 278/329
f 281/335 284/336 283/337 280/338
f 282/339 285/340 284/336 281/335
f 284/336 287/341 286/342 283/337
f 285/340 288/343 287/341 284/336
f 287/341 290/344 289/345 286/342
f 288/343 291/346 290/344 287/341
f 290/344 293/347 292/348 289/345
f 291/346 294/349 293/347 290/344
f 296/350 299/351 298/352 295/353
f 297/354 300/355 299/351 296/350
f 299/351 302/356 301/357 298/352
f 300/355 303/358 302/356 299/351
f 302/356 305/359 304/360 301/357
f 303/358 306/361 305/359 302/356
f 305/362 308/363 307/364 304/365
f 306/366 309/367 308/363 305/362
f 308/363 311/368 310/369 307/364
f 309/367 312/370 311/368 308/363
f 311/368 314/371 313/372 310/369
f 312/370 315/373 314/371 311/368
f 314/371 317/374 316/375 313/372
f 315/373 318/376 317/374 314/371
f 320/377 323/378 322/379 319/380
f 321/381 324/382 323/378 320/377
f 323/378 326/383 325/384 322/379
f 324/382 327/385 326/383 323/378
f 326/383 329/386 328/387 325/384
f 327/385 330/388 329/386 326/383
f 329/386 332/389 331/390 328/387
f 330/388 333/391 332/389 329/386
f 332/389 335/392 334/393 331/390
f 333/391 336/394 335/392 332/389
f 335/392 338/395 337/396 334/393
f 336/394 339/397 338/395 335/392
f 338/395 341/398 340/399 337/396
f 339/397 342/400 341/398 338/395
f 341/398 344/401 343/402 340/399
f 342/400 345/403 344/401 341/398
f 344/401 347/404 346/405 343/402
f 345/403 348/406 347/404 344/401
f 347/407 350/408 349/409 346/410
f 348/411 351/412 350/408 347/407
f 350/408 353/413 352/414 349/409
f 351/412 354/415 353/413 350/408
f 353/413 356/416 355/417 352/414
f 354/415 357/418 356/416 353/413
f 356/416 359/419 358/420 355/417
f 357/418 360/421 359/419 356/416
f 362/422 365/423 364/424 361/425
f 363/426 366/427 365/428 362/429
f 365/423 368/430 367/431 364/424
f 366/427 369/432 368/433 365/428
f 368/430 371/434 370/435 367/431
f 369/432 372/436 371/437 368/433
f 371/434 374/438 373/439 370/435
f 372/436 375/440 374/441 371/437
f 374/438 377/442 376/443 373/439
f 375/440 378/444 377/445 374/441
f 377/442 380/446 379/447 376/443
f 378/444 381/448 380/449 377/445
f 380/446 383/450 382/451 379/447
f 381/452 384/453 383/450 380/446
f 386/454 389/455 388/456 385/457
f 387/458 390/459 389/455 386/454
f 389/455 392/460 391/461 388/456
f 390/459 393/462 392/460 389/455
f 392/460 395/463 394/464 391/461
f 393/462 396/465 395/463 392/460
f 395/463 398/466 397/467 394/464
f 396/465 399/468 398/466 395/463
f 398/466 401/469 400/470 397/467
f 399/468 402/471 401/469 398/466
f 404/472 407/473 406/474 403/475
f 405/476 408/477 407/473 404/472
f 407/473 410/478 409/479 406/474
f 408/477 411/480 410/478 407/473
f 410/478 413/481 412/482 409/479
f 411/480 414/483 413/481 410/478
f 413/481 416/484 415/485 412/482
f 414/483 417/486 416/484 413/481
f 416/484 419/487 418/488 415/485
f 417/486 420/489 419/487 416/484
f 419/490 422/491 421/492 418/493
f 420/494 423/495 422/491 419/490
f 422/491 425/496 424/497 421/492
f 423/495 426/498 425/496 422/491
f 425/496 428/499 427/500 424/497
f 426/498 429/501 428/499 425/496
f 428/499 431/502 430/503 427/500
f 429/501 432/504 431/502 428/499
f 431/502 434/505 433/506 430/503
f 432/504 435/507 434/505 431/502
f 434/505 437/508 436/509 433/506
f 435/507 438/510 437/508 434/505
f 437/508 440/511 439/512 436/509
f 438/510 441/513 440/511 437/508
f 440/511 443/514 442/515 439/512
f 441/513 444/516 443/514 440/511
f 443/514 446/517 445/518 442/515
f 444/516 447/519 446/517 443/514
f 446/520 449/521 448/522 445/523
f 447/524 450/525 449/521 446/520
f 452/526 455/527 454/528 451/529
f 453/530 456/531 455/527 452/526
f 455/527 458/532 457/533 454/528
f 456/531 459/534 458/532 455/527
f 458/532 461/535 460/536 457/533
f 459/534 462/537 461/535 458/532
f 461/535 464/538 463/539 460/536
f 462/537 465/540 464/538 461/535
f 464/538 467/541 466/542 463/539
f 465/540 468/543 467/541 464/538
f 467/544 470/545 469/546 466/547
f 468/548 471/549 470/545 467/544
f 470/545 473/550 472/551 469/546
f 471/549 474/552 473/550 470/545
f 473/550 476/553 475/554 472/551
f 474/552 477/555 476/553 473/550
f 476/553 479/556 478/557 475/554
f 477/555 480/558 479/556 476/553
f 479/556 482/559 481/560 478/557
f 480/558 483/561 482/559 479/556
f 482/559 485/562 484/563 481/560
f 483/561 486/564 485/562 482/559
f 485/562 488/565 487/566 484/563
f 486/564 489/567 488/565 485/562
f 488/565 491/568 490/569 487/566
f 489/567 492/570 491/568 488/565
f 491/571 494/572 493/573 490/574
f 492/575 495/576 494/572 491/571
f 494/572 497/577 496/578 493/573
f 495/576 498/579 497/577 494/572
f 500/580 503/581 502/582 499/583
f 501/584 504/585 503/581 500/580
f 503/581 506/586 505/587 502/582
f 504/585 507/588 506/586 503/581
f 506/586 509/589 508/590 505/587
f 507/588 510/591 509/589 506/586
f 509/592 512/593 511/594 508/595
f 510/596 513/597 512/593 509/592
f 512/593 515/598 514/599 511/594
f 513/597 516/600 515/598 512/593
f 515/598 518/601 517/602 514/599
f 516/600 519/603 518/601 515/598
f 518/601 521/604 520/605 517/602
f 519/603 522/606 521/604 518/601
f 521/604 524/607 523/608 520/605
f 522/606 525/609 524/607 521/604
f 524/607 527/610 526/611 523/608
f 525/609 528/612 527/610 524/607
f 530/613 533/614 532/615 529/616
f 531/617 534/618 533/614 530/613
f 533/614 536/619 535/620 532/615
f 534/618 537/621 536/619 533/614
f 536/619 539/622 538/623 535/620
f 537/621 540/624 539/622 536/619
f 539/622 542/625 541/626 538/623
f 540/624 543/627 542/625 539/622
f 542/625 545/628 544/629 541/626
f 543/627 546/630 545/628 542/625
f 545/631 548/632 547/633 544/634
f 546/635 549/636 548/632 545/631
f 548/632 551/637 550/638 547/633
f 549/636 552/639 551/637 548/632
f 551/637 554/640 553/641 550/638
f 552/639 555/642 554/640 551/637
f 554/640 557/643 556/644 553/641
f 555/642 558/645 557/643 554/640
f 560/646 563/647 562/648 559/649
f 561/650 564/651 563/647 560/646
f 563/647 566/652 565/653 562/648
f 564/651 567/654 566/652 563/647
f 566/652 569/655 568/656 565/653
f 567/654 570/657 569/655 566/652
f 569/655 572/658 571/659 568/656
f 570/657 573/660 572/658 569/655
f 572/661 575/662 574/663 571/664
f 573/665 576/666 575/662 572/661
f 575/662 578/667 577/668 574/663
f 576/666 579/669 578/667 575/662
f 578/667 581/670 580/671 577/668
f 579/669 582/672 581/670 578/667
f 581/670 584/673 583/674 580/671
f 582/672 585/675 584/673 581/670
f 584/673 587/676 586/677 583/674
f 585/675 588/678 587/676 584/673
f 590/679 593/680 592/681 589/682
f 591/683 594/684 593/685 590/686
f 593/680 596/687 595/688 592/681
f 594/684 597/689 596/690 593/685
f 596/691 599/692 598/693 595/694
f 597/689 600/695 599/692 596/690
f 599/692 602/696 601/697 598/693
f 600/695 603/698 602/696 599/692
f 602/699 605/700 604/701 601/702
f 603/698 606/703 605/704 602/696
f 608/705 611/706 610/707 607/708
f 609/709 612/710 611/706 608/705
f 611/706 614/711 613/712 610/707
f 612/710 615/713 614/711 611/706
f 614/711 617/714 616/715 613/712
f 615/713 618/716 617/714 614/711
f 617/717 620/718 619/719 616/720
f 618/721 621/722 620/718 617/717
f 620/718 623/723 622/724 619/719
f 621/722 624/725 623/723 620/718
f 625/726 756/727 934/728 723/729
f 625/726 723/729 919/730 724/731
f 625/726 724/731 921/732 750/733
f 625/726 750/733 935/734 756/727
f 626/735 755/736 935/737 750/738
f 626/735 750/738 921/739 727/740
f 626/735 727/740 925/741 751/742
f 626/735 751/742 936/743 755/736
f 627/744 754/745 936/746 751/747
f 627/744 751/747 925/748 730/749
f 627/744 730/749 923/750 752/751
f 627/744 752/751 937/752 754/745
f 628/753 753/754 937/755 752/756
f 628/753 752/756 923/757 733/758
f 628/753 733/758 919/759 723/760
f 628/753 723/760 934/761 753/754
f 629/762 722/763 920/764 726/765
f 629/766 726/767 924/768 729/769
f 629/770 729/771 922/772 732/773
f 629/774 732/775 918/776 722/777
f 630/778 770/779 945/780 766/781
f 630/778 766/781 933/782 742/783
f 630/778 742/783 926/784 734/785
f 630/778 734/785 942/786 770/779
f 631/787 794/788 957/789 790/790
f 631/787 790/790 932/791 743/792
f 631/787 743/792 927/793 735/794
f 631/787 735/794 954/795 794/788
f 632/796 769/797 944/798 765/799
f 632/796 765/799 931/800 744/801
f 632/796 744/801 933/802 766/803
f 632/796 766/803 945/804 769/797
f 633/805 793/806 956/807 789/808
f 633/805 789/808 930/809 745/810
f 633/805 745/810 932/811 790/812
f 633/805 790/812 957/813 793/806
f 634/814 768/815 943/816 764/817
f 634/814 764/817 929/818 746/819
f 634/814 746/819 931/820 765/821
f 634/814 765/821 944/822 768/815
f 635/823 792/824 955/825 788/826
f 635/823 788/826 928/827 747/828
f 635/823 747/828 930/829 789/830
f 635/823 789/830 956/831 792/824
f 636/832 767/833 942/834 734/835
f 636/832 734/835 926/836 748/837
f 636/832 748/837 929/838 764/839
f 636/832 764/839 943/840 767/833
f 637/841 791/842 954/843 735/844
f 637/841 735/844 927/845 749/846
f 637/841 749/846 928/847 788/848
f 637/841 788/848 955/849 791/842
f 638/850 802/851 961/852 787/853
f 638/850 787/853 954/843 791/842
f 638/850 791/842 955/849 795/854
f 638/850 795/854 958/855 802/851
f 639/856 758/857 938/858 725/859
f 639/856 725/859 937/755 753/754
f 639/856 753/754 934/761 762/860
f 639/856 762/860 941/861 758/857
f 640/862 759/863 939/864 728/865
f 640/862 728/865 936/746 754/745
f 640/862 754/745 937/752 725/866
f 640/862 725/866 938/867 759/863
f 641/868 760/869 940/870 731/871
f 641/868 731/871 935/737 755/736
f 641/868 755/736 936/743 728/872
f 641/868 728/872 939/873 760/869
f 642/874 809/875 962/876 803/877
f 642/874 803/877 943/816 768/815
f 642/874 768/815 944/822 804/878
f 642/874 804/878 963/879 809/875
f 643/880 808/881 963/882 804/883
f 643/880 804/883 944/798 769/797
f 643/880 769/797 945/804 805/884
f 643/880 805/884 964/885 808/881
f 644/886 807/887 964/888 805/889
f 644/886 805/889 945/780 770/779
f 644/886 770/779 942/786 763/890
f 644/886 763/890 965/891 807/887
f 645/892 786/893 953/894 757/895
f 645/892 757/895 941/896 761/897
f 645/892 761/897 940/898 779/899
f 645/892 779/899 950/900 786/893
f 646/901 771/902 958/903 801/904
f 646/901 801/904 959/905 772/906
f 646/901 772/906 947/907 777/908
f 646/901 777/908 946/909 771/902
f 647/910 772/911 959/912 800/913
f 647/910 800/913 960/914 773/915
f 647/910 773/915 948/916 776/917
f 647/910 776/917 947/918 772/911
f 648/919 773/920 960/921 799/922
f 648/919 799/922 961/923 798/924
f 648/919 798/924 949/925 775/926
f 648/919 775/926 948/927 773/920
f 649/928 806/929 965/930 763/931
f 649/928 763/931 942/834 767/833
f 649/928 767/833 943/840 803/932
f 649/928 803/932 962/933 806/929
f 650/934 783/935 952/936 781/937
f 650/934 781/937 938/858 758/857
f 650/934 758/857 941/861 757/938
f 650/934 757/938 953/939 783/935
f 651/940 784/941 951/942 780/943
f 651/940 780/943 939/864 759/863
f 651/940 759/863 938/867 781/944
f 651/940 781/944 952/945 784/941
f 652/946 785/947 950/948 779/949
f 652/946 779/949 940/870 760/869
f 652/946 760/869 939/873 780/950
f 652/946 780/950 951/951 785/947
f 653/952 742/783 933/782 741/953
f 653/952 741/953 948/927 775/926
f 653/952 775/926 949/925 774/954
f 653/952 774/954 926/784 742/783
f 654/955 744/801 931/800 739/956
f 654/955 739/956 947/918 776/917
f 654/955 776/917 948/916 741/957
f 654/955 741/957 933/802 744/801
f 655/958 746/819 929/818 737/959
f 655/958 737/959 946/909 777/908
f 655/958 777/908 947/907 739/960
f 655/958 739/960 931/820 746/819
f 656/961 748/837 926/836 774/962
f 656/961 774/962 949/963 778/964
f 656/961 778/964 946/965 737/966
f 656/961 737/966 929/838 748/837
f 657/967 743/792 932/791 740/968
f 657/967 740/968 952/936 783/935
f 657/967 783/935 953/939 782/969
f 657/967 782/969 927/793 743/792
f 658/970 745/810 930/809 738/971
f 658/970 738/971 951/942 784/941
f 658/970 784/941 952/945 740/972
f 658/970 740/972 932/811 745/810
f 659/973 747/828 928/827 736/974
f 659/973 736/974 950/948 785/947
f 659/973 785/947 951/951 738/975
f 659/973 738/975 930/829 747/828
f 660/976 749/846 927/845 782/977
f 660/976 782/977 953/894 786/893
f 660/976 786/893 950/900 736/978
f 660/976 736/978 928/847 749/846
f 661/979 761/897 941/896 762/980
f 661/979 762/980 934/981 756/982
f 661/983 756/727 935/734 731/984
f 661/979 731/985 940/898 761/897
f 662/986 797/987 957/789 794/788
f 662/986 794/788 954/795 787/988
f 662/986 787/988 961/923 799/922
f 662/986 799/922 960/921 797/987
f 663/989 796/990 956/807 793/806
f 663/989 793/806 957/813 797/991
f 663/989 797/991 960/914 800/913
f 663/989 800/913 959/912 796/990
f 664/992 795/993 955/825 792/824
f 664/992 792/824 956/831 796/994
f 664/992 796/994 959/905 801/904
f 664/992 801/904 958/903 795/993
f 665/995 778/964 949/963 798/996
f 665/995 798/996 961/852 802/851
f 665/995 802/851 958/855 771/997
f 665/995 771/997 946/965 778/964
f 666/998 722/777 918/776 813/999
f 666/998 813/999 965/930 806/929
f 666/998 806/929 962/933 810/1000
f 666/998 810/1000 920/1001 722/777
f 667/1002 732/773 922/772 812/1003
f 667/1002 812/1003 964/888 807/887
f 667/1002 807/887 965/891 813/1004
f 667/1002 813/1004 918/1005 732/773
f 668/1006 729/769 924/768 811/1007
f 668/1006 811/1007 963/882 808/881
f 668/1006 808/881 964/885 812/1008
f 668/1006 812/1008 922/1009 729/769
f 669/1010 726/1011 920/1012 810/1013
f 669/1010 810/1013 962/876 809/875
f 669/1010 809/875 963/879 811/1014
f 669/1010 811/1014 924/1015 726/1011
f 670/1016 834/1017 970/1018 828/1019
f 670/1016 828/1019 966/1020 839/1021
f 670/1016 839/1021 969/1022 832/1023
f 670/1016 832/1023 973/1024 834/1017
f 671/1025 829/1026 975/1027 821/1028
f 671/1025 821/1028 979/1029 842/1030
f 671/1025 842/1030 980/1031 817/1032
f 671/1025 817/1032 976/1033 829/1026
f 672/1034 831/1035 976/1036 817/1037
f 672/1034 817/1037 980/1038 844/1039
f 672/1034 844/1039 981/1040 819/1041
f 672/1034 819/1041 977/1042 831/1035
f 673/1043 833/1044 974/1045 815/1046
f 673/1043 815/1046 978/1047 836/1048
f 673/1043 836/1048 979/1049 821/1050
f 673/1043 821/1050 975/1051 833/1044
f 674/1052 837/1053 970/1054 822/1055
f 674/1052 822/1055 974/1045 833/1044
f 674/1052 833/1044 975/1051 825/1056
f 674/1052 825/1056 971/1057 837/1053
f 675/1058 835/1059 972/1060 826/1061
f 675/1058 826/1061 976/1036 831/1035
f 675/1058 831/1035 977/1042 823/1062
f 675/1058 823/1062 973/1063 835/1059
f 676/1064 839/1065 966/1066 816/1067
f 676/1064 816/1067 978/1068 840/1069
f 676/1064 840/1069 981/1070 820/1071
f 676/1064 820/1071 969/1072 839/1065
f 677/1073 838/1074 971/1075 825/1076
f 677/1073 825/1076 975/1077 829/1078
f 677/1073 829/1078 976/1079 826/1080
f 677/1073 826/1080 972/1081 838/1074
f 678/1082 840/1083 978/1084 815/1085
f 678/1082 815/1085 974/1086 827/1087
f 678/1082 827/1087 977/1088 819/1089
f 678/1082 819/1089 981/1090 840/1083
f 679/1091 841/1092 967/1093 824/1094
f 679/1091 824/1094 971/1095 838/1096
f 679/1091 838/1096 972/1097 830/1098
f 679/1091 830/1098 968/1099 841/1092
f 680/1100 830/1101 972/1060 835/1059
f 680/1100 835/1059 973/1063 832/1102
f 680/1100 832/1102 969/1103 843/1104
f 680/1100 843/1104 968/1105 830/1101
f 681/1106 845/1107 966/1108 828/1109
f 681/1106 828/1109 970/1054 837/1053
f 681/1106 837/1053 971/1057 824/1110
f 681/1106 824/1110 967/1111 845/1107
f 682/1112 827/1113 974/1114 822/1115
f 682/1112 822/1115 970/1116 834/1117
f 682/1112 834/1117 973/1118 823/1119
f 682/1112 823/1119 977/1120 827/1113
f 683/1121 842/1122 979/1123 814/1124
f 683/1121 814/1124 967/1125 841/1126
f 683/1121 841/1126 968/1127 818/1128
f 683/1121 818/1128 980/1129 842/1122
f 684/1130 818/1131 968/1105 843/1104
f 684/1130 843/1104 969/1103 820/1132
f 684/1130 820/1132 981/1040 844/1039
f 684/1130 844/1039 980/1038 818/1131
f 685/1133 836/1048 978/1047 816/1134
f 685/1133 816/1134 966/1108 845/1107
f 685/1133 845/1107 967/1111 814/1135
f 685/1133 814/1135 979/1049 836/1048
f 686/1136 883/1137 995/1138 846/1139
f 686/1136 846/1139 994/1140 882/1141
f 686/1142 882/1143 982/1144 850/1145
f 686/1136 850/1146 983/1147 883/1137
f 687/1148 851/1149 984/1150 884/1151
f 687/1148 884/1151 996/1152 847/1153
f 687/1148 847/1153 995/1154 883/1155
f 687/1148 883/1155 983/1156 851/1149
f 688/1157 852/1158 985/1159 885/1160
f 688/1161 885/1162 997/1163 848/1164
f 688/1165 848/1166 996/1167 884/1168
f 688/1169 884/1170 984/1171 852/1172
f 689/1173 861/1174 989/1175 877/1176
f 689/1173 877/1176 993/1177 857/1178
f 689/1173 857/1178 990/1179 874/1180
f 689/1173 874/1180 986/1181 861/1174
f 690/1182 871/1183 991/1184 854/1185
f 690/1186 854/1187 990/1188 870/1189
f 690/1186 870/1189 994/1140 846/1139
f 690/1182 846/1190 995/1191 871/1183
f 691/1192 847/1193 996/1194 872/1195
f 691/1192 872/1195 992/1196 855/1197
f 691/1198 855/1199 991/1184 871/1183
f 691/1198 871/1183 995/1191 847/1200
f 692/1201 848/1164 997/1163 873/1202
f 692/1201 873/1202 993/1203 856/1204
f 692/1205 856/1206 992/1196 872/1195
f 692/1205 872/1195 996/1194 848/1166
f 693/1207 853/1208 985/1209 881/1210
f 693/1207 881/1210 989/1211 861/1212
f 693/1213 861/1214 986/1215 878/1216
f 693/1213 878/1216 982/1217 853/1218
f 694/1219 849/1220 997/1221 885/1222
f 694/1219 885/1222 985/1159 853/1223
f 694/1219 853/1223 982/1224 882/1225
f 694/1219 882/1225 994/1226 849/1220
f 695/1227 854/1185 991/1184 875/1228
f 695/1229 875/1230 987/1231 858/1232
f 695/1229 858/1232 986/1233 874/1234
f 695/1229 874/1234 990/1188 854/1187
f 696/1235 855/1236 992/1237 876/1238
f 696/1235 876/1238 988/1239 859/1240
f 696/1235 859/1240 987/1241 875/1242
f 696/1235 875/1242 991/1243 855/1236
f 697/1244 856/1204 993/1203 877/1245
f 697/1246 877/1247 989/1248 860/1249
f 697/1250 860/1251 988/1239 876/1238
f 697/1250 876/1238 992/1237 856/1252
f 698/1253 858/1232 987/1231 879/1254
f 698/1253 879/1254 983/1147 850/1146
f 698/1255 850/1145 982/1144 878/1216
f 698/1255 878/1216 986/1215 858/1256
f 699/1257 859/1258 988/1259 880/1260
f 699/1257 880/1260 984/1261 851/1262
f 699/1263 851/1264 983/1147 879/1254
f 699/1263 879/1254 987/1231 859/1265
f 700/1266 860/1249 989/1248 881/1210
f 700/1266 881/1210 985/1209 852/1267
f 700/1268 852/1172 984/1171 880/1260
f 700/1268 880/1260 988/1259 860/1269
f 701/1270 867/1271 923/750 730/749
f 701/1270 730/749 925/748 866/1272
f 701/1273 866/1274 1001/1275 864/1276
f 701/1273 864/1276 1000/1277 867/1278
f 702/1279 869/1280 921/732 724/731
f 702/1279 724/731 919/730 868/1281
f 702/1279 868/1281 998/1282 862/1283
f 702/1279 862/1283 999/1284 869/1280
f 703/1285 868/1286 919/759 733/758
f 703/1285 733/758 923/757 867/1287
f 703/1285 867/1287 1000/1288 865/1289
f 703/1285 865/1289 998/1290 868/1286
f 704/1291 866/1292 925/741 727/740
f 704/1291 727/740 921/739 869/1293
f 704/1291 869/1293 999/1294 863/1295
f 704/1291 863/1295 1001/1296 866/1292
f 705/1297 857/1298 993/1203 873/1202
f 705/1297 873/1202 997/1163 849/1299
f 705/1300 849/1301 994/1140 870/1189
f 705/1300 870/1189 990/1188 857/1302
f 706/1303 906/1304 1006/1305 900/1306
f 706/1303 900/1306 1002/1307 911/1308
f 706/1303 911/1308 1005/1309 904/1310
f 706/1303 904/1310 1009/1311 906/1304
f 707/1312 901/1313 1011/1314 893/1315
f 707/1312 893/1315 1015/1316 914/1317
f 707/1312 914/1317 1016/1318 889/1319
f 707/1312 889/1319 1012/1320 901/1313
f 708/1321 903/1322 1012/1323 889/1324
f 708/1321 889/1324 1016/1325 916/1326
f 708/1321 916/1326 1017/1327 891/1328
f 708/1321 891/1328 1013/1329 903/1322
f 709/1330 905/1331 1010/1332 887/1333
f 709/1330 887/1333 1014/1334 908/1335
f 709/1330 908/1335 1015/1336 893/1337
f 709/1330 893/1337 1011/1338 905/1331
f 710/1339 909/1340 1006/1341 894/1342
f 710/1339 894/1342 1010/1332 905/1331
f 710/1339 905/1331 1011/1338 897/1343
f 710/1339 897/1343 1007/1344 909/1340
f 711/1345 907/1346 1008/1347 898/1348
f 711/1345 898/1348 1012/1323 903/1322
f 711/1345 903/1322 1013/1329 895/1349
f 711/1345 895/1349 1009/1350 907/1346
f 712/1351 911/1352 1002/1353 888/1354
f 712/1351 888/1354 1014/1355 912/1356
f 712/1351 912/1356 1017/1357 892/1358
f 712/1351 892/1358 1005/1359 911/1352
f 713/1360 910/1361 1007/1362 897/1363
f 713/1360 897/1363 1011/1364 901/1365
f 713/1360 901/1365 1012/1366 898/1367
f 713/1360 898/1367 1008/1368 910/1361
f 714/1369 912/1370 1014/1371 887/1372
f 714/1369 887/1372 1010/1373 899/1374
f 714/1369 899/1374 1013/1375 891/1376
f 714/1369 891/1376 1017/1377 912/1370
f 715/1378 913/1379 1003/1380 896/1381
f 715/1378 896/1381 1007/1382 910/1383
f 715/1378 910/1383 1008/1384 902/1385
f 715/1378 902/1385 1004/1386 913/1379
f 716/1387 902/1388 1008/1347 907/1346
f 716/1387 907/1346 1009/1350 904/1389
f 716/1387 904/1389 1005/1390 915/1391
f 716/1387 915/1391 1004/1392 902/1388
f 717/1393 917/1394 1002/1395 900/1396
f 717/1393 900/1396 1006/1341 909/1340
f 717/1393 909/1340 1007/1344 896/1397
f 717/1393 896/1397 1003/1398 917/1394
f 718/1399 899/1400 1010/1401 894/1402
f 718/1399 894/1402 1006/1403 906/1404
f 718/1399 906/1404 1009/1405 895/1406
f 718/1399 895/1406 1013/1407 899/1400
f 719/1408 914/1409 1015/1410 886/1411
f 719/1408 886/1411 1003/1412 913/1413
f 719/1408 913/1413 1004/1414 890/1415
f 719/1408 890/1415 1016/1416 914/1409
f 720/1417 890/1418 1004/1392 915/1391
f 720/1417 915/1391 1005/1390 892/1419
f 720/1417 892/1419 1017/1327 916/1326
f 720/1417 916/1326 1016/1325 890/1418
f 721/1420 908/1335 1014/1334 888/1421
f 721/1420 888/1421 1002/1395 917/1394
f 721/1420 917/1394 1003/1398 886/1422
f 721/1420 886/1422 1015/1336 908/1335